NotoSans-SemiBold.ufo
<glyph name="exclam" format="2">
  <advance width="286"/>
  <unicode hex="0021"/>
  <outline>
    <contour>
      <point x="203" y="237" type="line"/>
      <point x="228" y="714" type="line"/>
      <point x="59" y="714" type="line"/>
      <point x="84" y="237" type="line"/>
    </contour>
    <contour>
      <point x="57" y="70" type="curve" smooth="yes"/>
      <point x="57" y="11"/>
      <point x="95" y="-13"/>
      <point x="143" y="-13" type="curve" smooth="yes"/>
      <point x="189" y="-13"/>
      <point x="228" y="11"/>
      <point x="228" y="70" type="curve" smooth="yes"/>
      <point x="228" y="131"/>
      <point x="189" y="153"/>
      <point x="143" y="153" type="curve" smooth="yes"/>
      <point x="95" y="153"/>
      <point x="57" y="131"/>
    </contour>
  </outline>
</glyph>
<glyph name="dollar" format="2">
  <advance width="572"/>
  <unicode hex="0024"/>
  <outline>
    <contour>
      <point x="253" y="40" type="curve"/>
      <point x="253" y="-58" type="line"/>
      <point x="320" y="-58" type="line"/>
      <point x="320" y="42" type="line"/>
      <point x="463" y="55"/>
      <point x="533" y="126"/>
      <point x="533" y="223" type="curve" smooth="yes"/>
      <point x="533" y="340"/>
      <point x="428" y="381"/>
      <point x="320" y="421" type="curve"/>
      <point x="320" y="565" type="line"/>
      <point x="367" y="561"/>
      <point x="423" y="549"/>
      <point x="476" y="527" type="curve"/>
      <point x="522" y="641" type="line"/>
      <point x="459" y="669"/>
      <point x="395" y="683"/>
      <point x="320" y="686" type="curve"/>
      <point x="320" y="759" type="line"/>
      <point x="253" y="759" type="line"/>
      <point x="253" y="684" type="line"/>
      <point x="129" y="673"/>
      <point x="43" y="612"/>
      <point x="43" y="512" type="curve" smooth="yes"/>
      <point x="43" y="414"/>
      <point x="98" y="366"/>
      <point x="253" y="306" type="curve"/>
      <point x="253" y="155" type="line"/>
      <point x="183" y="159"/>
      <point x="99" y="184"/>
      <point x="44" y="211" type="curve"/>
      <point x="44" y="82" type="line"/>
      <point x="100" y="57"/>
      <point x="166" y="42"/>
    </contour>
    <contour>
      <point x="320" y="158" type="curve"/>
      <point x="320" y="280" type="line"/>
      <point x="364" y="260"/>
      <point x="386" y="243"/>
      <point x="386" y="216" type="curve" smooth="yes"/>
      <point x="386" y="185"/>
      <point x="365" y="166"/>
    </contour>
    <contour>
      <point x="253" y="563" type="curve"/>
      <point x="253" y="448" type="line"/>
      <point x="209" y="468"/>
      <point x="190" y="484"/>
      <point x="190" y="512" type="curve" smooth="yes"/>
      <point x="190" y="540"/>
      <point x="213" y="557"/>
    </contour>
  </outline>
</glyph>
<glyph name="ampersand" format="2">
  <advance width="750"/>
  <unicode hex="0026"/>
  <outline>
    <contour>
      <point x="310" y="724" type="curve" smooth="yes"/>
      <point x="187" y="724"/>
      <point x="101" y="660"/>
      <point x="101" y="559" type="curve" smooth="yes"/>
      <point x="101" y="501"/>
      <point x="119" y="455"/>
      <point x="171" y="395" type="curve"/>
      <point x="89" y="348"/>
      <point x="40" y="294"/>
      <point x="40" y="193" type="curve" smooth="yes"/>
      <point x="40" y="72"/>
      <point x="136" y="-10"/>
      <point x="299" y="-10" type="curve" smooth="yes"/>
      <point x="382" y="-10"/>
      <point x="452" y="15"/>
      <point x="510" y="55" type="curve"/>
      <point x="566" y="0" type="line"/>
      <point x="750" y="0" type="line"/>
      <point x="603" y="143" type="line"/>
      <point x="663" y="218"/>
      <point x="701" y="308"/>
      <point x="721" y="383" type="curve"/>
      <point x="566" y="383" type="line"/>
      <point x="552" y="332"/>
      <point x="533" y="281"/>
      <point x="506" y="236" type="curve"/>
      <point x="367" y="371" type="line"/>
      <point x="448" y="418"/>
      <point x="510" y="477"/>
      <point x="510" y="569" type="curve" smooth="yes"/>
      <point x="510" y="668"/>
      <point x="425" y="724"/>
    </contour>
    <contour>
      <point x="258" y="306" type="curve"/>
      <point x="420" y="145" type="line"/>
      <point x="389" y="126"/>
      <point x="352" y="115"/>
      <point x="309" y="115" type="curve" smooth="yes"/>
      <point x="245" y="115"/>
      <point x="197" y="150"/>
      <point x="197" y="207" type="curve" smooth="yes"/>
      <point x="197" y="248"/>
      <point x="220" y="278"/>
    </contour>
    <contour>
      <point x="309" y="609" type="curve" smooth="yes"/>
      <point x="339" y="609"/>
      <point x="372" y="593"/>
      <point x="372" y="553" type="curve" smooth="yes"/>
      <point x="372" y="513"/>
      <point x="341" y="485"/>
      <point x="285" y="454" type="curve"/>
      <point x="257" y="486"/>
      <point x="239" y="516"/>
      <point x="239" y="549" type="curve" smooth="yes"/>
      <point x="239" y="595"/>
      <point x="276" y="609"/>
    </contour>
  </outline>
</glyph>
<glyph name="parenleft" format="2">
  <advance width="339"/>
  <unicode hex="0028"/>
  <outline>
    <contour>
      <point x="40" y="274" type="curve" smooth="yes"/>
      <point x="40" y="113"/>
      <point x="86" y="-41"/>
      <point x="187" y="-158" type="curve"/>
      <point x="308" y="-158" type="line"/>
      <point x="218" y="-35"/>
      <point x="170" y="120"/>
      <point x="170" y="275" type="curve" smooth="yes"/>
      <point x="170" y="433"/>
      <point x="218" y="589"/>
      <point x="309" y="714" type="curve"/>
      <point x="187" y="714" type="line"/>
      <point x="86" y="593"/>
      <point x="40" y="437"/>
    </contour>
  </outline>
</glyph>
<glyph name="parenright" format="2">
  <advance width="339"/>
  <unicode hex="0029"/>
  <outline>
    <contour>
      <point x="299" y="274" type="curve" smooth="yes"/>
      <point x="299" y="437"/>
      <point x="253" y="593"/>
      <point x="152" y="714" type="curve"/>
      <point x="30" y="714" type="line"/>
      <point x="121" y="589"/>
      <point x="169" y="433"/>
      <point x="169" y="275" type="curve" smooth="yes"/>
      <point x="169" y="120"/>
      <point x="121" y="-35"/>
      <point x="31" y="-158" type="curve"/>
      <point x="152" y="-158" type="line"/>
      <point x="253" y="-41"/>
      <point x="299" y="113"/>
    </contour>
  </outline>
</glyph>
<glyph name="asterisk" format="2">
  <advance width="545"/>
  <unicode hex="002A"/>
  <outline>
    <contour>
      <point x="336" y="760" type="line"/>
      <point x="208" y="760" type="line"/>
      <point x="228" y="580" type="line"/>
      <point x="50" y="631" type="line"/>
      <point x="31" y="509" type="line"/>
      <point x="196" y="496" type="line"/>
      <point x="88" y="351" type="line"/>
      <point x="203" y="293" type="line"/>
      <point x="270" y="445" type="line"/>
      <point x="346" y="292" type="line"/>
      <point x="457" y="351" type="line"/>
      <point x="348" y="496" type="line"/>
      <point x="514" y="508" type="line"/>
      <point x="498" y="631" type="line"/>
      <point x="316" y="580" type="line"/>
    </contour>
  </outline>
</glyph>
<glyph name="comma" format="2">
  <advance width="285"/>
  <unicode hex="002C"/>
  <outline>
    <contour>
      <point x="224" y="105" type="curve"/>
      <point x="217" y="116" type="line"/>
      <point x="80" y="116" type="line"/>
      <point x="70" y="47"/>
      <point x="50" y="-50"/>
      <point x="31" y="-129" type="curve"/>
      <point x="138" y="-129" type="line"/>
      <point x="171" y="-56"/>
      <point x="206" y="34"/>
    </contour>
  </outline>
</glyph>
<glyph name="period" format="2">
  <advance width="285"/>
  <unicode hex="002E"/>
  <outline>
    <contour>
      <point x="57" y="70" type="curve" smooth="yes"/>
      <point x="57" y="11"/>
      <point x="95" y="-13"/>
      <point x="143" y="-13" type="curve" smooth="yes"/>
      <point x="189" y="-13"/>
      <point x="228" y="11"/>
      <point x="228" y="70" type="curve" smooth="yes"/>
      <point x="228" y="131"/>
      <point x="189" y="153"/>
      <point x="143" y="153" type="curve" smooth="yes"/>
      <point x="95" y="153"/>
      <point x="57" y="131"/>
    </contour>
  </outline>
</glyph>
<glyph name="zero" format="2">
  <advance width="572"/>
  <unicode hex="0030"/>
  <outline>
    <contour>
      <point x="535" y="357" type="curve" smooth="yes"/>
      <point x="535" y="589"/>
      <point x="456" y="725"/>
      <point x="285" y="725" type="curve" smooth="yes"/>
      <point x="102" y="725"/>
      <point x="36" y="588"/>
      <point x="36" y="357" type="curve" smooth="yes"/>
      <point x="36" y="127"/>
      <point x="113" y="-10"/>
      <point x="285" y="-10" type="curve" smooth="yes"/>
      <point x="468" y="-10"/>
      <point x="535" y="127"/>
    </contour>
    <contour>
      <point x="186" y="357" type="curve" smooth="yes"/>
      <point x="186" y="520"/>
      <point x="209" y="603"/>
      <point x="285" y="603" type="curve" smooth="yes"/>
      <point x="360" y="603"/>
      <point x="385" y="520"/>
      <point x="385" y="357" type="curve" smooth="yes"/>
      <point x="385" y="193"/>
      <point x="360" y="112"/>
      <point x="285" y="112" type="curve" smooth="yes"/>
      <point x="209" y="112"/>
      <point x="186" y="194"/>
    </contour>
  </outline>
</glyph>
<glyph name="one" format="2">
  <advance width="572"/>
  <unicode hex="0031"/>
  <outline>
    <contour>
      <point x="413" y="0" type="line"/>
      <point x="413" y="714" type="line"/>
      <point x="289" y="714" type="line"/>
      <point x="59" y="531" type="line"/>
      <point x="132" y="440" type="line"/>
      <point x="214" y="506" type="line" smooth="yes"/>
      <point x="233" y="522"/>
      <point x="259" y="547"/>
      <point x="266" y="555" type="curve"/>
      <point x="264" y="512"/>
      <point x="262" y="447"/>
      <point x="262" y="413" type="curve"/>
      <point x="262" y="0" type="line"/>
    </contour>
  </outline>
</glyph>
<glyph name="four" format="2">
  <advance width="572"/>
  <unicode hex="0034"/>
  <outline>
    <contour>
      <point x="555" y="148" type="line"/>
      <point x="555" y="265" type="line"/>
      <point x="469" y="265" type="line"/>
      <point x="469" y="714" type="line"/>
      <point x="330" y="714" type="line"/>
      <point x="17" y="253" type="line"/>
      <point x="17" y="148" type="line"/>
      <point x="322" y="148" type="line"/>
      <point x="322" y="0" type="line"/>
      <point x="469" y="0" type="line"/>
      <point x="469" y="148" type="line"/>
    </contour>
    <contour>
      <point x="322" y="386" type="curve" smooth="yes"/>
      <point x="322" y="265" type="line"/>
      <point x="150" y="265" type="line"/>
      <point x="281" y="463" type="line" smooth="yes"/>
      <point x="299" y="490"/>
      <point x="312" y="514"/>
      <point x="324" y="541" type="curve"/>
      <point x="328" y="541" type="line"/>
      <point x="326" y="522"/>
      <point x="322" y="432"/>
    </contour>
  </outline>
</glyph>
<glyph name="five" format="2">
  <advance width="572"/>
  <unicode hex="0035"/>
  <outline>
    <contour>
      <point x="300" y="456" type="curve" smooth="yes"/>
      <point x="253" y="456"/>
      <point x="231" y="450"/>
      <point x="209" y="446" type="curve"/>
      <point x="222" y="586" type="line"/>
      <point x="477" y="586" type="line"/>
      <point x="477" y="714" type="line"/>
      <point x="90" y="714" type="line"/>
      <point x="63" y="350" type="line"/>
      <point x="123" y="318" type="line"/>
      <point x="150" y="325"/>
      <point x="194" y="334"/>
      <point x="231" y="334" type="curve" smooth="yes"/>
      <point x="328" y="334"/>
      <point x="374" y="296"/>
      <point x="374" y="226" type="curve" smooth="yes"/>
      <point x="374" y="148"/>
      <point x="325" y="113"/>
      <point x="236" y="113" type="curve" smooth="yes"/>
      <point x="175" y="113"/>
      <point x="98" y="133"/>
      <point x="49" y="159" type="curve"/>
      <point x="49" y="29" type="line"/>
      <point x="98" y="3"/>
      <point x="166" y="-10"/>
      <point x="241" y="-10" type="curve" smooth="yes"/>
      <point x="429" y="-10"/>
      <point x="526" y="84"/>
      <point x="526" y="239" type="curve" smooth="yes"/>
      <point x="526" y="380"/>
      <point x="430" y="456"/>
    </contour>
  </outline>
</glyph>
<glyph name="seven" format="2">
  <advance width="572"/>
  <unicode hex="0037"/>
  <outline>
    <contour>
      <point x="111" y="0" type="line"/>
      <point x="269" y="0" type="line"/>
      <point x="539" y="619" type="line"/>
      <point x="539" y="714" type="line"/>
      <point x="27" y="714" type="line"/>
      <point x="27" y="587" type="line"/>
      <point x="379" y="587" type="line"/>
    </contour>
  </outline>
</glyph>
<glyph name="semicolon" format="2">
  <advance width="285"/>
  <unicode hex="003B"/>
  <outline>
    <contour>
      <point x="224" y="105" type="curve"/>
      <point x="217" y="116" type="line"/>
      <point x="80" y="116" type="line"/>
      <point x="70" y="47"/>
      <point x="50" y="-50"/>
      <point x="31" y="-129" type="curve"/>
      <point x="138" y="-129" type="line"/>
      <point x="171" y="-56"/>
      <point x="206" y="34"/>
    </contour>
    <contour>
      <point x="57" y="473" type="curve"/>
      <point x="57" y="414"/>
      <point x="95" y="390"/>
      <point x="143" y="390" type="curve" smooth="yes"/>
      <point x="189" y="390"/>
      <point x="228" y="414"/>
      <point x="228" y="473" type="curve" smooth="yes"/>
      <point x="228" y="534"/>
      <point x="189" y="556"/>
      <point x="143" y="556" type="curve" smooth="yes"/>
      <point x="95" y="556"/>
      <point x="57" y="534"/>
    </contour>
  </outline>
</glyph>
<glyph name="less" format="2">
  <advance width="572"/>
  <unicode hex="003C"/>
  <outline>
    <contour>
      <point x="528" y="99" type="line"/>
      <point x="528" y="216" type="line"/>
      <point x="194" y="353" type="line"/>
      <point x="528" y="508" type="line"/>
      <point x="528" y="625" type="line"/>
      <point x="43" y="383" type="line"/>
      <point x="43" y="313" type="line"/>
    </contour>
  </outline>
</glyph>
<glyph name="equal" format="2">
  <advance width="572"/>
  <unicode hex="003D"/>
  <outline>
    <contour>
      <point x="43" y="394" type="line"/>
      <point x="528" y="394" type="line"/>
      <point x="528" y="500" type="line"/>
      <point x="43" y="500" type="line"/>
    </contour>
    <contour>
      <point x="43" y="204" type="line"/>
      <point x="528" y="204" type="line"/>
      <point x="528" y="311" type="line"/>
      <point x="43" y="311" type="line"/>
    </contour>
  </outline>
</glyph>
<glyph name="question" format="2">
  <advance width="477"/>
  <unicode hex="003F"/>
  <outline>
    <contour>
      <point x="135" y="273" type="curve"/>
      <point x="135" y="237" type="line"/>
      <point x="264" y="237" type="line"/>
      <point x="264" y="266" type="line"/>
      <point x="264" y="307"/>
      <point x="277" y="323"/>
      <point x="336" y="366" type="curve" smooth="yes"/>
      <point x="414" y="423"/>
      <point x="453" y="465"/>
      <point x="453" y="547" type="curve" smooth="yes"/>
      <point x="453" y="650"/>
      <point x="373" y="724"/>
      <point x="234" y="724" type="curve" smooth="yes"/>
      <point x="143" y="724"/>
      <point x="68" y="699"/>
      <point x="3" y="663" type="curve"/>
      <point x="56" y="556" type="line"/>
      <point x="113" y="585"/>
      <point x="167" y="604"/>
      <point x="223" y="604" type="curve" smooth="yes"/>
      <point x="279" y="604"/>
      <point x="312" y="581"/>
      <point x="312" y="539" type="curve" smooth="yes"/>
      <point x="312" y="496"/>
      <point x="288" y="471"/>
      <point x="228" y="428" type="curve" smooth="yes"/>
      <point x="160" y="379"/>
      <point x="135" y="339"/>
    </contour>
    <contour>
      <point x="119" y="70" type="curve" smooth="yes"/>
      <point x="119" y="11"/>
      <point x="157" y="-13"/>
      <point x="205" y="-13" type="curve" smooth="yes"/>
      <point x="251" y="-13"/>
      <point x="290" y="11"/>
      <point x="290" y="70" type="curve" smooth="yes"/>
      <point x="290" y="131"/>
      <point x="251" y="153"/>
      <point x="205" y="153" type="curve" smooth="yes"/>
      <point x="157" y="153"/>
      <point x="119" y="131"/>
    </contour>
  </outline>
</glyph>
<glyph name="at" format="2">
  <advance width="897"/>
  <unicode hex="0040"/>
  <outline>
    <contour>
      <point x="847" y="358" type="curve"/>
      <point x="847" y="578"/>
      <point x="693" y="714"/>
      <point x="479" y="714" type="curve" smooth="yes"/>
      <point x="217" y="714"/>
      <point x="50" y="527"/>
      <point x="50" y="285" type="curve" smooth="yes"/>
      <point x="50" y="53"/>
      <point x="195" y="-84"/>
      <point x="443" y="-84" type="curve" smooth="yes"/>
      <point x="531" y="-84"/>
      <point x="611" y="-67"/>
      <point x="675" y="-40" type="curve"/>
      <point x="675" y="54" type="line"/>
      <point x="605" y="28"/>
      <point x="516" y="9"/>
      <point x="439" y="9" type="curve" smooth="yes"/>
      <point x="257" y="9"/>
      <point x="158" y="108"/>
      <point x="158" y="288" type="curve" smooth="yes"/>
      <point x="158" y="481"/>
      <point x="270" y="622"/>
      <point x="480" y="622" type="curve" smooth="yes"/>
      <point x="629" y="622"/>
      <point x="740" y="526"/>
      <point x="740" y="359" type="curve" smooth="yes"/>
      <point x="740" y="269"/>
      <point x="717" y="194"/>
      <point x="672" y="194" type="curve" smooth="yes"/>
      <point x="653" y="194"/>
      <point x="635" y="207"/>
      <point x="635" y="262" type="curve" smooth="yes"/>
      <point x="635" y="266"/>
      <point x="635" y="282"/>
      <point x="636" y="296" type="curve" smooth="yes"/>
      <point x="646" y="501" type="line"/>
      <point x="608" y="514"/>
      <point x="533" y="528"/>
      <point x="470" y="528" type="curve" smooth="yes"/>
      <point x="325" y="528"/>
      <point x="234" y="433"/>
      <point x="234" y="299" type="curve" smooth="yes"/>
      <point x="234" y="183"/>
      <point x="301" y="105"/>
      <point x="420" y="105" type="curve" smooth="yes"/>
      <point x="483" y="105"/>
      <point x="527" y="135"/>
      <point x="554" y="168" type="curve"/>
      <point x="562" y="168" type="line"/>
      <point x="577" y="131"/>
      <point x="617" y="105"/>
      <point x="666" y="105" type="curve" smooth="yes"/>
      <point x="789" y="105"/>
      <point x="847" y="234"/>
    </contour>
    <contour>
      <point x="347" y="297" type="curve"/>
      <point x="347" y="368"/>
      <point x="381" y="439"/>
      <point x="476" y="439" type="curve" smooth="yes"/>
      <point x="498" y="439"/>
      <point x="517" y="437"/>
      <point x="532" y="434" type="curve"/>
      <point x="526" y="326" type="line"/>
      <point x="521" y="247"/>
      <point x="498" y="194"/>
      <point x="431" y="194" type="curve" smooth="yes"/>
      <point x="380" y="194"/>
      <point x="347" y="224"/>
    </contour>
  </outline>
</glyph>
<glyph name="D" format="2">
  <advance width="740"/>
  <unicode hex="0044"/>
  <anchor x="344" y="0" name="bottom"/>
  <anchor x="370" y="357" name="center"/>
  <anchor x="370" y="714" name="top"/>
  <anchor x="720" y="714" name="topright"/>
  <outline>
    <contour>
      <point x="682" y="364" type="curve" smooth="yes"/>
      <point x="682" y="593"/>
      <point x="538" y="714"/>
      <point x="314" y="714" type="curve" smooth="yes"/>
      <point x="90" y="714" type="line"/>
      <point x="90" y="0" type="line"/>
      <point x="292" y="0" type="line" smooth="yes"/>
      <point x="538" y="0"/>
      <point x="682" y="123"/>
    </contour>
    <contour>
      <point x="525" y="360" type="curve" smooth="yes"/>
      <point x="525" y="204"/>
      <point x="454" y="125"/>
      <point x="306" y="125" type="curve" smooth="yes"/>
      <point x="241" y="125" type="line"/>
      <point x="241" y="590" type="line"/>
      <point x="322" y="590" type="line" smooth="yes"/>
      <point x="454" y="590"/>
      <point x="525" y="518"/>
    </contour>
  </outline>
</glyph>
<glyph name="F" format="2">
  <advance width="549"/>
  <unicode hex="0046"/>
  <anchor x="275" y="0" name="bottom"/>
  <anchor x="298" y="714" name="top"/>
  <anchor x="529" y="714" name="topright"/>
  <outline>
    <contour>
      <point x="239" y="0" type="line"/>
      <point x="239" y="282" type="line"/>
      <point x="481" y="282" type="line"/>
      <point x="481" y="406" type="line"/>
      <point x="239" y="406" type="line"/>
      <point x="239" y="590" type="line"/>
      <point x="499" y="590" type="line"/>
      <point x="499" y="714" type="line"/>
      <point x="90" y="714" type="line"/>
      <point x="90" y="0" type="line"/>
    </contour>
  </outline>
</glyph>
<glyph name="I" format="2">
  <advance width="389"/>
  <unicode hex="0049"/>
  <anchor x="195" y="0" name="bottom"/>
  <anchor x="195" y="714" name="top"/>
  <anchor x="369" y="714" name="topright"/>
  <outline>
    <contour>
      <point x="357" y="0" type="line"/>
      <point x="357" y="86" type="line"/>
      <point x="270" y="126" type="line"/>
      <point x="270" y="588" type="line"/>
      <point x="357" y="628" type="line"/>
      <point x="357" y="714" type="line"/>
      <point x="32" y="714" type="line"/>
      <point x="32" y="628" type="line"/>
      <point x="119" y="588" type="line"/>
      <point x="119" y="126" type="line"/>
      <point x="32" y="86" type="line"/>
      <point x="32" y="0" type="line"/>
    </contour>
  </outline>
</glyph>
<glyph name="K" format="2">
  <advance width="664"/>
  <unicode hex="004B"/>
  <anchor x="348" y="0" name="bottom"/>
  <anchor x="350" y="714" name="top"/>
  <anchor x="644" y="714" name="topright"/>
  <outline>
    <contour>
      <point x="664" y="0" type="line"/>
      <point x="413" y="398" type="line"/>
      <point x="662" y="714" type="line"/>
      <point x="494" y="714" type="line"/>
      <point x="301" y="471" type="line"/>
      <point x="281" y="443"/>
      <point x="261" y="415"/>
      <point x="241" y="387" type="curve"/>
      <point x="241" y="714" type="line"/>
      <point x="90" y="714" type="line"/>
      <point x="90" y="0" type="line"/>
      <point x="241" y="0" type="line"/>
      <point x="241" y="255" type="line"/>
      <point x="305" y="301" type="line"/>
      <point x="492" y="0" type="line"/>
    </contour>
  </outline>
</glyph>
<glyph name="M" format="2">
  <advance width="943"/>
  <unicode hex="004D"/>
  <anchor x="465" y="0" name="bottom"/>
  <anchor x="471" y="714" name="top"/>
  <anchor x="923" y="714" name="topright"/>
  <outline>
    <contour>
      <point x="392" y="0" type="line"/>
      <point x="531" y="0" type="line"/>
      <point x="715" y="559" type="line"/>
      <point x="719" y="559" type="line"/>
      <point x="717" y="519"/>
      <point x="712" y="405"/>
      <point x="712" y="338" type="curve" smooth="yes"/>
      <point x="712" y="0" type="line"/>
      <point x="853" y="0" type="line"/>
      <point x="853" y="714" type="line"/>
      <point x="647" y="714" type="line"/>
      <point x="468" y="168" type="line"/>
      <point x="465" y="168" type="line"/>
      <point x="296" y="714" type="line"/>
      <point x="90" y="714" type="line"/>
      <point x="90" y="0" type="line"/>
      <point x="225" y="0" type="line"/>
      <point x="225" y="332" type="line" smooth="yes"/>
      <point x="225" y="405"/>
      <point x="218" y="520"/>
      <point x="216" y="560" type="curve"/>
      <point x="220" y="560" type="line"/>
    </contour>
  </outline>
</glyph>
<glyph name="N" format="2">
  <advance width="813"/>
  <unicode hex="004E"/>
  <anchor x="407" y="0" name="bottom"/>
  <anchor x="407" y="714" name="top"/>
  <anchor x="793" y="714" name="topright"/>
  <outline>
    <contour>
      <point x="723" y="0" type="line"/>
      <point x="723" y="714" type="line"/>
      <point x="587" y="714" type="line"/>
      <point x="587" y="376" type="line"/>
      <point x="589" y="310"/>
      <point x="592" y="245"/>
      <point x="594" y="179" type="curve"/>
      <point x="591" y="179" type="line"/>
      <point x="281" y="714" type="line"/>
      <point x="90" y="714" type="line"/>
      <point x="90" y="0" type="line"/>
      <point x="225" y="0" type="line"/>
      <point x="225" y="336" type="line"/>
      <point x="222" y="404"/>
      <point x="219" y="472"/>
      <point x="216" y="540" type="curve"/>
      <point x="220" y="540" type="line"/>
      <point x="531" y="0" type="line"/>
    </contour>
  </outline>
</glyph>
<glyph name="P" format="2">
  <advance width="628"/>
  <unicode hex="0050"/>
  <anchor x="314" y="0" name="bottom"/>
  <anchor x="325" y="714" name="top"/>
  <anchor x="608" y="714" name="topright"/>
  <outline>
    <contour>
      <point x="318" y="714" type="curve"/>
      <point x="90" y="714" type="line"/>
      <point x="90" y="0" type="line"/>
      <point x="241" y="0" type="line"/>
      <point x="241" y="254" type="line"/>
      <point x="306" y="254" type="line"/>
      <point x="514" y="254"/>
      <point x="583" y="366"/>
      <point x="583" y="491" type="curve"/>
      <point x="583" y="630"/>
      <point x="502" y="714"/>
    </contour>
    <contour>
      <point x="310" y="590" type="line"/>
      <point x="392" y="590"/>
      <point x="430" y="556"/>
      <point x="430" y="486" type="curve" smooth="yes"/>
      <point x="430" y="410"/>
      <point x="376" y="378"/>
      <point x="291" y="378" type="curve"/>
      <point x="241" y="378" type="line"/>
      <point x="241" y="590" type="line"/>
    </contour>
  </outline>
</glyph>
<glyph name="R" format="2">
  <advance width="660"/>
  <unicode hex="0052"/>
  <anchor x="358" y="0" name="bottom"/>
  <anchor x="338" y="714" name="top"/>
  <anchor x="640" y="714" name="topright"/>
  <outline>
    <contour>
      <point x="298" y="714" type="curve" smooth="yes"/>
      <point x="90" y="714" type="line"/>
      <point x="90" y="0" type="line"/>
      <point x="241" y="0" type="line"/>
      <point x="241" y="274" type="line"/>
      <point x="322" y="274" type="line"/>
      <point x="492" y="0" type="line"/>
      <point x="660" y="0" type="line"/>
      <point x="450" y="311" type="line"/>
      <point x="520" y="343"/>
      <point x="583" y="402"/>
      <point x="583" y="500" type="curve" smooth="yes"/>
      <point x="583" y="644"/>
      <point x="492" y="714"/>
    </contour>
    <contour>
      <point x="287" y="590" type="line"/>
      <point x="385" y="590"/>
      <point x="430" y="564"/>
      <point x="430" y="496" type="curve" smooth="yes"/>
      <point x="430" y="431"/>
      <point x="390" y="397"/>
      <point x="290" y="397" type="curve" smooth="yes"/>
      <point x="241" y="397" type="line"/>
      <point x="241" y="590" type="line"/>
    </contour>
  </outline>
</glyph>
<glyph name="U" format="2">
  <advance width="756"/>
  <unicode hex="0055"/>
  <anchor x="376" y="0" name="bottom"/>
  <anchor x="378" y="714" name="top"/>
  <anchor x="736" y="714" name="topright"/>
  <outline>
    <contour>
      <point x="671" y="252" type="curve" smooth="yes"/>
      <point x="671" y="714" type="line"/>
      <point x="520" y="714" type="line"/>
      <point x="520" y="278" type="line" smooth="yes"/>
      <point x="520" y="167"/>
      <point x="478" y="117"/>
      <point x="379" y="117" type="curve" smooth="yes"/>
      <point x="284" y="117"/>
      <point x="236" y="159"/>
      <point x="236" y="277" type="curve" smooth="yes"/>
      <point x="236" y="714" type="line"/>
      <point x="85" y="714" type="line"/>
      <point x="85" y="254" type="line" smooth="yes"/>
      <point x="85" y="95"/>
      <point x="186" y="-10"/>
      <point x="375" y="-10" type="curve" smooth="yes"/>
      <point x="574" y="-10"/>
      <point x="671" y="104"/>
    </contour>
  </outline>
</glyph>
<glyph name="V" format="2">
  <advance width="650"/>
  <unicode hex="0056"/>
  <anchor x="323" y="0" name="bottom"/>
  <anchor x="326" y="714" name="top"/>
  <anchor x="630" y="714" name="topright"/>
  <outline>
    <contour>
      <point x="650" y="714" type="line"/>
      <point x="497" y="714" type="line"/>
      <point x="362" y="289" type="line"/>
      <point x="355" y="266"/>
      <point x="331" y="175"/>
      <point x="325" y="132" type="curve"/>
      <point x="319" y="175"/>
      <point x="294" y="267"/>
      <point x="287" y="289" type="curve" smooth="yes"/>
      <point x="153" y="714" type="line"/>
      <point x="0" y="714" type="line"/>
      <point x="242" y="0" type="line"/>
      <point x="407" y="0" type="line"/>
    </contour>
  </outline>
</glyph>
<glyph name="X" format="2">
  <advance width="667"/>
  <unicode hex="0058"/>
  <anchor x="334" y="0" name="bottom"/>
  <anchor x="334" y="714" name="top"/>
  <anchor x="647" y="714" name="topright"/>
  <outline>
    <contour>
      <point x="667" y="0" type="line"/>
      <point x="426" y="360" type="line"/>
      <point x="650" y="714" type="line"/>
      <point x="487" y="714" type="line"/>
      <point x="336" y="457" type="line"/>
      <point x="182" y="714" type="line"/>
      <point x="15" y="714" type="line"/>
      <point x="237" y="368" type="line"/>
      <point x="0" y="0" type="line"/>
      <point x="162" y="0" type="line"/>
      <point x="328" y="270" type="line"/>
      <point x="494" y="0" type="line"/>
    </contour>
  </outline>
</glyph>
<glyph name="Y" format="2">
  <advance width="624"/>
  <unicode hex="0059"/>
  <anchor x="312" y="0" name="bottom"/>
  <anchor x="312" y="714" name="top"/>
  <anchor x="604" y="714" name="topright"/>
  <outline>
    <contour>
      <point x="312" y="420" type="line"/>
      <point x="164" y="714" type="line"/>
      <point x="0" y="714" type="line"/>
      <point x="237" y="273" type="line"/>
      <point x="237" y="0" type="line"/>
      <point x="387" y="0" type="line"/>
      <point x="387" y="278" type="line"/>
      <point x="624" y="714" type="line"/>
      <point x="461" y="714" type="line"/>
    </contour>
  </outline>
</glyph>
<glyph name="backslash" format="2">
  <advance width="413"/>
  <unicode hex="005C"/>
  <outline>
    <contour>
      <point x="141" y="714" type="line"/>
      <point x="6" y="714" type="line"/>
      <point x="272" y="0" type="line"/>
      <point x="407" y="0" type="line"/>
    </contour>
  </outline>
</glyph>
<glyph name="bracketright" format="2">
  <advance width="331"/>
  <unicode hex="005D"/>
  <outline>
    <contour>
      <point x="25" y="-55" type="line"/>
      <point x="25" y="-158" type="line"/>
      <point x="261" y="-158" type="line"/>
      <point x="261" y="714" type="line"/>
      <point x="25" y="714" type="line"/>
      <point x="25" y="611" type="line"/>
      <point x="134" y="611" type="line"/>
      <point x="134" y="-55" type="line"/>
    </contour>
  </outline>
</glyph>
<glyph name="asciicircum" format="2">
  <advance width="572"/>
  <unicode hex="005E"/>
  <outline>
    <contour>
      <point x="23" y="254" type="line"/>
      <point x="138" y="254" type="line"/>
      <point x="275" y="568" type="line"/>
      <point x="432" y="254" type="line"/>
      <point x="549" y="254" type="line"/>
      <point x="307" y="718" type="line"/>
      <point x="237" y="718" type="line"/>
    </contour>
  </outline>
</glyph>
<glyph name="underscore" format="2">
  <advance width="411"/>
  <unicode hex="005F"/>
  <outline>
    <contour>
      <point x="413" y="-158" type="line"/>
      <point x="413" y="-90" type="line"/>
      <point x="-2" y="-90" type="line"/>
      <point x="-2" y="-158" type="line"/>
    </contour>
  </outline>
</glyph>
<glyph name="grave" format="2">
  <advance width="362"/>
  <unicode hex="0060"/>
  <outline>
    <contour>
      <point x="207" y="766" type="curve"/>
      <point x="40" y="766" type="line"/>
      <point x="40" y="756" type="line"/>
      <point x="78" y="719"/>
      <point x="172" y="641"/>
      <point x="223" y="606" type="curve"/>
      <point x="322" y="606" type="line"/>
      <point x="322" y="619" type="line"/>
      <point x="290" y="656"/>
      <point x="236" y="721"/>
    </contour>
  </outline>
</glyph>
<glyph name="h" format="2">
  <advance width="657"/>
  <unicode hex="0068"/>
  <anchor x="331" y="0" name="bottom"/>
  <anchor x="329" y="273" name="center"/>
  <anchor x="155" y="760" name="top"/>
  <anchor x="563" y="760" name="topright"/>
  <outline>
    <contour>
      <point x="227" y="605" type="curve"/>
      <point x="227" y="760" type="line"/>
      <point x="78" y="760" type="line"/>
      <point x="78" y="0" type="line"/>
      <point x="227" y="0" type="line"/>
      <point x="227" y="257" type="line" smooth="yes"/>
      <point x="227" y="373"/>
      <point x="255" y="437"/>
      <point x="345" y="437" type="curve" smooth="yes"/>
      <point x="405" y="437"/>
      <point x="433" y="397"/>
      <point x="433" y="319" type="curve" smooth="yes"/>
      <point x="433" y="0" type="line"/>
      <point x="582" y="0" type="line"/>
      <point x="582" y="356" type="line"/>
      <point x="582" y="496"/>
      <point x="504" y="556"/>
      <point x="386" y="556" type="curve" smooth="yes"/>
      <point x="319" y="556"/>
      <point x="263" y="532"/>
      <point x="228" y="476" type="curve"/>
      <point x="220" y="476" type="line"/>
      <point x="222" y="496"/>
      <point x="227" y="551"/>
    </contour>
  </outline>
</glyph>
<glyph name="i" format="2">
  <advance width="305"/>
  <unicode hex="0069"/>
  <anchor x="155" y="0" name="bottom"/>
  <anchor x="153" y="760" name="top"/>
  <anchor x="285" y="760" name="topright"/>
  <outline>
    <contour>
      <point x="227" y="546" type="line"/>
      <point x="78" y="546" type="line"/>
      <point x="78" y="0" type="line"/>
      <point x="227" y="0" type="line"/>
    </contour>
    <contour>
      <point x="153" y="760" type="curve" smooth="yes"/>
      <point x="108" y="760"/>
      <point x="72" y="743"/>
      <point x="72" y="687" type="curve"/>
      <point x="72" y="632"/>
      <point x="108" y="614"/>
      <point x="153" y="614" type="curve" smooth="yes"/>
      <point x="197" y="614"/>
      <point x="234" y="632"/>
      <point x="234" y="687" type="curve" smooth="yes"/>
      <point x="234" y="743"/>
      <point x="197" y="760"/>
    </contour>
  </outline>
</glyph>
<glyph name="j" format="2">
  <advance width="305"/>
  <unicode hex="006A"/>
  <anchor x="34" y="-240" name="bottom"/>
  <anchor x="153" y="760" name="top"/>
  <anchor x="285" y="760" name="topright"/>
  <outline>
    <contour>
      <point x="34" y="-240" type="curve" smooth="yes"/>
      <point x="174" y="-240"/>
      <point x="227" y="-159"/>
      <point x="227" y="-59" type="curve" smooth="yes"/>
      <point x="227" y="546" type="line"/>
      <point x="78" y="546" type="line"/>
      <point x="78" y="-37" type="line" smooth="yes"/>
      <point x="78" y="-103"/>
      <point x="46" y="-120"/>
      <point x="6" y="-120" type="curve" smooth="yes"/>
      <point x="-21" y="-120"/>
      <point x="-40" y="-117"/>
      <point x="-64" y="-111" type="curve"/>
      <point x="-64" y="-228" type="line"/>
      <point x="-40" y="-235"/>
      <point x="0" y="-240"/>
    </contour>
    <contour>
      <point x="72" y="687" type="curve" smooth="yes"/>
      <point x="72" y="632"/>
      <point x="108" y="614"/>
      <point x="153" y="614" type="curve" smooth="yes"/>
      <point x="197" y="614"/>
      <point x="234" y="632"/>
      <point x="234" y="687" type="curve" smooth="yes"/>
      <point x="234" y="743"/>
      <point x="197" y="760"/>
      <point x="153" y="760" type="curve" smooth="yes"/>
      <point x="108" y="760"/>
      <point x="72" y="743"/>
    </contour>
  </outline>
</glyph>
<glyph name="p" format="2">
  <advance width="633"/>
  <unicode hex="0070"/>
  <anchor x="154" y="-240" name="bottom"/>
  <anchor x="340" y="546" name="top"/>
  <anchor x="613" y="546" name="topright"/>
  <outline>
    <contour>
      <point x="382" y="556" type="curve" smooth="yes"/>
      <point x="303" y="556"/>
      <point x="256" y="519"/>
      <point x="227" y="475" type="curve"/>
      <point x="220" y="475" type="line"/>
      <point x="199" y="546" type="line"/>
      <point x="78" y="546" type="line"/>
      <point x="78" y="-240" type="line"/>
      <point x="227" y="-240" type="line"/>
      <point x="227" y="-20" type="line" smooth="yes"/>
      <point x="227" y="6"/>
      <point x="224" y="34"/>
      <point x="219" y="60" type="curve"/>
      <point x="227" y="60" type="line"/>
      <point x="256" y="24"/>
      <point x="299" y="-10"/>
      <point x="378" y="-10" type="curve" smooth="yes"/>
      <point x="501" y="-10"/>
      <point x="588" y="88"/>
      <point x="588" y="274" type="curve" smooth="yes"/>
      <point x="588" y="459"/>
      <point x="505" y="556"/>
    </contour>
    <contour>
      <point x="334" y="437" type="curve" smooth="yes"/>
      <point x="404" y="437"/>
      <point x="436" y="383"/>
      <point x="436" y="276" type="curve" smooth="yes"/>
      <point x="436" y="169"/>
      <point x="404" y="111"/>
      <point x="336" y="111" type="curve" smooth="yes"/>
      <point x="253" y="111"/>
      <point x="227" y="169"/>
      <point x="227" y="275" type="curve" smooth="yes"/>
      <point x="227" y="291" type="line" smooth="yes"/>
      <point x="229" y="389"/>
      <point x="256" y="437"/>
    </contour>
  </outline>
</glyph>
<glyph name="u" format="2">
  <advance width="657"/>
  <unicode hex="0075"/>
  <anchor x="318" y="0" name="bottom"/>
  <anchor x="329" y="546" name="top"/>
  <anchor x="604" y="546" name="topright"/>
  <outline>
    <contour>
      <point x="579" y="546" type="line"/>
      <point x="430" y="546" type="line"/>
      <point x="430" y="289" type="line" smooth="yes"/>
      <point x="430" y="173"/>
      <point x="403" y="109"/>
      <point x="312" y="109" type="curve" smooth="yes"/>
      <point x="251" y="109"/>
      <point x="224" y="149"/>
      <point x="224" y="227" type="curve" smooth="yes"/>
      <point x="224" y="546" type="line"/>
      <point x="75" y="546" type="line"/>
      <point x="75" y="190" type="line" smooth="yes"/>
      <point x="75" y="50"/>
      <point x="152" y="-10"/>
      <point x="269" y="-10" type="curve" smooth="yes"/>
      <point x="337" y="-10"/>
      <point x="402" y="14"/>
      <point x="437" y="70" type="curve"/>
      <point x="445" y="70" type="line"/>
      <point x="465" y="0" type="line"/>
      <point x="579" y="0" type="line"/>
    </contour>
  </outline>
</glyph>
<glyph name="x" format="2">
  <advance width="578"/>
  <unicode hex="0078"/>
  <anchor x="289" y="0" name="bottom"/>
  <anchor x="288" y="546" name="top"/>
  <anchor x="558" y="546" name="topright"/>
  <outline>
    <contour>
      <point x="190" y="279" type="line"/>
      <point x="5" y="0" type="line"/>
      <point x="174" y="0" type="line"/>
      <point x="289" y="187" type="line"/>
      <point x="404" y="0" type="line"/>
      <point x="573" y="0" type="line"/>
      <point x="387" y="279" type="line"/>
      <point x="565" y="546" type="line"/>
      <point x="396" y="546" type="line"/>
      <point x="289" y="372" type="line"/>
      <point x="183" y="546" type="line"/>
      <point x="14" y="546" type="line"/>
    </contour>
  </outline>
</glyph>
<glyph name="z" format="2">
  <advance width="488"/>
  <unicode hex="007A"/>
  <anchor x="248" y="0" name="bottom"/>
  <anchor x="244" y="546" name="top"/>
  <anchor x="458" y="546" name="topright"/>
  <outline>
    <contour>
      <point x="458" y="0" type="line"/>
      <point x="458" y="114" type="line"/>
      <point x="203" y="114" type="line"/>
      <point x="449" y="449" type="line"/>
      <point x="449" y="546" type="line"/>
      <point x="42" y="546" type="line"/>
      <point x="42" y="432" type="line"/>
      <point x="280" y="432" type="line"/>
      <point x="27" y="88" type="line"/>
      <point x="27" y="0" type="line"/>
    </contour>
  </outline>
</glyph>
<glyph name="braceleft" format="2">
  <advance width="394"/>
  <unicode hex="007B"/>
  <outline>
    <contour>
      <point x="354" y="-158" type="curve"/>
      <point x="354" y="-48" type="line"/>
      <point x="302" y="-47"/>
      <point x="269" y="-35"/>
      <point x="269" y="21" type="curve" smooth="yes"/>
      <point x="269" y="167" type="line" smooth="yes"/>
      <point x="269" y="228"/>
      <point x="229" y="264"/>
      <point x="155" y="275" type="curve"/>
      <point x="155" y="281" type="line"/>
      <point x="229" y="292"/>
      <point x="269" y="328"/>
      <point x="269" y="389" type="curve" smooth="yes"/>
      <point x="269" y="535" type="line" smooth="yes"/>
      <point x="269" y="591"/>
      <point x="302" y="603"/>
      <point x="354" y="604" type="curve"/>
      <point x="354" y="714" type="line"/>
      <point x="183" y="714"/>
      <point x="140" y="674"/>
      <point x="140" y="578" type="curve" smooth="yes"/>
      <point x="140" y="423" type="line" smooth="yes"/>
      <point x="140" y="360"/>
      <point x="96" y="336"/>
      <point x="15" y="336" type="curve"/>
      <point x="15" y="219" type="line"/>
      <point x="96" y="219"/>
      <point x="140" y="195"/>
      <point x="140" y="132" type="curve" smooth="yes"/>
      <point x="140" y="-22" type="line"/>
      <point x="140" y="-118"/>
      <point x="183" y="-158"/>
    </contour>
  </outline>
</glyph>
<glyph name="bar" format="2">
  <advance width="551"/>
  <unicode hex="007C"/>
  <outline>
    <contour>
      <point x="222" y="757" type="line"/>
      <point x="222" y="-227" type="line"/>
      <point x="329" y="-227" type="line"/>
      <point x="329" y="757" type="line"/>
    </contour>
  </outline>
</glyph>
<glyph name="braceright" format="2">
  <advance width="394"/>
  <unicode hex="007D"/>
  <outline>
    <contour>
      <point x="40" y="-48" type="curve"/>
      <point x="40" y="-158" type="line"/>
      <point x="211" y="-158"/>
      <point x="254" y="-118"/>
      <point x="254" y="-22" type="curve" smooth="yes"/>
      <point x="254" y="132" type="line"/>
      <point x="254" y="195"/>
      <point x="298" y="219"/>
      <point x="379" y="219" type="curve"/>
      <point x="379" y="336" type="line"/>
      <point x="298" y="336"/>
      <point x="254" y="360"/>
      <point x="254" y="423" type="curve" smooth="yes"/>
      <point x="254" y="578" type="line" smooth="yes"/>
      <point x="254" y="674"/>
      <point x="211" y="714"/>
      <point x="40" y="714" type="curve"/>
      <point x="40" y="604" type="line"/>
      <point x="92" y="603"/>
      <point x="125" y="591"/>
      <point x="125" y="535" type="curve" smooth="yes"/>
      <point x="125" y="389" type="line" smooth="yes"/>
      <point x="125" y="328"/>
      <point x="165" y="292"/>
      <point x="239" y="281" type="curve"/>
      <point x="239" y="275" type="line"/>
      <point x="165" y="264"/>
      <point x="125" y="228"/>
      <point x="125" y="167" type="curve" smooth="yes"/>
      <point x="125" y="21" type="line" smooth="yes"/>
      <point x="125" y="-35"/>
      <point x="92" y="-47"/>
    </contour>
  </outline>
</glyph>
<glyph name="asciitilde" format="2">
  <advance width="572"/>
  <unicode hex="007E"/>
  <outline>
    <contour>
      <point x="268" y="301" type="curve" smooth="yes"/>
      <point x="331" y="275"/>
      <point x="364" y="270"/>
      <point x="403" y="270" type="curve" smooth="yes"/>
      <point x="454" y="270"/>
      <point x="495" y="288"/>
      <point x="528" y="323" type="curve"/>
      <point x="528" y="436" type="line"/>
      <point x="495" y="403"/>
      <point x="452" y="377"/>
      <point x="414" y="377" type="curve" smooth="yes"/>
      <point x="385" y="377"/>
      <point x="352" y="383"/>
      <point x="303" y="404" type="curve" smooth="yes"/>
      <point x="240" y="430"/>
      <point x="207" y="435"/>
      <point x="168" y="435" type="curve" smooth="yes"/>
      <point x="117" y="435"/>
      <point x="76" y="417"/>
      <point x="43" y="382" type="curve"/>
      <point x="43" y="269" type="line"/>
      <point x="76" y="302"/>
      <point x="119" y="328"/>
      <point x="157" y="328" type="curve" smooth="yes"/>
      <point x="187" y="328"/>
      <point x="219" y="322"/>
    </contour>
  </outline>
</glyph>
<glyph name="exclamdown" format="2">
  <advance width="286"/>
  <unicode hex="00A1"/>
  <outline>
    <contour>
      <point x="82" y="296" type="line"/>
      <point x="57" y="-180" type="line"/>
      <point x="226" y="-180" type="line"/>
      <point x="201" y="296" type="line"/>
    </contour>
    <contour>
      <point x="228" y="463" type="curve" smooth="yes"/>
      <point x="228" y="522"/>
      <point x="190" y="546"/>
      <point x="142" y="546" type="curve" smooth="yes"/>
      <point x="96" y="546"/>
      <point x="57" y="522"/>
      <point x="57" y="463" type="curve" smooth="yes"/>
      <point x="57" y="402"/>
      <point x="96" y="380"/>
      <point x="142" y="380" type="curve" smooth="yes"/>
      <point x="190" y="380"/>
      <point x="228" y="402"/>
    </contour>
  </outline>
</glyph>
<glyph name="cent" format="2">
  <advance width="572"/>
  <unicode hex="00A2"/>
  <outline>
    <contour>
      <point x="362" y="647" type="curve"/>
      <point x="362" y="724" type="line"/>
      <point x="275" y="724" type="line"/>
      <point x="275" y="643" type="line"/>
      <point x="152" y="625"/>
      <point x="70" y="549"/>
      <point x="70" y="362" type="curve" smooth="yes"/>
      <point x="70" y="189"/>
      <point x="146" y="104"/>
      <point x="275" y="86" type="curve"/>
      <point x="275" y="-10" type="line"/>
      <point x="362" y="-10" type="line"/>
      <point x="362" y="82" type="line"/>
      <point x="409" y="85"/>
      <point x="449" y="96"/>
      <point x="491" y="116" type="curve"/>
      <point x="491" y="240" type="line"/>
      <point x="439" y="217"/>
      <point x="400" y="203"/>
      <point x="338" y="203" type="curve" smooth="yes"/>
      <point x="264" y="203"/>
      <point x="222" y="254"/>
      <point x="222" y="363" type="curve" smooth="yes"/>
      <point x="222" y="473"/>
      <point x="260" y="528"/>
      <point x="338" y="528" type="curve" smooth="yes"/>
      <point x="378" y="528"/>
      <point x="417" y="515"/>
      <point x="464" y="496" type="curve"/>
      <point x="508" y="611" type="line"/>
      <point x="471" y="629"/>
      <point x="425" y="644"/>
    </contour>
  </outline>
</glyph>
<glyph name="sterling" format="2">
  <advance width="572"/>
  <unicode hex="00A3"/>
  <outline>
    <contour>
      <point x="342" y="724" type="curve" smooth="yes"/>
      <point x="224" y="724"/>
      <point x="128" y="667"/>
      <point x="128" y="520" type="curve" smooth="yes"/>
      <point x="128" y="425" type="line"/>
      <point x="41" y="425" type="line"/>
      <point x="41" y="318" type="line"/>
      <point x="128" y="318" type="line"/>
      <point x="128" y="247" type="line" smooth="yes"/>
      <point x="128" y="171"/>
      <point x="95" y="145"/>
      <point x="40" y="121" type="curve"/>
      <point x="40" y="0" type="line"/>
      <point x="552" y="0" type="line"/>
      <point x="552" y="127" type="line"/>
      <point x="201" y="127" type="line"/>
      <point x="236" y="145"/>
      <point x="275" y="177"/>
      <point x="275" y="248" type="curve" smooth="yes"/>
      <point x="275" y="318" type="line"/>
      <point x="458" y="318" type="line"/>
      <point x="458" y="425" type="line"/>
      <point x="275" y="425" type="line"/>
      <point x="275" y="519" type="line" smooth="yes"/>
      <point x="275" y="581"/>
      <point x="311" y="603"/>
      <point x="354" y="603" type="curve" smooth="yes"/>
      <point x="395" y="603"/>
      <point x="441" y="591"/>
      <point x="487" y="572" type="curve"/>
      <point x="532" y="684" type="line"/>
      <point x="480" y="706"/>
      <point x="414" y="724"/>
    </contour>
  </outline>
</glyph>
<glyph name="currency" format="2">
  <advance width="572"/>
  <unicode hex="00A4"/>
  <outline>
    <contour>
      <point x="92" y="353" type="curve" smooth="yes"/>
      <point x="92" y="318"/>
      <point x="101" y="286"/>
      <point x="118" y="257" type="curve"/>
      <point x="56" y="196" type="line"/>
      <point x="127" y="125" type="line"/>
      <point x="188" y="185" type="line"/>
      <point x="216" y="168"/>
      <point x="249" y="160"/>
      <point x="285" y="160" type="curve" smooth="yes"/>
      <point x="320" y="160"/>
      <point x="353" y="170"/>
      <point x="381" y="185" type="curve"/>
      <point x="443" y="124" type="line"/>
      <point x="514" y="195" type="line"/>
      <point x="453" y="256" type="line"/>
      <point x="470" y="285"/>
      <point x="479" y="317"/>
      <point x="479" y="353" type="curve" smooth="yes"/>
      <point x="479" y="388"/>
      <point x="469" y="423"/>
      <point x="453" y="450" type="curve"/>
      <point x="516" y="513" type="line"/>
      <point x="443" y="583" type="line"/>
      <point x="381" y="520" type="line"/>
      <point x="351" y="538"/>
      <point x="320" y="547"/>
      <point x="285" y="547" type="curve" smooth="yes"/>
      <point x="252" y="547"/>
      <point x="217" y="537"/>
      <point x="189" y="521" type="curve"/>
      <point x="127" y="583" type="line"/>
      <point x="55" y="511" type="line"/>
      <point x="118" y="449" type="line"/>
      <point x="102" y="421"/>
      <point x="92" y="388"/>
    </contour>
    <contour>
      <point x="193" y="353" type="curve" smooth="yes"/>
      <point x="193" y="405"/>
      <point x="234" y="446"/>
      <point x="285" y="446" type="curve" smooth="yes"/>
      <point x="337" y="446"/>
      <point x="379" y="405"/>
      <point x="379" y="353" type="curve" smooth="yes"/>
      <point x="379" y="302"/>
      <point x="337" y="261"/>
      <point x="285" y="261" type="curve" smooth="yes"/>
      <point x="234" y="261"/>
      <point x="193" y="302"/>
    </contour>
  </outline>
</glyph>
<glyph name="yen" format="2">
  <advance width="572"/>
  <unicode hex="00A5"/>
  <outline>
    <contour>
      <point x="285" y="420" type="line"/>
      <point x="157" y="714" type="line"/>
      <point x="3" y="714" type="line"/>
      <point x="187" y="349" type="line"/>
      <point x="94" y="349" type="line"/>
      <point x="94" y="262" type="line"/>
      <point x="215" y="262" type="line"/>
      <point x="215" y="195" type="line"/>
      <point x="94" y="195" type="line"/>
      <point x="94" y="108" type="line"/>
      <point x="215" y="108" type="line"/>
      <point x="215" y="0" type="line"/>
      <point x="355" y="0" type="line"/>
      <point x="355" y="108" type="line"/>
      <point x="475" y="108" type="line"/>
      <point x="475" y="195" type="line"/>
      <point x="355" y="195" type="line"/>
      <point x="355" y="262" type="line"/>
      <point x="475" y="262" type="line"/>
      <point x="475" y="349" type="line"/>
      <point x="380" y="349" type="line"/>
      <point x="567" y="714" type="line"/>
      <point x="414" y="714" type="line"/>
    </contour>
  </outline>
</glyph>
<glyph name="section" format="2">
  <advance width="486"/>
  <unicode hex="00A7"/>
  <outline>
    <contour>
      <point x="59" y="391" type="curve"/>
      <point x="59" y="302"/>
      <point x="116" y="264"/>
      <point x="216" y="223" type="curve" smooth="yes"/>
      <point x="302" y="187"/>
      <point x="317" y="172"/>
      <point x="317" y="139" type="curve" smooth="yes"/>
      <point x="317" y="107"/>
      <point x="295" y="82"/>
      <point x="222" y="82" type="curve" smooth="yes"/>
      <point x="172" y="82"/>
      <point x="103" y="104"/>
      <point x="52" y="130" type="curve"/>
      <point x="52" y="29" type="line"/>
      <point x="97" y="4"/>
      <point x="151" y="-10"/>
      <point x="222" y="-10" type="curve" smooth="yes"/>
      <point x="354" y="-10"/>
      <point x="437" y="52"/>
      <point x="437" y="148" type="curve" smooth="yes"/>
      <point x="437" y="196"/>
      <point x="416" y="229"/>
      <point x="376" y="255" type="curve"/>
      <point x="412" y="279"/>
      <point x="437" y="316"/>
      <point x="437" y="381" type="curve" smooth="yes"/>
      <point x="437" y="460"/>
      <point x="375" y="509"/>
      <point x="282" y="546" type="curve" smooth="yes"/>
      <point x="209" y="575"/>
      <point x="178" y="594"/>
      <point x="178" y="627" type="curve" smooth="yes"/>
      <point x="178" y="657"/>
      <point x="201" y="672"/>
      <point x="254" y="672" type="curve" smooth="yes"/>
      <point x="304" y="672"/>
      <point x="350" y="652"/>
      <point x="394" y="631" type="curve"/>
      <point x="434" y="724" type="line"/>
      <point x="379" y="748"/>
      <point x="323" y="765"/>
      <point x="257" y="765" type="curve" smooth="yes"/>
      <point x="138" y="765"/>
      <point x="59" y="709"/>
      <point x="59" y="625" type="curve" smooth="yes"/>
      <point x="59" y="576"/>
      <point x="83" y="538"/>
      <point x="124" y="512" type="curve"/>
      <point x="89" y="488"/>
      <point x="59" y="448"/>
    </contour>
    <contour>
      <point x="168" y="402" type="curve"/>
      <point x="168" y="435"/>
      <point x="189" y="460"/>
      <point x="212" y="469" type="curve"/>
      <point x="303" y="437"/>
      <point x="326" y="408"/>
      <point x="326" y="368" type="curve" smooth="yes"/>
      <point x="326" y="334"/>
      <point x="307" y="312"/>
      <point x="288" y="298" type="curve"/>
      <point x="281" y="301" type="line"/>
      <point x="204" y="333"/>
      <point x="168" y="362"/>
    </contour>
  </outline>
</glyph>
<glyph name="dieresis" format="2">
  <advance width="607"/>
  <unicode hex="00A8"/>
  <outline>
    <contour>
      <point x="136" y="686" type="curve"/>
      <point x="136" y="642"/>
      <point x="166" y="621"/>
      <point x="204" y="621" type="curve" smooth="yes"/>
      <point x="241" y="621"/>
      <point x="273" y="642"/>
      <point x="273" y="686" type="curve" smooth="yes"/>
      <point x="273" y="732"/>
      <point x="241" y="752"/>
      <point x="204" y="752" type="curve" smooth="yes"/>
      <point x="166" y="752"/>
      <point x="136" y="732"/>
    </contour>
    <contour>
      <point x="333" y="686" type="curve"/>
      <point x="333" y="642"/>
      <point x="363" y="621"/>
      <point x="402" y="621" type="curve" smooth="yes"/>
      <point x="439" y="621"/>
      <point x="471" y="642"/>
      <point x="471" y="686" type="curve" smooth="yes"/>
      <point x="471" y="732"/>
      <point x="439" y="752"/>
      <point x="402" y="752" type="curve" smooth="yes"/>
      <point x="363" y="752"/>
      <point x="333" y="732"/>
    </contour>
  </outline>
</glyph>
<glyph name="copyright" format="2">
  <advance width="832"/>
  <unicode hex="00A9"/>
  <outline>
    <contour>
      <point x="416" y="-10" type="curve" smooth="yes"/>
      <point x="629" y="-10"/>
      <point x="783" y="144"/>
      <point x="783" y="357" type="curve" smooth="yes"/>
      <point x="783" y="570"/>
      <point x="619" y="724"/>
      <point x="416" y="724" type="curve" smooth="yes"/>
      <point x="207" y="724"/>
      <point x="49" y="560"/>
      <point x="49" y="357" type="curve" smooth="yes"/>
      <point x="49" y="144"/>
      <point x="203" y="-10"/>
    </contour>
    <contour>
      <point x="431" y="128" type="curve" smooth="yes"/>
      <point x="478" y="128"/>
      <point x="508" y="138"/>
      <point x="540" y="152" type="curve"/>
      <point x="540" y="221" type="line"/>
      <point x="507" y="208"/>
      <point x="466" y="198"/>
      <point x="435" y="198" type="curve" smooth="yes"/>
      <point x="347" y="198"/>
      <point x="312" y="255"/>
      <point x="312" y="357" type="curve" smooth="yes"/>
      <point x="312" y="455"/>
      <point x="357" y="515"/>
      <point x="436" y="515" type="curve" smooth="yes"/>
      <point x="464" y="515"/>
      <point x="496" y="506"/>
      <point x="529" y="489" type="curve"/>
      <point x="558" y="556" type="line"/>
      <point x="521" y="575"/>
      <point x="476" y="586"/>
      <point x="435" y="586" type="curve" smooth="yes"/>
      <point x="301" y="586"/>
      <point x="228" y="490"/>
      <point x="228" y="357" type="curve" smooth="yes"/>
      <point x="228" y="219"/>
      <point x="295" y="128"/>
    </contour>
    <contour>
      <point x="416" y="54" type="curve" smooth="yes"/>
      <point x="241" y="54"/>
      <point x="117" y="180"/>
      <point x="117" y="357" type="curve" smooth="yes"/>
      <point x="117" y="534"/>
      <point x="245" y="661"/>
      <point x="416" y="661" type="curve" smooth="yes"/>
      <point x="585" y="661"/>
      <point x="713" y="524"/>
      <point x="713" y="357" type="curve" smooth="yes"/>
      <point x="713" y="180"/>
      <point x="580" y="54"/>
    </contour>
  </outline>
</glyph>
<glyph name="ordfeminine" format="2">
  <advance width="383"/>
  <unicode hex="00AA"/>
  <anchor x="182" y="369" name="bottom"/>
  <anchor x="182" y="725" name="top"/>
  <outline>
    <contour>
      <point x="200" y="722" type="curve" smooth="yes"/>
      <point x="136" y="722"/>
      <point x="85" y="703"/>
      <point x="42" y="682" type="curve"/>
      <point x="74" y="616" type="line"/>
      <point x="113" y="634"/>
      <point x="150" y="646"/>
      <point x="180" y="646" type="curve" smooth="yes"/>
      <point x="221" y="646"/>
      <point x="242" y="628"/>
      <point x="242" y="597" type="curve" smooth="yes"/>
      <point x="242" y="589" type="line"/>
      <point x="194" y="587" type="line" smooth="yes"/>
      <point x="86" y="582"/>
      <point x="23" y="554"/>
      <point x="23" y="476" type="curve" smooth="yes"/>
      <point x="23" y="402"/>
      <point x="70" y="367"/>
      <point x="141" y="367" type="curve" smooth="yes"/>
      <point x="189" y="367"/>
      <point x="231" y="389"/>
      <point x="259" y="427" type="curve"/>
      <point x="274" y="373" type="line"/>
      <point x="340" y="373" type="line"/>
      <point x="340" y="589" type="line" smooth="yes"/>
      <point x="340" y="670"/>
      <point x="295" y="722"/>
    </contour>
    <contour>
      <point x="194" y="528" type="curve" smooth="yes"/>
      <point x="242" y="531" type="line"/>
      <point x="242" y="513" type="line"/>
      <point x="242" y="471"/>
      <point x="211" y="441"/>
      <point x="161" y="441" type="curve" smooth="yes"/>
      <point x="140" y="441"/>
      <point x="123" y="452"/>
      <point x="123" y="477" type="curve" smooth="yes"/>
      <point x="123" y="500"/>
      <point x="135" y="524"/>
    </contour>
  </outline>
</glyph>
<glyph name="registered" format="2">
  <advance width="832"/>
  <unicode hex="00AE"/>
  <outline>
    <contour>
      <point x="274" y="138" type="line"/>
      <point x="355" y="138" type="line"/>
      <point x="355" y="306" type="line"/>
      <point x="417" y="306" type="line"/>
      <point x="512" y="138" type="line"/>
      <point x="603" y="138" type="line"/>
      <point x="487" y="332" type="line"/>
      <point x="527" y="348"/>
      <point x="565" y="383"/>
      <point x="565" y="446" type="curve" smooth="yes"/>
      <point x="565" y="532"/>
      <point x="516" y="580"/>
      <point x="407" y="580" type="curve" smooth="yes"/>
      <point x="274" y="580" type="line"/>
    </contour>
    <contour>
      <point x="405" y="373" type="curve" smooth="yes"/>
      <point x="355" y="373" type="line"/>
      <point x="355" y="511" type="line"/>
      <point x="404" y="511" type="line" smooth="yes"/>
      <point x="462" y="511"/>
      <point x="483" y="491"/>
      <point x="483" y="444" type="curve" smooth="yes"/>
      <point x="483" y="402"/>
      <point x="457" y="373"/>
    </contour>
    <contour>
      <point x="416" y="-10" type="curve" smooth="yes"/>
      <point x="629" y="-10"/>
      <point x="783" y="144"/>
      <point x="783" y="357" type="curve" smooth="yes"/>
      <point x="783" y="570"/>
      <point x="619" y="724"/>
      <point x="416" y="724" type="curve" smooth="yes"/>
      <point x="207" y="724"/>
      <point x="49" y="560"/>
      <point x="49" y="357" type="curve" smooth="yes"/>
      <point x="49" y="144"/>
      <point x="203" y="-10"/>
    </contour>
    <contour>
      <point x="416" y="54" type="curve" smooth="yes"/>
      <point x="241" y="54"/>
      <point x="117" y="180"/>
      <point x="117" y="357" type="curve" smooth="yes"/>
      <point x="117" y="534"/>
      <point x="245" y="661"/>
      <point x="416" y="661" type="curve" smooth="yes"/>
      <point x="585" y="661"/>
      <point x="713" y="524"/>
      <point x="713" y="357" type="curve" smooth="yes"/>
      <point x="713" y="180"/>
      <point x="580" y="54"/>
    </contour>
  </outline>
</glyph>
<glyph name="degree" format="2">
  <advance width="428"/>
  <unicode hex="00B0"/>
  <outline>
    <contour>
      <point x="214" y="387" type="curve" smooth="yes"/>
      <point x="317" y="387"/>
      <point x="388" y="456"/>
      <point x="388" y="555" type="curve" smooth="yes"/>
      <point x="388" y="654"/>
      <point x="317" y="724"/>
      <point x="214" y="724" type="curve" smooth="yes"/>
      <point x="111" y="724"/>
      <point x="39" y="653"/>
      <point x="39" y="555" type="curve" smooth="yes"/>
      <point x="39" y="456"/>
      <point x="111" y="387"/>
    </contour>
    <contour>
      <point x="214" y="480" type="curve" smooth="yes"/>
      <point x="172" y="480"/>
      <point x="138" y="509"/>
      <point x="138" y="555" type="curve" smooth="yes"/>
      <point x="138" y="603"/>
      <point x="172" y="632"/>
      <point x="214" y="632" type="curve" smooth="yes"/>
      <point x="256" y="632"/>
      <point x="290" y="603"/>
      <point x="290" y="555" type="curve" smooth="yes"/>
      <point x="290" y="509"/>
      <point x="256" y="480"/>
    </contour>
  </outline>
</glyph>
<glyph name="plusminus" format="2">
  <advance width="572"/>
  <unicode hex="00B1"/>
  <outline>
    <contour>
      <point x="43" y="0" type="line"/>
      <point x="528" y="0" type="line"/>
      <point x="528" y="107" type="line"/>
      <point x="43" y="107" type="line"/>
    </contour>
    <component base="plus" yOffset="30"/>
  </outline>
</glyph>
<glyph name="twosuperior" format="2">
  <advance width="379"/>
  <unicode hex="00B2"/>
  <outline>
    <contour>
      <point x="343" y="416" type="line"/>
      <point x="343" y="514" type="line"/>
      <point x="171" y="514" type="line"/>
      <point x="222" y="560" type="line" smooth="yes"/>
      <point x="300" y="631"/>
      <point x="331" y="672"/>
      <point x="331" y="732" type="curve" smooth="yes"/>
      <point x="331" y="811"/>
      <point x="273" y="854"/>
      <point x="187" y="854" type="curve" smooth="yes"/>
      <point x="116" y="854"/>
      <point x="65" y="828"/>
      <point x="23" y="791" type="curve"/>
      <point x="83" y="717" type="line"/>
      <point x="117" y="747"/>
      <point x="145" y="760"/>
      <point x="171" y="760" type="curve" smooth="yes"/>
      <point x="197" y="760"/>
      <point x="214" y="746"/>
      <point x="214" y="722" type="curve" smooth="yes"/>
      <point x="214" y="687"/>
      <point x="196" y="663"/>
      <point x="136" y="605" type="curve" smooth="yes"/>
      <point x="27" y="498" type="line"/>
      <point x="27" y="416" type="line"/>
    </contour>
  </outline>
</glyph>
<glyph name="threesuperior" format="2">
  <advance width="379"/>
  <unicode hex="00B3"/>
  <outline>
    <contour>
      <point x="184" y="853" type="curve" smooth="yes"/>
      <point x="117" y="853"/>
      <point x="70" y="830"/>
      <point x="30" y="800" type="curve"/>
      <point x="79" y="731" type="line"/>
      <point x="116" y="757"/>
      <point x="140" y="769"/>
      <point x="171" y="769" type="curve" smooth="yes"/>
      <point x="204" y="769"/>
      <point x="220" y="751"/>
      <point x="220" y="726" type="curve" smooth="yes"/>
      <point x="220" y="699"/>
      <point x="208" y="673"/>
      <point x="140" y="673" type="curve"/>
      <point x="95" y="673" type="line"/>
      <point x="95" y="595" type="line"/>
      <point x="150" y="595" type="line" smooth="yes"/>
      <point x="213" y="595"/>
      <point x="231" y="570"/>
      <point x="231" y="543" type="curve" smooth="yes"/>
      <point x="231" y="509"/>
      <point x="209" y="491"/>
      <point x="161" y="491" type="curve" smooth="yes"/>
      <point x="114" y="491"/>
      <point x="72" y="509"/>
      <point x="29" y="535" type="curve"/>
      <point x="29" y="442" type="line"/>
      <point x="71" y="419"/>
      <point x="113" y="408"/>
      <point x="162" y="408" type="curve" smooth="yes"/>
      <point x="283" y="408"/>
      <point x="339" y="456"/>
      <point x="339" y="535" type="curve"/>
      <point x="339" y="581"/>
      <point x="308" y="623"/>
      <point x="242" y="637" type="curve"/>
      <point x="242" y="643" type="line"/>
      <point x="300" y="662"/>
      <point x="325" y="695"/>
      <point x="325" y="740" type="curve" smooth="yes"/>
      <point x="325" y="809"/>
      <point x="265" y="853"/>
    </contour>
  </outline>
</glyph>
<glyph name="acute" format="2">
  <advance width="362"/>
  <unicode hex="00B4"/>
  <outline>
    <contour>
      <point x="322" y="756" type="curve"/>
      <point x="322" y="766" type="line"/>
      <point x="155" y="766" type="line"/>
      <point x="126" y="721"/>
      <point x="72" y="656"/>
      <point x="40" y="619" type="curve"/>
      <point x="40" y="606" type="line"/>
      <point x="139" y="606" type="line"/>
      <point x="190" y="641"/>
      <point x="284" y="719"/>
    </contour>
  </outline>
</glyph>
<glyph name="micro" format="2">
  <advance width="660"/>
  <unicode hex="00B5"/>
  <outline>
    <contour>
      <point x="582" y="546" type="line"/>
      <point x="433" y="546" type="line"/>
      <point x="433" y="289" type="line" smooth="yes"/>
      <point x="433" y="173"/>
      <point x="405" y="109"/>
      <point x="316" y="109" type="curve" smooth="yes"/>
      <point x="255" y="109"/>
      <point x="227" y="149"/>
      <point x="227" y="227" type="curve" smooth="yes"/>
      <point x="227" y="546" type="line"/>
      <point x="78" y="546" type="line"/>
      <point x="78" y="-240" type="line"/>
      <point x="227" y="-240" type="line"/>
      <point x="227" y="-84" type="line"/>
      <point x="227" y="-48"/>
      <point x="225" y="13"/>
      <point x="222" y="34" type="curve"/>
      <point x="225" y="34" type="line"/>
      <point x="246" y="6"/>
      <point x="279" y="-10"/>
      <point x="319" y="-10" type="curve" smooth="yes"/>
      <point x="376" y="-10"/>
      <point x="414" y="18"/>
      <point x="441" y="73" type="curve"/>
      <point x="448" y="73" type="line"/>
      <point x="469" y="0" type="line"/>
      <point x="582" y="0" type="line"/>
    </contour>
  </outline>
</glyph>
<glyph name="cedilla" format="2">
  <advance width="205"/>
  <unicode hex="00B8"/>
  <outline>
    <contour>
      <point x="204" y="-122" type="curve" smooth="yes"/>
      <point x="204" y="-73"/>
      <point x="165" y="-43"/>
      <point x="125" y="-30" type="curve"/>
      <point x="138" y="0" type="line"/>
      <point x="44" y="0" type="line"/>
      <point x="6" y="-75" type="line"/>
      <point x="66" y="-84"/>
      <point x="87" y="-104"/>
      <point x="87" y="-128" type="curve" smooth="yes"/>
      <point x="87" y="-151"/>
      <point x="71" y="-158"/>
      <point x="52" y="-158" type="curve" smooth="yes"/>
      <point x="32" y="-158"/>
      <point x="1" y="-153"/>
      <point x="-18" y="-148" type="curve"/>
      <point x="-18" y="-230" type="line"/>
      <point x="1" y="-236"/>
      <point x="24" y="-240"/>
      <point x="53" y="-240" type="curve" smooth="yes"/>
      <point x="167" y="-240"/>
      <point x="204" y="-197"/>
    </contour>
  </outline>
</glyph>
<glyph name="onesuperior" format="2">
  <advance width="379"/>
  <unicode hex="00B9"/>
  <outline>
    <contour>
      <point x="285" y="844" type="line"/>
      <point x="192" y="844" type="line"/>
      <point x="45" y="729" type="line"/>
      <point x="98" y="667" type="line"/>
      <point x="136" y="697" type="line"/>
      <point x="147" y="706"/>
      <point x="165" y="724"/>
      <point x="173" y="735" type="curve"/>
      <point x="171" y="720"/>
      <point x="169" y="660"/>
      <point x="169" y="634" type="curve" smooth="yes"/>
      <point x="169" y="416" type="line"/>
      <point x="285" y="416" type="line"/>
    </contour>
  </outline>
</glyph>
<glyph name="ordmasculine" format="2">
  <advance width="388"/>
  <unicode hex="00BA"/>
  <anchor x="194" y="360" name="bottom"/>
  <anchor x="200" y="725" name="top"/>
  <outline>
    <contour>
      <point x="360" y="545" type="curve"/>
      <point x="360" y="658"/>
      <point x="289" y="722"/>
      <point x="195" y="722" type="curve" smooth="yes"/>
      <point x="92" y="722"/>
      <point x="28" y="658"/>
      <point x="28" y="545" type="curve" smooth="yes"/>
      <point x="28" y="432"/>
      <point x="97" y="367"/>
      <point x="193" y="367" type="curve" smooth="yes"/>
      <point x="295" y="367"/>
      <point x="360" y="432"/>
    </contour>
    <contour>
      <point x="127" y="545" type="curve"/>
      <point x="127" y="610"/>
      <point x="147" y="642"/>
      <point x="194" y="642" type="curve" smooth="yes"/>
      <point x="240" y="642"/>
      <point x="260" y="610"/>
      <point x="260" y="545" type="curve" smooth="yes"/>
      <point x="260" y="480"/>
      <point x="240" y="447"/>
      <point x="194" y="447" type="curve" smooth="yes"/>
      <point x="147" y="447"/>
      <point x="127" y="480"/>
    </contour>
  </outline>
</glyph>
<glyph name="guillemotright" format="2">
  <advance width="615"/>
  <unicode hex="00BB"/>
  <outline>
    <contour>
      <point x="575" y="267" type="line"/>
      <point x="575" y="280" type="line"/>
      <point x="394" y="502" type="line"/>
      <point x="287" y="444" type="line"/>
      <point x="423" y="274" type="line"/>
      <point x="287" y="104" type="line"/>
      <point x="394" y="46" type="line"/>
    </contour>
    <contour>
      <point x="328" y="267" type="line"/>
      <point x="328" y="280" type="line"/>
      <point x="147" y="502" type="line"/>
      <point x="40" y="444" type="line"/>
      <point x="176" y="274" type="line"/>
      <point x="40" y="104" type="line"/>
      <point x="147" y="46" type="line"/>
    </contour>
  </outline>
</glyph>
<glyph name="onequarter" format="2">
  <advance width="830"/>
  <unicode hex="00BC"/>
  <outline>
    <contour>
      <point x="156" y="0" type="line"/>
      <point x="273" y="0" type="line"/>
      <point x="669" y="714" type="line"/>
      <point x="552" y="714" type="line"/>
    </contour>
    <contour>
      <point x="146" y="504" type="curve" smooth="yes"/>
      <point x="146" y="286" type="line"/>
      <point x="262" y="286" type="line"/>
      <point x="262" y="714" type="line"/>
      <point x="169" y="714" type="line"/>
      <point x="22" y="599" type="line"/>
      <point x="75" y="537" type="line"/>
      <point x="113" y="567" type="line"/>
      <point x="124" y="576"/>
      <point x="142" y="594"/>
      <point x="150" y="605" type="curve"/>
      <point x="148" y="590"/>
      <point x="146" y="530"/>
    </contour>
    <contour>
      <point x="644" y="0" type="line"/>
      <point x="760" y="0" type="line"/>
      <point x="760" y="74" type="line"/>
      <point x="821" y="74" type="line"/>
      <point x="821" y="156" type="line"/>
      <point x="760" y="156" type="line"/>
      <point x="760" y="431" type="line"/>
      <point x="645" y="431" type="line"/>
      <point x="457" y="149" type="line"/>
      <point x="457" y="74" type="line"/>
      <point x="644" y="74" type="line"/>
    </contour>
    <contour>
      <point x="547" y="156" type="line"/>
      <point x="609" y="249" type="line"/>
      <point x="621" y="267"/>
      <point x="640" y="308"/>
      <point x="647" y="326" type="curve"/>
      <point x="645" y="294"/>
      <point x="644" y="263"/>
      <point x="644" y="236" type="curve"/>
      <point x="644" y="156" type="line"/>
    </contour>
  </outline>
</glyph>
<glyph name="onehalf" format="2">
  <advance width="874"/>
  <unicode hex="00BD"/>
  <outline>
    <contour>
      <point x="156" y="0" type="line"/>
      <point x="273" y="0" type="line"/>
      <point x="669" y="714" type="line"/>
      <point x="552" y="714" type="line"/>
    </contour>
    <contour>
      <point x="146" y="504" type="curve" smooth="yes"/>
      <point x="146" y="286" type="line"/>
      <point x="262" y="286" type="line"/>
      <point x="262" y="714" type="line"/>
      <point x="169" y="714" type="line"/>
      <point x="22" y="599" type="line"/>
      <point x="75" y="537" type="line"/>
      <point x="113" y="567" type="line"/>
      <point x="124" y="576"/>
      <point x="142" y="594"/>
      <point x="150" y="605" type="curve"/>
      <point x="148" y="590"/>
      <point x="146" y="530"/>
    </contour>
    <contour>
      <point x="522" y="0" type="line"/>
      <point x="838" y="0" type="line"/>
      <point x="838" y="98" type="line"/>
      <point x="666" y="98" type="line"/>
      <point x="717" y="144" type="line" smooth="yes"/>
      <point x="795" y="215"/>
      <point x="826" y="256"/>
      <point x="826" y="316" type="curve" smooth="yes"/>
      <point x="826" y="395"/>
      <point x="768" y="438"/>
      <point x="682" y="438" type="curve" smooth="yes"/>
      <point x="611" y="438"/>
      <point x="560" y="412"/>
      <point x="518" y="375" type="curve"/>
      <point x="578" y="301" type="line"/>
      <point x="612" y="331"/>
      <point x="640" y="344"/>
      <point x="666" y="344" type="curve" smooth="yes"/>
      <point x="692" y="344"/>
      <point x="709" y="330"/>
      <point x="709" y="306" type="curve" smooth="yes"/>
      <point x="709" y="271"/>
      <point x="691" y="247"/>
      <point x="631" y="189" type="curve" smooth="yes"/>
      <point x="522" y="82" type="line"/>
    </contour>
  </outline>
</glyph>
<glyph name="threequarters" format="2">
  <advance width="845"/>
  <unicode hex="00BE"/>
  <outline>
    <contour>
      <point x="191" y="0" type="line"/>
      <point x="308" y="0" type="line"/>
      <point x="704" y="714" type="line"/>
      <point x="587" y="714" type="line"/>
    </contour>
    <contour>
      <point x="177" y="278" type="curve" smooth="yes"/>
      <point x="298" y="278"/>
      <point x="354" y="326"/>
      <point x="354" y="405" type="curve"/>
      <point x="354" y="451"/>
      <point x="323" y="493"/>
      <point x="257" y="507" type="curve"/>
      <point x="257" y="513" type="line"/>
      <point x="315" y="532"/>
      <point x="340" y="565"/>
      <point x="340" y="610" type="curve" smooth="yes"/>
      <point x="340" y="679"/>
      <point x="280" y="723"/>
      <point x="199" y="723" type="curve" smooth="yes"/>
      <point x="132" y="723"/>
      <point x="85" y="700"/>
      <point x="45" y="670" type="curve"/>
      <point x="94" y="601" type="line"/>
      <point x="131" y="627"/>
      <point x="155" y="639"/>
      <point x="186" y="639" type="curve" smooth="yes"/>
      <point x="219" y="639"/>
      <point x="235" y="621"/>
      <point x="235" y="596" type="curve" smooth="yes"/>
      <point x="235" y="569"/>
      <point x="223" y="543"/>
      <point x="155" y="543" type="curve"/>
      <point x="110" y="543" type="line"/>
      <point x="110" y="465" type="line"/>
      <point x="165" y="465" type="line" smooth="yes"/>
      <point x="228" y="465"/>
      <point x="246" y="440"/>
      <point x="246" y="413" type="curve" smooth="yes"/>
      <point x="246" y="379"/>
      <point x="224" y="361"/>
      <point x="176" y="361" type="curve" smooth="yes"/>
      <point x="129" y="361"/>
      <point x="87" y="379"/>
      <point x="44" y="405" type="curve"/>
      <point x="44" y="312" type="line"/>
      <point x="86" y="289"/>
      <point x="128" y="278"/>
    </contour>
    <contour>
      <point x="659" y="0" type="line"/>
      <point x="775" y="0" type="line"/>
      <point x="775" y="74" type="line"/>
      <point x="836" y="74" type="line"/>
      <point x="836" y="156" type="line"/>
      <point x="775" y="156" type="line"/>
      <point x="775" y="431" type="line"/>
      <point x="660" y="431" type="line"/>
      <point x="472" y="149" type="line"/>
      <point x="472" y="74" type="line"/>
      <point x="659" y="74" type="line"/>
    </contour>
    <contour>
      <point x="562" y="156" type="line"/>
      <point x="624" y="249" type="line"/>
      <point x="636" y="267"/>
      <point x="655" y="308"/>
      <point x="662" y="326" type="curve"/>
      <point x="660" y="294"/>
      <point x="659" y="263"/>
      <point x="659" y="236" type="curve"/>
      <point x="659" y="156" type="line"/>
    </contour>
  </outline>
</glyph>
<glyph name="AE" format="2">
  <advance width="952"/>
  <unicode hex="00C6"/>
  <anchor x="476" y="0" name="bottom"/>
  <anchor x="506" y="714" name="top"/>
  <outline>
    <contour>
      <point x="893" y="0" type="line"/>
      <point x="893" y="125" type="line"/>
      <point x="618" y="125" type="line"/>
      <point x="618" y="309" type="line"/>
      <point x="875" y="309" type="line"/>
      <point x="875" y="433" type="line"/>
      <point x="618" y="433" type="line"/>
      <point x="618" y="590" type="line"/>
      <point x="893" y="590" type="line"/>
      <point x="893" y="714" type="line"/>
      <point x="320" y="714" type="line"/>
      <point x="0" y="0" type="line"/>
      <point x="154" y="0" type="line"/>
      <point x="227" y="170" type="line"/>
      <point x="467" y="170" type="line"/>
      <point x="467" y="0" type="line"/>
    </contour>
    <contour>
      <point x="282" y="297" type="line"/>
      <point x="405" y="585" type="line"/>
      <point x="467" y="585" type="line"/>
      <point x="467" y="297" type="line"/>
    </contour>
  </outline>
</glyph>
<glyph name="Eth" format="2">
  <advance width="740"/>
  <unicode hex="00D0"/>
  <anchor x="370" y="0" name="bottom"/>
  <anchor x="370" y="714" name="top"/>
  <outline>
    <contour>
      <point x="314" y="714" type="curve" smooth="yes"/>
      <point x="90" y="714" type="line"/>
      <point x="90" y="415" type="line"/>
      <point x="23" y="415" type="line"/>
      <point x="23" y="291" type="line"/>
      <point x="90" y="291" type="line"/>
      <point x="90" y="0" type="line"/>
      <point x="292" y="0" type="line" smooth="yes"/>
      <point x="538" y="0"/>
      <point x="682" y="123"/>
      <point x="682" y="364" type="curve" smooth="yes"/>
      <point x="682" y="593"/>
      <point x="538" y="714"/>
    </contour>
    <contour>
      <point x="321" y="590" type="line"/>
      <point x="451" y="590"/>
      <point x="525" y="518"/>
      <point x="525" y="360" type="curve" smooth="yes"/>
      <point x="525" y="204"/>
      <point x="451" y="125"/>
      <point x="305" y="125" type="curve" smooth="yes"/>
      <point x="241" y="125" type="line"/>
      <point x="241" y="291" type="line"/>
      <point x="357" y="291" type="line"/>
      <point x="357" y="415" type="line"/>
      <point x="241" y="415" type="line"/>
      <point x="241" y="590" type="line"/>
    </contour>
  </outline>
</glyph>
<glyph name="multiply" format="2">
  <advance width="572"/>
  <unicode hex="00D7"/>
  <outline>
    <contour>
      <point x="433" y="575" type="line"/>
      <point x="284" y="429" type="line"/>
      <point x="137" y="575" type="line"/>
      <point x="63" y="500" type="line"/>
      <point x="209" y="353" type="line"/>
      <point x="64" y="206" type="line"/>
      <point x="137" y="132" type="line"/>
      <point x="284" y="278" type="line"/>
      <point x="433" y="131" type="line"/>
      <point x="506" y="205" type="line"/>
      <point x="359" y="353" type="line"/>
      <point x="508" y="502" type="line"/>
    </contour>
  </outline>
</glyph>
<glyph name="Oslash" format="2">
  <advance width="796"/>
  <unicode hex="00D8"/>
  <anchor x="398" y="0" name="bottom"/>
  <anchor x="402" y="714" name="top"/>
  <outline>
    <contour>
      <point x="738" y="358" type="curve" smooth="yes"/>
      <point x="738" y="476"/>
      <point x="707" y="573"/>
      <point x="643" y="637" type="curve"/>
      <point x="686" y="701" type="line"/>
      <point x="608" y="752" type="line"/>
      <point x="567" y="691" type="line"/>
      <point x="521" y="713"/>
      <point x="465" y="725"/>
      <point x="399" y="725" type="curve" smooth="yes"/>
      <point x="165" y="725"/>
      <point x="58" y="580"/>
      <point x="58" y="359" type="curve" smooth="yes"/>
      <point x="58" y="238"/>
      <point x="89" y="140"/>
      <point x="155" y="75" type="curve"/>
      <point x="111" y="9" type="line"/>
      <point x="190" y="-44" type="line"/>
      <point x="234" y="22" type="line"/>
      <point x="279" y="1"/>
      <point x="334" y="-10"/>
      <point x="398" y="-10" type="curve" smooth="yes"/>
      <point x="631" y="-10"/>
      <point x="738" y="137"/>
    </contour>
    <contour>
      <point x="579" y="358" type="curve" smooth="yes"/>
      <point x="579" y="208"/>
      <point x="527" y="117"/>
      <point x="398" y="117" type="curve" smooth="yes"/>
      <point x="363" y="117"/>
      <point x="334" y="124"/>
      <point x="310" y="136" type="curve"/>
      <point x="554" y="503" type="line"/>
      <point x="571" y="465"/>
      <point x="579" y="416"/>
    </contour>
    <contour>
      <point x="217" y="358" type="curve" smooth="yes"/>
      <point x="217" y="508"/>
      <point x="271" y="599"/>
      <point x="399" y="599" type="curve" smooth="yes"/>
      <point x="435" y="599"/>
      <point x="466" y="591"/>
      <point x="491" y="577" type="curve"/>
      <point x="244" y="208" type="line"/>
      <point x="225" y="247"/>
      <point x="217" y="298"/>
    </contour>
  </outline>
</glyph>
<glyph name="Thorn" format="2">
  <advance width="628"/>
  <unicode hex="00DE"/>
  <anchor x="314" y="0" name="bottom"/>
  <anchor x="314" y="714" name="top"/>
  <outline>
    <contour>
      <point x="583" y="376" type="curve" smooth="yes"/>
      <point x="583" y="513"/>
      <point x="504" y="602"/>
      <point x="328" y="602" type="curve" smooth="yes"/>
      <point x="241" y="602" type="line"/>
      <point x="241" y="714" type="line"/>
      <point x="90" y="714" type="line"/>
      <point x="90" y="0" type="line"/>
      <point x="241" y="0" type="line"/>
      <point x="241" y="143" type="line"/>
      <point x="316" y="143" type="line" smooth="yes"/>
      <point x="516" y="143"/>
      <point x="583" y="254"/>
    </contour>
    <contour>
      <point x="290" y="265" type="curve" smooth="yes"/>
      <point x="241" y="265" type="line"/>
      <point x="241" y="479" type="line"/>
      <point x="302" y="479" type="line" smooth="yes"/>
      <point x="390" y="479"/>
      <point x="430" y="446"/>
      <point x="430" y="376" type="curve" smooth="yes"/>
      <point x="430" y="297"/>
      <point x="384" y="265"/>
    </contour>
  </outline>
</glyph>
<glyph name="germandbls" format="2">
  <advance width="711"/>
  <unicode hex="00DF"/>
  <anchor x="356" y="0" name="bottom"/>
  <anchor x="356" y="765" name="top"/>
  <outline>
    <contour>
      <point x="610" y="606" type="curve" smooth="yes"/>
      <point x="610" y="708"/>
      <point x="497" y="765"/>
      <point x="347" y="765" type="curve" smooth="yes"/>
      <point x="194" y="765"/>
      <point x="78" y="698"/>
      <point x="78" y="556" type="curve" smooth="yes"/>
      <point x="78" y="0" type="line"/>
      <point x="227" y="0" type="line"/>
      <point x="227" y="551" type="line" smooth="yes"/>
      <point x="227" y="618"/>
      <point x="277" y="649"/>
      <point x="347" y="649" type="curve" smooth="yes"/>
      <point x="410" y="649"/>
      <point x="458" y="621"/>
      <point x="458" y="580" type="curve" smooth="yes"/>
      <point x="458" y="501"/>
      <point x="322" y="489"/>
      <point x="322" y="385" type="curve" smooth="yes"/>
      <point x="322" y="332"/>
      <point x="349" y="299"/>
      <point x="431" y="252" type="curve" smooth="yes"/>
      <point x="509" y="207"/>
      <point x="523" y="192"/>
      <point x="523" y="157" type="curve" smooth="yes"/>
      <point x="523" y="117"/>
      <point x="493" y="97"/>
      <point x="441" y="97" type="curve" smooth="yes"/>
      <point x="396" y="97"/>
      <point x="334" y="118"/>
      <point x="303" y="139" type="curve"/>
      <point x="303" y="21" type="line"/>
      <point x="342" y="-1"/>
      <point x="387" y="-10"/>
      <point x="451" y="-10" type="curve" smooth="yes"/>
      <point x="598" y="-10"/>
      <point x="676" y="48"/>
      <point x="676" y="159" type="curve" smooth="yes"/>
      <point x="676" y="238"/>
      <point x="637" y="280"/>
      <point x="572" y="321" type="curve" smooth="yes"/>
      <point x="497" y="369"/>
      <point x="470" y="382"/>
      <point x="470" y="407" type="curve" smooth="yes"/>
      <point x="470" y="450"/>
      <point x="610" y="482"/>
    </contour>
  </outline>
</glyph>
<glyph name="ae" format="2">
  <advance width="917"/>
  <unicode hex="00E6"/>
  <anchor x="459" y="0" name="bottom"/>
  <anchor x="466" y="546" name="top"/>
  <outline>
    <contour>
      <point x="641" y="556" type="curve" smooth="yes"/>
      <point x="563" y="556"/>
      <point x="509" y="535"/>
      <point x="466" y="493" type="curve"/>
      <point x="428" y="536"/>
      <point x="372" y="557"/>
      <point x="299" y="557" type="curve" smooth="yes"/>
      <point x="223" y="557"/>
      <point x="150" y="538"/>
      <point x="93" y="508" type="curve"/>
      <point x="141" y="409" type="line"/>
      <point x="190" y="432"/>
      <point x="238" y="447"/>
      <point x="290" y="447" type="curve" smooth="yes"/>
      <point x="340" y="447"/>
      <point x="371" y="426"/>
      <point x="371" y="381" type="curve" smooth="yes"/>
      <point x="371" y="340" type="line"/>
      <point x="278" y="337" type="line" smooth="yes"/>
      <point x="121" y="331"/>
      <point x="42" y="279"/>
      <point x="42" y="163" type="curve" smooth="yes"/>
      <point x="42" y="45"/>
      <point x="122" y="-10"/>
      <point x="216" y="-10" type="curve" smooth="yes"/>
      <point x="329" y="-10"/>
      <point x="378" y="21"/>
      <point x="437" y="91" type="curve"/>
      <point x="484" y="23"/>
      <point x="560" y="-10"/>
      <point x="649" y="-10" type="curve" smooth="yes"/>
      <point x="735" y="-10"/>
      <point x="788" y="2"/>
      <point x="843" y="29" type="curve"/>
      <point x="843" y="144" type="line"/>
      <point x="782" y="115"/>
      <point x="723" y="101"/>
      <point x="657" y="101" type="curve" smooth="yes"/>
      <point x="573" y="101"/>
      <point x="524" y="152"/>
      <point x="521" y="236" type="curve"/>
      <point x="874" y="236" type="line"/>
      <point x="874" y="308" type="line" smooth="yes"/>
      <point x="874" y="467"/>
      <point x="779" y="556"/>
    </contour>
    <contour>
      <point x="316" y="251" type="curve" smooth="yes"/>
      <point x="371" y="253" type="line"/>
      <point x="371" y="208" type="line"/>
      <point x="371" y="138"/>
      <point x="324" y="99"/>
      <point x="263" y="99" type="curve" smooth="yes"/>
      <point x="222" y="99"/>
      <point x="195" y="116"/>
      <point x="195" y="162" type="curve" smooth="yes"/>
      <point x="195" y="214"/>
      <point x="225" y="248"/>
    </contour>
    <contour>
      <point x="638" y="450" type="curve" smooth="yes"/>
      <point x="700" y="450"/>
      <point x="733" y="401"/>
      <point x="734" y="335" type="curve"/>
      <point x="524" y="335" type="line"/>
      <point x="530" y="414"/>
      <point x="572" y="450"/>
    </contour>
  </outline>
</glyph>
<glyph name="eth" format="2">
  <advance width="619"/>
  <unicode hex="00F0"/>
  <anchor x="310" y="0" name="bottom"/>
  <anchor x="310" y="765" name="top"/>
  <outline>
    <contour>
      <point x="224" y="765" type="curve"/>
      <point x="175" y="679" type="line"/>
      <point x="202" y="664"/>
      <point x="226" y="649"/>
      <point x="249" y="634" type="curve"/>
      <point x="163" y="582" type="line"/>
      <point x="212" y="506" type="line"/>
      <point x="324" y="575" type="line"/>
      <point x="366" y="535"/>
      <point x="396" y="493"/>
      <point x="418" y="440" type="curve"/>
      <point x="414" y="438" type="line"/>
      <point x="391" y="470"/>
      <point x="347" y="486"/>
      <point x="280" y="486" type="curve" smooth="yes"/>
      <point x="142" y="486"/>
      <point x="45" y="397"/>
      <point x="45" y="239" type="curve" smooth="yes"/>
      <point x="45" y="80"/>
      <point x="155" y="-10"/>
      <point x="308" y="-10" type="curve" smooth="yes"/>
      <point x="471" y="-10"/>
      <point x="574" y="95"/>
      <point x="574" y="280" type="curve" smooth="yes"/>
      <point x="574" y="438"/>
      <point x="523" y="549"/>
      <point x="426" y="638" type="curve"/>
      <point x="509" y="689" type="line"/>
      <point x="460" y="764" type="line"/>
      <point x="350" y="696" type="line"/>
      <point x="313" y="721"/>
      <point x="270" y="744"/>
    </contour>
    <contour>
      <point x="310" y="376" type="curve" smooth="yes"/>
      <point x="387" y="376"/>
      <point x="422" y="321"/>
      <point x="422" y="260" type="curve" smooth="yes"/>
      <point x="422" y="154"/>
      <point x="390" y="100"/>
      <point x="310" y="100" type="curve" smooth="yes"/>
      <point x="230" y="100"/>
      <point x="197" y="156"/>
      <point x="197" y="238" type="curve" smooth="yes"/>
      <point x="197" y="330"/>
      <point x="229" y="376"/>
    </contour>
  </outline>
</glyph>
<glyph name="divide" format="2">
  <advance width="572"/>
  <unicode hex="00F7"/>
  <outline>
    <contour>
      <point x="43" y="299" type="line"/>
      <point x="528" y="299" type="line"/>
      <point x="528" y="406" type="line"/>
      <point x="43" y="406" type="line"/>
    </contour>
    <contour>
      <point x="285" y="108" type="curve" smooth="yes"/>
      <point x="321" y="108"/>
      <point x="353" y="130"/>
      <point x="353" y="182" type="curve" smooth="yes"/>
      <point x="353" y="237"/>
      <point x="321" y="256"/>
      <point x="285" y="256" type="curve" smooth="yes"/>
      <point x="248" y="256"/>
      <point x="217" y="237"/>
      <point x="217" y="182" type="curve" smooth="yes"/>
      <point x="217" y="130"/>
      <point x="248" y="108"/>
    </contour>
    <contour>
      <point x="285" y="449" type="curve" smooth="yes"/>
      <point x="321" y="449"/>
      <point x="353" y="471"/>
      <point x="353" y="523" type="curve" smooth="yes"/>
      <point x="353" y="578"/>
      <point x="321" y="597"/>
      <point x="285" y="597" type="curve" smooth="yes"/>
      <point x="248" y="597"/>
      <point x="217" y="578"/>
      <point x="217" y="523" type="curve" smooth="yes"/>
      <point x="217" y="471"/>
      <point x="248" y="449"/>
    </contour>
  </outline>
</glyph>
<glyph name="oslash" format="2">
  <advance width="619"/>
  <unicode hex="00F8"/>
  <anchor x="310" y="0" name="bottom"/>
  <anchor x="311" y="546" name="top"/>
  <outline>
    <contour>
      <point x="574" y="274" type="curve" smooth="yes"/>
      <point x="574" y="361"/>
      <point x="549" y="429"/>
      <point x="505" y="477" type="curve"/>
      <point x="533" y="518" type="line"/>
      <point x="459" y="571" type="line"/>
      <point x="432" y="531" type="line"/>
      <point x="396" y="547"/>
      <point x="355" y="556"/>
      <point x="311" y="556" type="curve" smooth="yes"/>
      <point x="146" y="556"/>
      <point x="45" y="455"/>
      <point x="45" y="274" type="curve" smooth="yes"/>
      <point x="45" y="182"/>
      <point x="72" y="112"/>
      <point x="119" y="63" type="curve"/>
      <point x="86" y="14" type="line"/>
      <point x="161" y="-37" type="line"/>
      <point x="194" y="12" type="line"/>
      <point x="228" y="-2"/>
      <point x="266" y="-10"/>
      <point x="308" y="-10" type="curve" smooth="yes"/>
      <point x="472" y="-10"/>
      <point x="574" y="92"/>
    </contour>
    <contour>
      <point x="197" y="274" type="curve" smooth="yes"/>
      <point x="197" y="382"/>
      <point x="230" y="436"/>
      <point x="309" y="436" type="curve" smooth="yes"/>
      <point x="329" y="436"/>
      <point x="347" y="432"/>
      <point x="361" y="425" type="curve"/>
      <point x="206" y="193" type="line"/>
      <point x="200" y="215"/>
      <point x="197" y="242"/>
    </contour>
    <contour>
      <point x="422" y="274" type="curve" smooth="yes"/>
      <point x="422" y="166"/>
      <point x="389" y="110"/>
      <point x="310" y="110" type="curve" smooth="yes"/>
      <point x="293" y="110"/>
      <point x="278" y="112"/>
      <point x="265" y="117" type="curve"/>
      <point x="416" y="343" type="line"/>
      <point x="420" y="323"/>
      <point x="422" y="300"/>
    </contour>
  </outline>
</glyph>
<glyph name="thorn" format="2">
  <advance width="633"/>
  <unicode hex="00FE"/>
  <anchor x="317" y="-240" name="bottom"/>
  <anchor x="317" y="760" name="top"/>
  <outline>
    <contour>
      <point x="588" y="274" type="curve" smooth="yes"/>
      <point x="588" y="459"/>
      <point x="504" y="556"/>
      <point x="382" y="556" type="curve" smooth="yes"/>
      <point x="304" y="556"/>
      <point x="255" y="520"/>
      <point x="227" y="475" type="curve"/>
      <point x="220" y="475" type="line"/>
      <point x="223" y="495"/>
      <point x="227" y="537"/>
      <point x="227" y="569" type="curve" smooth="yes"/>
      <point x="227" y="760" type="line"/>
      <point x="78" y="760" type="line"/>
      <point x="78" y="-240" type="line"/>
      <point x="227" y="-240" type="line"/>
      <point x="227" y="-19" type="line" smooth="yes"/>
      <point x="227" y="2"/>
      <point x="224" y="37"/>
      <point x="220" y="57" type="curve"/>
      <point x="227" y="57" type="line"/>
      <point x="256" y="20"/>
      <point x="303" y="-10"/>
      <point x="382" y="-10" type="curve" smooth="yes"/>
      <point x="505" y="-10"/>
      <point x="588" y="88"/>
    </contour>
    <contour>
      <point x="436" y="276" type="curve" smooth="yes"/>
      <point x="436" y="169"/>
      <point x="404" y="111"/>
      <point x="336" y="111" type="curve" smooth="yes"/>
      <point x="253" y="111"/>
      <point x="227" y="169"/>
      <point x="227" y="275" type="curve" smooth="yes"/>
      <point x="227" y="291" type="line" smooth="yes"/>
      <point x="229" y="389"/>
      <point x="256" y="437"/>
      <point x="334" y="437" type="curve" smooth="yes"/>
      <point x="404" y="437"/>
      <point x="436" y="383"/>
    </contour>
  </outline>
</glyph>
<glyph name="dcroat" format="2">
  <advance width="649"/>
  <unicode hex="0111"/>
  <anchor x="325" y="0" name="bottom"/>
  <anchor x="325" y="760" name="top"/>
  <outline>
    <contour>
      <point x="251" y="-10" type="curve" smooth="yes"/>
      <point x="330" y="-10"/>
      <point x="377" y="26"/>
      <point x="406" y="71" type="curve"/>
      <point x="412" y="71" type="line"/>
      <point x="441" y="0" type="line"/>
      <point x="555" y="0" type="line"/>
      <point x="555" y="584" type="line"/>
      <point x="631" y="584" type="line"/>
      <point x="631" y="681" type="line"/>
      <point x="555" y="681" type="line"/>
      <point x="555" y="760" type="line"/>
      <point x="406" y="760" type="line"/>
      <point x="406" y="681" type="line"/>
      <point x="252" y="681" type="line"/>
      <point x="252" y="584" type="line"/>
      <point x="406" y="584" type="line"/>
      <point x="406" y="559" type="line" smooth="yes"/>
      <point x="406" y="525"/>
      <point x="412" y="474"/>
      <point x="417" y="446" type="curve"/>
      <point x="412" y="446" type="line"/>
      <point x="382" y="491"/>
      <point x="333" y="526"/>
      <point x="255" y="526" type="curve" smooth="yes"/>
      <point x="130" y="526"/>
      <point x="45" y="434"/>
      <point x="45" y="257" type="curve" smooth="yes"/>
      <point x="45" y="82"/>
      <point x="129" y="-10"/>
    </contour>
    <contour>
      <point x="303" y="109" type="curve" smooth="yes"/>
      <point x="235" y="109"/>
      <point x="196" y="158"/>
      <point x="196" y="255" type="curve" smooth="yes"/>
      <point x="196" y="352"/>
      <point x="235" y="405"/>
      <point x="301" y="405" type="curve" smooth="yes"/>
      <point x="389" y="405"/>
      <point x="416" y="352"/>
      <point x="416" y="256" type="curve" smooth="yes"/>
      <point x="416" y="242" type="line" smooth="yes"/>
      <point x="414" y="153"/>
      <point x="385" y="109"/>
    </contour>
  </outline>
</glyph>
<glyph name="eogonek" format="2">
  <advance width="591"/>
  <unicode hex="0119"/>
  <anchor x="296" y="-240" name="bottom"/>
  <anchor x="296" y="546" name="top"/>
  <outline>
    <contour>
      <point x="413" y="-111" type="curve" smooth="yes"/>
      <point x="413" y="-77"/>
      <point x="437" y="-42"/>
      <point x="517" y="29" type="curve"/>
      <point x="420" y="17" type="line"/>
      <point x="359" y="-17"/>
      <point x="310" y="-70"/>
      <point x="310" y="-128" type="curve" smooth="yes"/>
      <point x="310" y="-194"/>
      <point x="357" y="-240"/>
      <point x="432" y="-240" type="curve" smooth="yes"/>
      <point x="464" y="-240"/>
      <point x="487" y="-235"/>
      <point x="508" y="-229" type="curve"/>
      <point x="508" y="-142" type="line"/>
      <point x="495" y="-146"/>
      <point x="473" y="-151"/>
      <point x="452" y="-151" type="curve" smooth="yes"/>
      <point x="429" y="-151"/>
      <point x="413" y="-138"/>
    </contour>
    <component base="e"/>
  </outline>
</glyph>
<glyph name="hbar" format="2">
  <advance width="657"/>
  <unicode hex="0127"/>
  <anchor x="329" y="0" name="bottom"/>
  <anchor x="155" y="760" name="top"/>
  <outline>
    <contour>
      <point x="227" y="760" type="line"/>
      <point x="78" y="760" type="line"/>
      <point x="78" y="681" type="line"/>
      <point x="2" y="681" type="line"/>
      <point x="2" y="584" type="line"/>
      <point x="78" y="584" type="line"/>
      <point x="78" y="0" type="line"/>
      <point x="227" y="0" type="line"/>
      <point x="227" y="227" type="line" smooth="yes"/>
      <point x="227" y="343"/>
      <point x="255" y="407"/>
      <point x="345" y="407" type="curve" smooth="yes"/>
      <point x="405" y="407"/>
      <point x="433" y="367"/>
      <point x="433" y="289" type="curve" smooth="yes"/>
      <point x="433" y="0" type="line"/>
      <point x="582" y="0" type="line"/>
      <point x="582" y="326" type="line"/>
      <point x="582" y="466"/>
      <point x="505" y="526"/>
      <point x="387" y="526" type="curve" smooth="yes"/>
      <point x="319" y="526"/>
      <point x="264" y="502"/>
      <point x="229" y="446" type="curve"/>
      <point x="220" y="446" type="line"/>
      <point x="222" y="466"/>
      <point x="227" y="521"/>
      <point x="227" y="575" type="curve" smooth="yes"/>
      <point x="227" y="584" type="line"/>
      <point x="381" y="584" type="line"/>
      <point x="381" y="681" type="line"/>
      <point x="227" y="681" type="line"/>
    </contour>
  </outline>
</glyph>
<glyph name="idotless" format="2">
  <advance width="305"/>
  <unicode hex="0131"/>
  <anchor x="157" y="0" name="bottom"/>
  <anchor x="153" y="546" name="top"/>
  <outline>
    <contour>
      <point x="227" y="0" type="line"/>
      <point x="227" y="546" type="line"/>
      <point x="78" y="546" type="line"/>
      <point x="78" y="0" type="line"/>
    </contour>
  </outline>
</glyph>
<glyph name="kgreenlandic" format="2">
  <advance width="620"/>
  <unicode hex="0138"/>
  <anchor x="310" y="0" name="bottom"/>
  <anchor x="310" y="546" name="top"/>
  <outline>
    <contour>
      <point x="607" y="546" type="line"/>
      <point x="448" y="546" type="line"/>
      <point x="295" y="367" type="line" smooth="yes"/>
      <point x="271" y="339"/>
      <point x="249" y="312"/>
      <point x="226" y="284" type="curve"/>
      <point x="224" y="284" type="line"/>
      <point x="226" y="323"/>
      <point x="226" y="363"/>
      <point x="227" y="403" type="curve"/>
      <point x="227" y="546" type="line"/>
      <point x="78" y="546" type="line"/>
      <point x="78" y="0" type="line"/>
      <point x="227" y="0" type="line"/>
      <point x="227" y="164" type="line"/>
      <point x="297" y="208" type="line"/>
      <point x="450" y="0" type="line"/>
      <point x="620" y="0" type="line"/>
      <point x="392" y="296" type="line"/>
    </contour>
  </outline>
</glyph>
<glyph name="Lslash" format="2">
  <advance width="565"/>
  <unicode hex="0141"/>
  <anchor x="308" y="0" name="bottom"/>
  <anchor x="164" y="714" name="top"/>
  <outline>
    <contour>
      <point x="90" y="0" type="line"/>
      <point x="531" y="0" type="line"/>
      <point x="531" y="125" type="line"/>
      <point x="241" y="125" type="line"/>
      <point x="241" y="332" type="line"/>
      <point x="368" y="409" type="line"/>
      <point x="311" y="505" type="line"/>
      <point x="241" y="462" type="line"/>
      <point x="241" y="714" type="line"/>
      <point x="90" y="714" type="line"/>
      <point x="90" y="370" type="line"/>
      <point x="1" y="316" type="line"/>
      <point x="56" y="220" type="line"/>
      <point x="90" y="240" type="line"/>
    </contour>
  </outline>
</glyph>
<glyph name="lslash" format="2">
  <advance width="305"/>
  <unicode hex="0142"/>
  <anchor x="153" y="0" name="bottom"/>
  <anchor x="153" y="760" name="top"/>
  <outline>
    <contour>
      <point x="78" y="0" type="line"/>
      <point x="227" y="0" type="line"/>
      <point x="227" y="324" type="line"/>
      <point x="318" y="379" type="line"/>
      <point x="261" y="475" type="line"/>
      <point x="227" y="454" type="line"/>
      <point x="227" y="760" type="line"/>
      <point x="78" y="760" type="line"/>
      <point x="78" y="363" type="line"/>
      <point x="-12" y="308" type="line"/>
      <point x="43" y="212" type="line"/>
      <point x="78" y="233" type="line"/>
    </contour>
  </outline>
</glyph>
<glyph name="Eng" format="2">
  <advance width="813"/>
  <unicode hex="014A"/>
  <anchor x="407" y="-210" name="bottom"/>
  <anchor x="407" y="714" name="top"/>
  <outline>
    <contour>
      <point x="496" y="-210" type="curve" smooth="yes"/>
      <point x="631" y="-210"/>
      <point x="723" y="-145"/>
      <point x="723" y="0" type="curve" smooth="yes"/>
      <point x="723" y="714" type="line"/>
      <point x="587" y="714" type="line"/>
      <point x="587" y="471" type="line" smooth="yes"/>
      <point x="587" y="422"/>
      <point x="591" y="330"/>
      <point x="594" y="274" type="curve"/>
      <point x="591" y="274" type="line"/>
      <point x="281" y="714" type="line"/>
      <point x="90" y="714" type="line"/>
      <point x="90" y="0" type="line"/>
      <point x="225" y="0" type="line"/>
      <point x="225" y="336" type="line" smooth="yes"/>
      <point x="225" y="389"/>
      <point x="220" y="484"/>
      <point x="216" y="540" type="curve"/>
      <point x="220" y="540" type="line"/>
      <point x="591" y="2" type="line"/>
      <point x="588" y="-64"/>
      <point x="555" y="-91"/>
      <point x="481" y="-91" type="curve" smooth="yes"/>
      <point x="450" y="-91"/>
      <point x="424" y="-86"/>
      <point x="400" y="-81" type="curve"/>
      <point x="400" y="-199" type="line"/>
      <point x="422" y="-205"/>
      <point x="454" y="-210"/>
    </contour>
  </outline>
</glyph>
<glyph name="eng" format="2">
  <advance width="657"/>
  <unicode hex="014B"/>
  <anchor x="329" y="-240" name="bottom"/>
  <anchor x="329" y="546" name="top"/>
  <anchor x="607" y="546" name="topright"/>
  <outline>
    <contour>
      <point x="405" y="-240" type="curve" smooth="yes"/>
      <point x="533" y="-240"/>
      <point x="582" y="-159"/>
      <point x="582" y="-59" type="curve" smooth="yes"/>
      <point x="582" y="356" type="line" smooth="yes"/>
      <point x="582" y="496"/>
      <point x="505" y="556"/>
      <point x="388" y="556" type="curve" smooth="yes"/>
      <point x="321" y="556"/>
      <point x="256" y="532"/>
      <point x="221" y="476" type="curve"/>
      <point x="212" y="476" type="line"/>
      <point x="192" y="546" type="line"/>
      <point x="78" y="546" type="line"/>
      <point x="78" y="0" type="line"/>
      <point x="227" y="0" type="line"/>
      <point x="227" y="257" type="line" smooth="yes"/>
      <point x="227" y="373"/>
      <point x="254" y="437"/>
      <point x="345" y="437" type="curve" smooth="yes"/>
      <point x="403" y="437"/>
      <point x="433" y="401"/>
      <point x="433" y="330" type="curve" smooth="yes"/>
      <point x="433" y="-37" type="line" smooth="yes"/>
      <point x="433" y="-103"/>
      <point x="406" y="-120"/>
      <point x="373" y="-120" type="curve" smooth="yes"/>
      <point x="351" y="-120"/>
      <point x="335" y="-117"/>
      <point x="315" y="-111" type="curve"/>
      <point x="315" y="-228" type="line"/>
      <point x="337" y="-235"/>
      <point x="374" y="-240"/>
    </contour>
  </outline>
</glyph>
<glyph name="OE" format="2">
  <advance width="973"/>
  <unicode hex="0152"/>
  <anchor x="487" y="0" name="bottom"/>
  <anchor x="487" y="714" name="top"/>
  <outline>
    <contour>
      <point x="379" y="725" type="curve" smooth="yes"/>
      <point x="159" y="725"/>
      <point x="58" y="580"/>
      <point x="58" y="359" type="curve" smooth="yes"/>
      <point x="58" y="137"/>
      <point x="159" y="-10"/>
      <point x="378" y="-10" type="curve" smooth="yes"/>
      <point x="412" y="-10"/>
      <point x="459" y="-6"/>
      <point x="488" y="0" type="curve"/>
      <point x="914" y="0" type="line"/>
      <point x="914" y="125" type="line"/>
      <point x="639" y="125" type="line"/>
      <point x="639" y="309" type="line"/>
      <point x="896" y="309" type="line"/>
      <point x="896" y="433" type="line"/>
      <point x="639" y="433" type="line"/>
      <point x="639" y="590" type="line"/>
      <point x="914" y="590" type="line"/>
      <point x="914" y="714" type="line"/>
      <point x="490" y="714" type="line"/>
      <point x="461" y="721"/>
      <point x="414" y="725"/>
    </contour>
    <contour>
      <point x="379" y="599" type="curve" smooth="yes"/>
      <point x="418" y="599"/>
      <point x="464" y="592"/>
      <point x="488" y="579" type="curve"/>
      <point x="488" y="136" type="line"/>
      <point x="463" y="124"/>
      <point x="417" y="117"/>
      <point x="378" y="117" type="curve" smooth="yes"/>
      <point x="265" y="117"/>
      <point x="214" y="208"/>
      <point x="214" y="358" type="curve" smooth="yes"/>
      <point x="214" y="508"/>
      <point x="265" y="599"/>
    </contour>
  </outline>
</glyph>
<glyph name="oe" format="2">
  <advance width="978"/>
  <unicode hex="0153"/>
  <anchor x="489" y="0" name="bottom"/>
  <anchor x="489" y="546" name="top"/>
  <outline>
    <contour>
      <point x="683" y="556" type="curve" smooth="yes"/>
      <point x="607" y="556"/>
      <point x="543" y="531"/>
      <point x="496" y="480" type="curve"/>
      <point x="450" y="530"/>
      <point x="382" y="556"/>
      <point x="309" y="556" type="curve" smooth="yes"/>
      <point x="142" y="556"/>
      <point x="45" y="455"/>
      <point x="45" y="274" type="curve" smooth="yes"/>
      <point x="45" y="92"/>
      <point x="155" y="-10"/>
      <point x="310" y="-10" type="curve" smooth="yes"/>
      <point x="388" y="-10"/>
      <point x="455" y="15"/>
      <point x="501" y="66" type="curve"/>
      <point x="551" y="14"/>
      <point x="623" y="-10"/>
      <point x="706" y="-10" type="curve" smooth="yes"/>
      <point x="793" y="-10"/>
      <point x="848" y="2"/>
      <point x="904" y="29" type="curve"/>
      <point x="904" y="144" type="line"/>
      <point x="841" y="115"/>
      <point x="785" y="101"/>
      <point x="712" y="101" type="curve" smooth="yes"/>
      <point x="626" y="101"/>
      <point x="575" y="150"/>
      <point x="571" y="236" type="curve"/>
      <point x="935" y="236" type="line"/>
      <point x="935" y="308" type="line" smooth="yes"/>
      <point x="935" y="467"/>
      <point x="838" y="556"/>
    </contour>
    <contour>
      <point x="309" y="436" type="curve" smooth="yes"/>
      <point x="389" y="436"/>
      <point x="422" y="382"/>
      <point x="422" y="274" type="curve" smooth="yes"/>
      <point x="422" y="166"/>
      <point x="389" y="110"/>
      <point x="310" y="110" type="curve" smooth="yes"/>
      <point x="230" y="110"/>
      <point x="197" y="166"/>
      <point x="197" y="274" type="curve" smooth="yes"/>
      <point x="197" y="382"/>
      <point x="230" y="436"/>
    </contour>
    <contour>
      <point x="686" y="450" type="curve" smooth="yes"/>
      <point x="759" y="450"/>
      <point x="794" y="401"/>
      <point x="795" y="335" type="curve"/>
      <point x="575" y="335" type="line"/>
      <point x="581" y="414"/>
      <point x="625" y="450"/>
    </contour>
  </outline>
</glyph>
<glyph name="Tbar" format="2">
  <advance width="579"/>
  <unicode hex="0166"/>
  <anchor x="290" y="0" name="bottom"/>
  <anchor x="290" y="714" name="top"/>
  <outline>
    <contour>
      <point x="214" y="0" type="line"/>
      <point x="365" y="0" type="line"/>
      <point x="365" y="291" type="line"/>
      <point x="486" y="291" type="line"/>
      <point x="486" y="415" type="line"/>
      <point x="365" y="415" type="line"/>
      <point x="365" y="588" type="line"/>
      <point x="559" y="588" type="line"/>
      <point x="559" y="714" type="line"/>
      <point x="20" y="714" type="line"/>
      <point x="20" y="588" type="line"/>
      <point x="214" y="588" type="line"/>
      <point x="214" y="415" type="line"/>
      <point x="93" y="415" type="line"/>
      <point x="93" y="291" type="line"/>
      <point x="214" y="291" type="line"/>
    </contour>
  </outline>
</glyph>
<glyph name="tbar" format="2">
  <advance width="434"/>
  <unicode hex="0167"/>
  <anchor x="241" y="0" name="bottom"/>
  <anchor x="198" y="662" name="top"/>
  <outline>
    <contour>
      <point x="32" y="243" type="line"/>
      <point x="379" y="243" type="line"/>
      <point x="379" y="340" type="line"/>
      <point x="32" y="340" type="line"/>
    </contour>
    <component base="t"/>
  </outline>
</glyph>
<glyph name="Uogonek" format="2">
  <advance width="756"/>
  <unicode hex="0172"/>
  <anchor x="376" y="-240" name="bottom"/>
  <anchor x="378" y="714" name="top"/>
  <outline>
    <contour>
      <point x="485" y="-100" type="curve" smooth="yes"/>
      <point x="485" y="-57"/>
      <point x="515" y="-8"/>
      <point x="586" y="57" type="curve"/>
      <point x="492" y="43" type="line"/>
      <point x="431" y="9"/>
      <point x="382" y="-54"/>
      <point x="382" y="-121" type="curve" smooth="yes"/>
      <point x="382" y="-194"/>
      <point x="429" y="-240"/>
      <point x="504" y="-240" type="curve" smooth="yes"/>
      <point x="536" y="-240"/>
      <point x="559" y="-235"/>
      <point x="580" y="-229" type="curve"/>
      <point x="580" y="-142" type="line"/>
      <point x="567" y="-146"/>
      <point x="547" y="-151"/>
      <point x="526" y="-151" type="curve" smooth="yes"/>
      <point x="503" y="-151"/>
      <point x="485" y="-134"/>
    </contour>
    <component base="U"/>
  </outline>
</glyph>
<glyph name="longs" format="2">
  <advance width="383"/>
  <unicode hex="017F"/>
  <anchor x="192" y="0" name="bottom"/>
  <anchor x="232" y="765" name="top"/>
  <outline>
    <contour>
      <point x="289" y="647" type="curve" smooth="yes"/>
      <point x="323" y="647"/>
      <point x="348" y="640"/>
      <point x="371" y="633" type="curve"/>
      <point x="406" y="742" type="line"/>
      <point x="376" y="754"/>
      <point x="334" y="765"/>
      <point x="270" y="765" type="curve" smooth="yes"/>
      <point x="153" y="765"/>
      <point x="78" y="725"/>
      <point x="78" y="586" type="curve" smooth="yes"/>
      <point x="78" y="0" type="line"/>
      <point x="227" y="0" type="line"/>
      <point x="227" y="580" type="line"/>
      <point x="227" y="619"/>
      <point x="243" y="647"/>
    </contour>
  </outline>
</glyph>
<glyph name="uni0180" format="2">
  <advance width="633"/>
  <unicode hex="0180"/>
  <anchor x="317" y="0" name="bottom"/>
  <anchor x="317" y="760" name="top"/>
  <outline>
    <contour>
      <point x="378" y="-10" type="curve" smooth="yes"/>
      <point x="503" y="-10"/>
      <point x="588" y="87"/>
      <point x="588" y="274" type="curve" smooth="yes"/>
      <point x="588" y="469"/>
      <point x="504" y="546"/>
      <point x="382" y="546" type="curve" smooth="yes"/>
      <point x="303" y="546"/>
      <point x="256" y="510"/>
      <point x="227" y="465" type="curve"/>
      <point x="221" y="465" type="line"/>
      <point x="225" y="501"/>
      <point x="227" y="534"/>
      <point x="227" y="570" type="curve" smooth="yes"/>
      <point x="227" y="584" type="line"/>
      <point x="381" y="584" type="line"/>
      <point x="381" y="681" type="line"/>
      <point x="227" y="681" type="line"/>
      <point x="227" y="760" type="line"/>
      <point x="78" y="760" type="line"/>
      <point x="78" y="681" type="line"/>
      <point x="2" y="681" type="line"/>
      <point x="2" y="584" type="line"/>
      <point x="78" y="584" type="line"/>
      <point x="78" y="0" type="line"/>
      <point x="192" y="0" type="line"/>
      <point x="217" y="60" type="line"/>
      <point x="227" y="60" type="line"/>
      <point x="256" y="24"/>
      <point x="298" y="-10"/>
    </contour>
    <contour>
      <point x="336" y="111" type="curve" smooth="yes"/>
      <point x="253" y="111"/>
      <point x="227" y="169"/>
      <point x="227" y="275" type="curve" smooth="yes"/>
      <point x="227" y="281" type="line" smooth="yes"/>
      <point x="229" y="379"/>
      <point x="266" y="427"/>
      <point x="334" y="427" type="curve" smooth="yes"/>
      <point x="397" y="427"/>
      <point x="436" y="383"/>
      <point x="436" y="276" type="curve" smooth="yes"/>
      <point x="436" y="169"/>
      <point x="397" y="111"/>
    </contour>
  </outline>
</glyph>
<glyph name="uni0181" format="2">
  <advance width="794"/>
  <unicode hex="0181"/>
  <anchor x="397" y="0" name="bottom"/>
  <anchor x="397" y="714" name="top"/>
  <outline>
    <contour>
      <point x="213" y="0" type="line"/>
      <point x="479" y="0" type="line" smooth="yes"/>
      <point x="641" y="0"/>
      <point x="741" y="77"/>
      <point x="741" y="207" type="curve" smooth="yes"/>
      <point x="741" y="319"/>
      <point x="684" y="359"/>
      <point x="613" y="374" type="curve"/>
      <point x="613" y="379" type="line"/>
      <point x="683" y="391"/>
      <point x="723" y="452"/>
      <point x="723" y="533" type="curve" smooth="yes"/>
      <point x="723" y="667"/>
      <point x="625" y="714"/>
      <point x="435" y="714" type="curve" smooth="yes"/>
      <point x="191" y="714" type="line" smooth="yes"/>
      <point x="54" y="714"/>
      <point x="6" y="636"/>
      <point x="6" y="544" type="curve" smooth="yes"/>
      <point x="6" y="518"/>
      <point x="13" y="497"/>
      <point x="18" y="486" type="curve"/>
      <point x="136" y="486" type="line"/>
      <point x="132" y="496"/>
      <point x="126" y="511"/>
      <point x="126" y="534" type="curve" smooth="yes"/>
      <point x="126" y="565"/>
      <point x="145" y="590"/>
      <point x="187" y="590" type="curve" smooth="yes"/>
      <point x="213" y="590" type="line"/>
    </contour>
    <contour>
      <point x="462" y="125" type="curve" smooth="yes"/>
      <point x="363" y="125" type="line"/>
      <point x="363" y="311" type="line"/>
      <point x="457" y="311" type="line"/>
      <point x="553" y="311"/>
      <point x="584" y="275"/>
      <point x="584" y="222" type="curve" smooth="yes"/>
      <point x="584" y="163"/>
      <point x="553" y="125"/>
    </contour>
    <contour>
      <point x="451" y="431" type="curve" smooth="yes"/>
      <point x="363" y="431" type="line"/>
      <point x="363" y="590" type="line"/>
      <point x="443" y="590" type="line" smooth="yes"/>
      <point x="529" y="590"/>
      <point x="568" y="568"/>
      <point x="568" y="513" type="curve" smooth="yes"/>
      <point x="568" y="459"/>
      <point x="539" y="431"/>
    </contour>
  </outline>
</glyph>
<glyph name="uni0184" format="2">
  <advance width="661"/>
  <unicode hex="0184"/>
  <anchor x="331" y="0" name="bottom"/>
  <anchor x="331" y="714" name="top"/>
  <outline>
    <contour>
      <point x="349" y="-10" type="curve" smooth="yes"/>
      <point x="527" y="-10"/>
      <point x="616" y="77"/>
      <point x="616" y="218" type="curve" smooth="yes"/>
      <point x="616" y="349"/>
      <point x="525" y="440"/>
      <point x="324" y="440" type="curve" smooth="yes"/>
      <point x="236" y="440" type="line"/>
      <point x="236" y="714" type="line"/>
      <point x="85" y="714" type="line"/>
      <point x="85" y="210" type="line" smooth="yes"/>
      <point x="85" y="54"/>
      <point x="182" y="-10"/>
    </contour>
    <contour>
      <point x="345" y="114" type="curve" smooth="yes"/>
      <point x="275" y="114"/>
      <point x="236" y="145"/>
      <point x="236" y="218" type="curve" smooth="yes"/>
      <point x="236" y="316" type="line"/>
      <point x="303" y="316" type="line" smooth="yes"/>
      <point x="402" y="316"/>
      <point x="463" y="299"/>
      <point x="463" y="218" type="curve" smooth="yes"/>
      <point x="463" y="144"/>
      <point x="415" y="114"/>
    </contour>
  </outline>
</glyph>
<glyph name="uni0185" format="2">
  <advance width="634"/>
  <unicode hex="0185"/>
  <anchor x="317" y="0" name="bottom"/>
  <anchor x="317" y="760" name="top"/>
  <outline>
    <contour>
      <point x="335" y="-10" type="curve" smooth="yes"/>
      <point x="482" y="-10"/>
      <point x="589" y="83"/>
      <point x="589" y="273" type="curve" smooth="yes"/>
      <point x="589" y="459"/>
      <point x="505" y="556"/>
      <point x="383" y="556" type="curve" smooth="yes"/>
      <point x="304" y="556"/>
      <point x="253" y="520"/>
      <point x="224" y="475" type="curve"/>
      <point x="218" y="475" type="line"/>
      <point x="221" y="500"/>
      <point x="224" y="543"/>
      <point x="224" y="583" type="curve" smooth="yes"/>
      <point x="224" y="760" type="line"/>
      <point x="75" y="760" type="line"/>
      <point x="75" y="267" type="line" smooth="yes"/>
      <point x="75" y="88"/>
      <point x="170" y="-10"/>
    </contour>
    <contour>
      <point x="332" y="110" type="curve" smooth="yes"/>
      <point x="261" y="110"/>
      <point x="224" y="155"/>
      <point x="224" y="265" type="curve" smooth="yes"/>
      <point x="224" y="291" type="line" smooth="yes"/>
      <point x="224" y="386"/>
      <point x="257" y="437"/>
      <point x="335" y="437" type="curve" smooth="yes"/>
      <point x="398" y="437"/>
      <point x="437" y="383"/>
      <point x="437" y="273" type="curve" smooth="yes"/>
      <point x="437" y="157"/>
      <point x="400" y="110"/>
    </contour>
  </outline>
</glyph>
<glyph name="uni0186" format="2">
  <advance width="637"/>
  <unicode hex="0186"/>
  <anchor x="259" y="0" name="bottom"/>
  <anchor x="259" y="714" name="top"/>
  <outline>
    <contour>
      <point x="247" y="-10" type="curve" smooth="yes"/>
      <point x="469" y="-10"/>
      <point x="579" y="138"/>
      <point x="579" y="361" type="curve" smooth="yes"/>
      <point x="579" y="577"/>
      <point x="468" y="724"/>
      <point x="255" y="724" type="curve" smooth="yes"/>
      <point x="174" y="724"/>
      <point x="96" y="705"/>
      <point x="35" y="674" type="curve"/>
      <point x="84" y="551" type="line"/>
      <point x="132" y="576"/>
      <point x="182" y="598"/>
      <point x="239" y="598" type="curve" smooth="yes"/>
      <point x="356" y="598"/>
      <point x="423" y="508"/>
      <point x="423" y="358" type="curve" smooth="yes"/>
      <point x="423" y="205"/>
      <point x="358" y="116"/>
      <point x="233" y="116" type="curve" smooth="yes"/>
      <point x="175" y="116"/>
      <point x="124" y="130"/>
      <point x="56" y="154" type="curve"/>
      <point x="56" y="27" type="line"/>
      <point x="117" y="1"/>
      <point x="171" y="-10"/>
    </contour>
  </outline>
</glyph>
<glyph name="uni0187" format="2">
  <advance width="637"/>
  <unicode hex="0187"/>
  <anchor x="370" y="0" name="bottom"/>
  <anchor x="377" y="864" name="top"/>
  <outline>
    <contour>
      <point x="636" y="879" type="curve" smooth="yes"/>
      <point x="550" y="879"/>
      <point x="482" y="830"/>
      <point x="482" y="723" type="curve" smooth="yes"/>
      <point x="482" y="713" type="line"/>
      <point x="454" y="720"/>
      <point x="424" y="724"/>
      <point x="393" y="724" type="curve" smooth="yes"/>
      <point x="177" y="724"/>
      <point x="58" y="572"/>
      <point x="58" y="356" type="curve" smooth="yes"/>
      <point x="58" y="136"/>
      <point x="158" y="-10"/>
      <point x="379" y="-10" type="curve" smooth="yes"/>
      <point x="455" y="-10"/>
      <point x="512" y="1"/>
      <point x="575" y="27" type="curve"/>
      <point x="575" y="154" type="line"/>
      <point x="507" y="130"/>
      <point x="451" y="116"/>
      <point x="393" y="116" type="curve" smooth="yes"/>
      <point x="268" y="116"/>
      <point x="214" y="203"/>
      <point x="214" y="355" type="curve" smooth="yes"/>
      <point x="214" y="505"/>
      <point x="277" y="598"/>
      <point x="393" y="598" type="curve" smooth="yes"/>
      <point x="445" y="598"/>
      <point x="500" y="576"/>
      <point x="553" y="551" type="curve"/>
      <point x="602" y="664" type="line"/>
      <point x="602" y="704" type="line" smooth="yes"/>
      <point x="602" y="744"/>
      <point x="620" y="760"/>
      <point x="651" y="760" type="curve" smooth="yes"/>
      <point x="674" y="760"/>
      <point x="695" y="754"/>
      <point x="706" y="750" type="curve"/>
      <point x="706" y="864" type="line"/>
      <point x="694" y="870"/>
      <point x="666" y="879"/>
    </contour>
  </outline>
</glyph>
<glyph name="uni0188" format="2">
  <advance width="514"/>
  <unicode hex="0188"/>
  <anchor x="291" y="0" name="bottom"/>
  <anchor x="287" y="765" name="top"/>
  <outline>
    <contour>
      <point x="300" y="-10" type="curve" smooth="yes"/>
      <point x="376" y="-10"/>
      <point x="420" y="2"/>
      <point x="466" y="31" type="curve"/>
      <point x="466" y="158" type="line"/>
      <point x="420" y="128"/>
      <point x="375" y="111"/>
      <point x="313" y="111" type="curve" smooth="yes"/>
      <point x="239" y="111"/>
      <point x="197" y="162"/>
      <point x="197" y="271" type="curve" smooth="yes"/>
      <point x="197" y="381"/>
      <point x="235" y="436"/>
      <point x="313" y="436" type="curve" smooth="yes"/>
      <point x="353" y="436"/>
      <point x="392" y="423"/>
      <point x="439" y="404" type="curve"/>
      <point x="483" y="514" type="line"/>
      <point x="483" y="590" type="line" smooth="yes"/>
      <point x="483" y="630"/>
      <point x="501" y="646"/>
      <point x="532" y="646" type="curve" smooth="yes"/>
      <point x="555" y="646"/>
      <point x="576" y="640"/>
      <point x="587" y="636" type="curve"/>
      <point x="587" y="750" type="line"/>
      <point x="575" y="756"/>
      <point x="548" y="765"/>
      <point x="518" y="765" type="curve" smooth="yes"/>
      <point x="426" y="765"/>
      <point x="363" y="716"/>
      <point x="363" y="593" type="curve" smooth="yes"/>
      <point x="363" y="552" type="line"/>
      <point x="347" y="555"/>
      <point x="330" y="556"/>
      <point x="313" y="556" type="curve" smooth="yes"/>
      <point x="154" y="556"/>
      <point x="45" y="470"/>
      <point x="45" y="270" type="curve" smooth="yes"/>
      <point x="45" y="76"/>
      <point x="137" y="-10"/>
    </contour>
  </outline>
</glyph>
<glyph name="uni018A" format="2">
  <advance width="862"/>
  <unicode hex="018A"/>
  <anchor x="431" y="0" name="bottom"/>
  <anchor x="431" y="714" name="top"/>
  <outline>
    <contour>
      <point x="212" y="0" type="line"/>
      <point x="414" y="0" type="line" smooth="yes"/>
      <point x="660" y="0"/>
      <point x="804" y="123"/>
      <point x="804" y="364" type="curve" smooth="yes"/>
      <point x="804" y="593"/>
      <point x="660" y="714"/>
      <point x="436" y="714" type="curve" smooth="yes"/>
      <point x="190" y="714" type="line" smooth="yes"/>
      <point x="53" y="714"/>
      <point x="5" y="636"/>
      <point x="5" y="544" type="curve" smooth="yes"/>
      <point x="5" y="518"/>
      <point x="12" y="497"/>
      <point x="17" y="486" type="curve"/>
      <point x="135" y="486" type="line"/>
      <point x="131" y="496"/>
      <point x="125" y="511"/>
      <point x="125" y="534" type="curve" smooth="yes"/>
      <point x="125" y="565"/>
      <point x="144" y="590"/>
      <point x="186" y="590" type="curve" smooth="yes"/>
      <point x="212" y="590" type="line"/>
    </contour>
    <contour>
      <point x="428" y="125" type="curve" smooth="yes"/>
      <point x="363" y="125" type="line"/>
      <point x="363" y="590" type="line"/>
      <point x="444" y="590" type="line" smooth="yes"/>
      <point x="576" y="590"/>
      <point x="647" y="518"/>
      <point x="647" y="360" type="curve" smooth="yes"/>
      <point x="647" y="204"/>
      <point x="576" y="125"/>
    </contour>
  </outline>
</glyph>
<glyph name="uni018B" format="2">
  <advance width="638"/>
  <unicode hex="018B"/>
  <anchor x="319" y="0" name="bottom"/>
  <anchor x="319" y="714" name="top"/>
  <outline>
    <contour>
      <point x="328" y="0" type="curve" smooth="yes"/>
      <point x="548" y="0" type="line"/>
      <point x="548" y="714" type="line"/>
      <point x="97" y="714" type="line"/>
      <point x="97" y="589" type="line"/>
      <point x="397" y="589" type="line"/>
      <point x="397" y="440" type="line"/>
      <point x="342" y="440" type="line" smooth="yes"/>
      <point x="136" y="440"/>
      <point x="45" y="346"/>
      <point x="45" y="219" type="curve" smooth="yes"/>
      <point x="45" y="79"/>
      <point x="128" y="0"/>
    </contour>
    <contour>
      <point x="346" y="124" type="line"/>
      <point x="254" y="124"/>
      <point x="198" y="149"/>
      <point x="198" y="222" type="curve" smooth="yes"/>
      <point x="198" y="298"/>
      <point x="259" y="316"/>
      <point x="358" y="316" type="curve" smooth="yes"/>
      <point x="397" y="316" type="line"/>
      <point x="397" y="124" type="line"/>
    </contour>
  </outline>
</glyph>
<glyph name="uni018E" format="2">
  <advance width="560"/>
  <unicode hex="018E"/>
  <anchor x="272" y="0" name="bottom"/>
  <anchor x="270" y="714" name="top"/>
  <anchor x="509" y="714" name="topright"/>
  <outline>
    <contour>
      <point x="59" y="0" type="line"/>
      <point x="470" y="0" type="line"/>
      <point x="470" y="714" type="line"/>
      <point x="59" y="714" type="line"/>
      <point x="59" y="590" type="line"/>
      <point x="319" y="590" type="line"/>
      <point x="319" y="433" type="line"/>
      <point x="77" y="433" type="line"/>
      <point x="77" y="309" type="line"/>
      <point x="319" y="309" type="line"/>
      <point x="319" y="125" type="line"/>
      <point x="59" y="125" type="line"/>
    </contour>
  </outline>
</glyph>
<glyph name="uni0190" format="2">
  <advance width="648"/>
  <unicode hex="0190"/>
  <anchor x="324" y="0" name="bottom"/>
  <anchor x="324" y="714" name="top"/>
  <outline>
    <contour>
      <point x="331" y="724" type="curve" smooth="yes"/>
      <point x="170" y="724"/>
      <point x="65" y="650"/>
      <point x="65" y="537" type="curve" smooth="yes"/>
      <point x="65" y="438"/>
      <point x="141" y="391"/>
      <point x="245" y="376" type="curve"/>
      <point x="245" y="373" type="line"/>
      <point x="118" y="362"/>
      <point x="43" y="300"/>
      <point x="43" y="202" type="curve" smooth="yes"/>
      <point x="43" y="75"/>
      <point x="143" y="-10"/>
      <point x="340" y="-10" type="curve" smooth="yes"/>
      <point x="448" y="-10"/>
      <point x="535" y="4"/>
      <point x="596" y="29" type="curve"/>
      <point x="596" y="156" type="line"/>
      <point x="534" y="126"/>
      <point x="441" y="109"/>
      <point x="373" y="109" type="curve" smooth="yes"/>
      <point x="247" y="109"/>
      <point x="193" y="147"/>
      <point x="193" y="214" type="curve" smooth="yes"/>
      <point x="193" y="282"/>
      <point x="272" y="312"/>
      <point x="422" y="312" type="curve" smooth="yes"/>
      <point x="489" y="312" type="line"/>
      <point x="489" y="430" type="line"/>
      <point x="429" y="430" type="line" smooth="yes"/>
      <point x="261" y="430"/>
      <point x="212" y="466"/>
      <point x="212" y="523" type="curve" smooth="yes"/>
      <point x="212" y="572"/>
      <point x="256" y="603"/>
      <point x="342" y="603" type="curve" smooth="yes"/>
      <point x="416" y="603"/>
      <point x="480" y="580"/>
      <point x="536" y="545" type="curve"/>
      <point x="602" y="646" type="line"/>
      <point x="527" y="695"/>
      <point x="447" y="724"/>
    </contour>
  </outline>
</glyph>
<glyph name="uni0191" format="2">
  <advance width="679"/>
  <unicode hex="0191"/>
  <anchor x="176" y="0" name="bottom"/>
  <anchor x="438" y="714" name="top"/>
  <anchor x="669" y="714" name="topright"/>
  <outline>
    <contour>
      <point x="176" y="-242" type="curve" smooth="yes"/>
      <point x="304" y="-242"/>
      <point x="389" y="-178"/>
      <point x="389" y="-42" type="curve" smooth="yes"/>
      <point x="389" y="312" type="line"/>
      <point x="611" y="312" type="line"/>
      <point x="611" y="436" type="line"/>
      <point x="389" y="436" type="line"/>
      <point x="389" y="590" type="line"/>
      <point x="629" y="590" type="line"/>
      <point x="629" y="714" type="line"/>
      <point x="240" y="714" type="line"/>
      <point x="240" y="-38" type="line" smooth="yes"/>
      <point x="240" y="-105"/>
      <point x="216" y="-132"/>
      <point x="176" y="-132" type="curve" smooth="yes"/>
      <point x="135" y="-132"/>
      <point x="111" y="-109"/>
      <point x="111" y="-66" type="curve" smooth="yes"/>
      <point x="111" y="-53"/>
      <point x="114" y="-37"/>
      <point x="123" y="-20" type="curve"/>
      <point x="10" y="25" type="line"/>
      <point x="-5" y="0"/>
      <point x="-17" y="-31"/>
      <point x="-17" y="-73" type="curve" smooth="yes"/>
      <point x="-17" y="-182"/>
      <point x="58" y="-242"/>
    </contour>
  </outline>
</glyph>
<glyph name="florin" format="2">
  <advance width="517"/>
  <unicode hex="0192"/>
  <anchor x="187" y="0" name="bottom"/>
  <anchor x="399" y="765" name="top"/>
  <anchor x="546" y="765" name="topright"/>
  <outline>
    <contour>
      <point x="187" y="-241" type="curve" smooth="yes"/>
      <point x="304" y="-241"/>
      <point x="381" y="-178"/>
      <point x="381" y="-48" type="curve" smooth="yes"/>
      <point x="381" y="434" type="line"/>
      <point x="510" y="434" type="line"/>
      <point x="510" y="546" type="line"/>
      <point x="381" y="546" type="line"/>
      <point x="381" y="580" type="line" smooth="yes"/>
      <point x="381" y="619"/>
      <point x="399" y="647"/>
      <point x="441" y="647" type="curve" smooth="yes"/>
      <point x="475" y="647"/>
      <point x="501" y="640"/>
      <point x="524" y="633" type="curve"/>
      <point x="562" y="742" type="line"/>
      <point x="532" y="754"/>
      <point x="483" y="765"/>
      <point x="425" y="765" type="curve" smooth="yes"/>
      <point x="307" y="765"/>
      <point x="232" y="725"/>
      <point x="232" y="586" type="curve" smooth="yes"/>
      <point x="232" y="546" type="line"/>
      <point x="150" y="506" type="line"/>
      <point x="150" y="434" type="line"/>
      <point x="232" y="434" type="line"/>
      <point x="232" y="-60" type="line" smooth="yes"/>
      <point x="232" y="-107"/>
      <point x="211" y="-131"/>
      <point x="180" y="-131" type="curve" smooth="yes"/>
      <point x="153" y="-131"/>
      <point x="134" y="-111"/>
      <point x="134" y="-76" type="curve" smooth="yes"/>
      <point x="134" y="-59"/>
      <point x="137" y="-42"/>
      <point x="144" y="-24" type="curve"/>
      <point x="25" y="15" type="line"/>
      <point x="15" y="-7"/>
      <point x="6" y="-35"/>
      <point x="6" y="-73" type="curve" smooth="yes"/>
      <point x="6" y="-172"/>
      <point x="64" y="-241"/>
    </contour>
  </outline>
</glyph>
<glyph name="uni0194" format="2">
  <advance width="650"/>
  <unicode hex="0194"/>
  <anchor x="325" y="-240" name="bottom"/>
  <anchor x="325" y="714" name="top"/>
  <outline>
    <contour>
      <point x="319" y="-240" type="curve" smooth="yes"/>
      <point x="411" y="-240"/>
      <point x="462" y="-178"/>
      <point x="462" y="-97" type="curve" smooth="yes"/>
      <point x="462" y="-38"/>
      <point x="435" y="39"/>
      <point x="393" y="123" type="curve"/>
      <point x="650" y="714" type="line"/>
      <point x="494" y="714" type="line"/>
      <point x="366" y="402" type="line"/>
      <point x="351" y="366"/>
      <point x="329" y="305"/>
      <point x="319" y="264" type="curve"/>
      <point x="310" y="304"/>
      <point x="288" y="374"/>
      <point x="277" y="403" type="curve" smooth="yes"/>
      <point x="156" y="714" type="line"/>
      <point x="0" y="714" type="line"/>
      <point x="244" y="125" type="line"/>
      <point x="205" y="39"/>
      <point x="178" y="-30"/>
      <point x="178" y="-96" type="curve" smooth="yes"/>
      <point x="178" y="-182"/>
      <point x="227" y="-240"/>
    </contour>
    <contour>
      <point x="320" y="-151" type="curve" smooth="yes"/>
      <point x="300" y="-151"/>
      <point x="286" y="-134"/>
      <point x="286" y="-95" type="curve" smooth="yes"/>
      <point x="286" y="-68"/>
      <point x="296" y="-19"/>
      <point x="320" y="25" type="curve"/>
      <point x="343" y="-20"/>
      <point x="354" y="-69"/>
      <point x="354" y="-97" type="curve" smooth="yes"/>
      <point x="354" y="-135"/>
      <point x="341" y="-151"/>
    </contour>
  </outline>
</glyph>
<glyph name="uni0195" format="2">
  <advance width="987"/>
  <unicode hex="0195"/>
  <anchor x="494" y="0" name="bottom"/>
  <anchor x="494" y="546" name="top"/>
  <outline>
    <contour>
      <point x="667" y="-10" type="curve" smooth="yes"/>
      <point x="830" y="-10"/>
      <point x="912" y="71"/>
      <point x="912" y="239" type="curve" smooth="yes"/>
      <point x="912" y="546" type="line"/>
      <point x="763" y="546" type="line"/>
      <point x="763" y="252" type="line" smooth="yes"/>
      <point x="763" y="151"/>
      <point x="733" y="110"/>
      <point x="667" y="110" type="curve" smooth="yes"/>
      <point x="602" y="110"/>
      <point x="572" y="150"/>
      <point x="572" y="238" type="curve" smooth="yes"/>
      <point x="572" y="351" type="line"/>
      <point x="572" y="493"/>
      <point x="495" y="556"/>
      <point x="383" y="556" type="curve" smooth="yes"/>
      <point x="316" y="556"/>
      <point x="263" y="530"/>
      <point x="228" y="476" type="curve"/>
      <point x="220" y="476" type="line"/>
      <point x="224" y="519"/>
      <point x="227" y="563"/>
      <point x="227" y="606" type="curve" smooth="yes"/>
      <point x="227" y="760" type="line"/>
      <point x="78" y="760" type="line"/>
      <point x="78" y="0" type="line"/>
      <point x="227" y="0" type="line"/>
      <point x="227" y="257" type="line" smooth="yes"/>
      <point x="227" y="373"/>
      <point x="256" y="437"/>
      <point x="339" y="437" type="curve" smooth="yes"/>
      <point x="395" y="437"/>
      <point x="423" y="397"/>
      <point x="423" y="319" type="curve" smooth="yes"/>
      <point x="423" y="216" type="line" smooth="yes"/>
      <point x="423" y="54"/>
      <point x="501" y="-10"/>
    </contour>
  </outline>
</glyph>
<glyph name="uni0196" format="2">
  <advance width="403"/>
  <unicode hex="0196"/>
  <anchor x="232" y="0" name="bottom"/>
  <anchor x="164" y="714" name="top"/>
  <outline>
    <contour>
      <point x="264" y="-10" type="curve" smooth="yes"/>
      <point x="317" y="-10"/>
      <point x="363" y="1"/>
      <point x="393" y="15" type="curve"/>
      <point x="393" y="134" type="line"/>
      <point x="365" y="124"/>
      <point x="341" y="117"/>
      <point x="308" y="117" type="curve" smooth="yes"/>
      <point x="269" y="117"/>
      <point x="243" y="143"/>
      <point x="243" y="190" type="curve" smooth="yes"/>
      <point x="243" y="714" type="line"/>
      <point x="85" y="714" type="line"/>
      <point x="85" y="177" type="line" smooth="yes"/>
      <point x="85" y="36"/>
      <point x="162" y="-10"/>
    </contour>
  </outline>
</glyph>
<glyph name="uni0197" format="2">
  <advance width="389"/>
  <unicode hex="0197"/>
  <anchor x="195" y="0" name="bottom"/>
  <anchor x="195" y="714" name="top"/>
  <outline>
    <contour>
      <point x="357" y="714" type="line"/>
      <point x="32" y="714" type="line"/>
      <point x="32" y="628" type="line"/>
      <point x="119" y="588" type="line"/>
      <point x="119" y="419" type="line"/>
      <point x="27" y="419" type="line"/>
      <point x="27" y="295" type="line"/>
      <point x="119" y="295" type="line"/>
      <point x="119" y="126" type="line"/>
      <point x="32" y="86" type="line"/>
      <point x="32" y="0" type="line"/>
      <point x="357" y="0" type="line"/>
      <point x="357" y="86" type="line"/>
      <point x="270" y="126" type="line"/>
      <point x="270" y="295" type="line"/>
      <point x="362" y="295" type="line"/>
      <point x="362" y="419" type="line"/>
      <point x="270" y="419" type="line"/>
      <point x="270" y="588" type="line"/>
      <point x="357" y="628" type="line"/>
    </contour>
  </outline>
</glyph>
<glyph name="uni0198" format="2">
  <advance width="664"/>
  <unicode hex="0198"/>
  <anchor x="332" y="0" name="bottom"/>
  <anchor x="332" y="714" name="top"/>
  <outline>
    <contour>
      <point x="579" y="725" type="curve" smooth="yes"/>
      <point x="498" y="725"/>
      <point x="446" y="665"/>
      <point x="386" y="584" type="curve" smooth="yes"/>
      <point x="305" y="476" type="line"/>
      <point x="284" y="446"/>
      <point x="262" y="415"/>
      <point x="241" y="385" type="curve"/>
      <point x="241" y="714" type="line"/>
      <point x="90" y="714" type="line"/>
      <point x="90" y="0" type="line"/>
      <point x="241" y="0" type="line"/>
      <point x="241" y="255" type="line"/>
      <point x="305" y="301" type="line"/>
      <point x="492" y="0" type="line"/>
      <point x="664" y="0" type="line"/>
      <point x="412" y="398" type="line"/>
      <point x="532" y="557" type="line" smooth="yes"/>
      <point x="552" y="583"/>
      <point x="578" y="600"/>
      <point x="606" y="600" type="curve" smooth="yes"/>
      <point x="626" y="600"/>
      <point x="643" y="595"/>
      <point x="654" y="591" type="curve"/>
      <point x="654" y="710" type="line"/>
      <point x="639" y="717"/>
      <point x="614" y="725"/>
    </contour>
  </outline>
</glyph>
<glyph name="uni0199" format="2">
  <advance width="620"/>
  <unicode hex="0199"/>
  <anchor x="310" y="0" name="bottom"/>
  <anchor x="310" y="767" name="top"/>
  <outline>
    <contour>
      <point x="253" y="767" type="curve" smooth="yes"/>
      <point x="149" y="767"/>
      <point x="78" y="718"/>
      <point x="78" y="595" type="curve" smooth="yes"/>
      <point x="78" y="0" type="line"/>
      <point x="227" y="0" type="line"/>
      <point x="227" y="170" type="line"/>
      <point x="291" y="221" type="line"/>
      <point x="448" y="0" type="line"/>
      <point x="620" y="0" type="line"/>
      <point x="390" y="309" type="line"/>
      <point x="607" y="546" type="line"/>
      <point x="439" y="546" type="line"/>
      <point x="286" y="380" type="line" smooth="yes"/>
      <point x="262" y="354"/>
      <point x="239" y="325"/>
      <point x="221" y="297" type="curve"/>
      <point x="219" y="297" type="line"/>
      <point x="223" y="337"/>
      <point x="227" y="379"/>
      <point x="227" y="420" type="curve" smooth="yes"/>
      <point x="227" y="592" type="line" smooth="yes"/>
      <point x="227" y="632"/>
      <point x="245" y="648"/>
      <point x="276" y="648" type="curve" smooth="yes"/>
      <point x="299" y="648"/>
      <point x="320" y="642"/>
      <point x="331" y="638" type="curve"/>
      <point x="331" y="752" type="line"/>
      <point x="317" y="758"/>
      <point x="287" y="767"/>
    </contour>
  </outline>
</glyph>
<glyph name="uni019A" format="2">
  <advance width="330"/>
  <unicode hex="019A"/>
  <anchor x="165" y="0" name="bottom"/>
  <anchor x="165" y="760" name="top"/>
  <outline>
    <contour>
      <point x="90" y="0" type="line"/>
      <point x="239" y="0" type="line"/>
      <point x="239" y="308" type="line"/>
      <point x="320" y="308" type="line"/>
      <point x="320" y="420" type="line"/>
      <point x="239" y="420" type="line"/>
      <point x="239" y="760" type="line"/>
      <point x="90" y="760" type="line"/>
      <point x="90" y="420" type="line"/>
      <point x="10" y="420" type="line"/>
      <point x="10" y="308" type="line"/>
      <point x="90" y="308" type="line"/>
    </contour>
  </outline>
</glyph>
<glyph name="uni019B" format="2">
  <advance width="615"/>
  <unicode hex="019B"/>
  <anchor x="308" y="0" name="bottom"/>
  <anchor x="308" y="766" name="top"/>
  <outline>
    <contour>
      <point x="4" y="0" type="line"/>
      <point x="158" y="0" type="line"/>
      <point x="259" y="237" type="line" smooth="yes"/>
      <point x="272" y="269"/>
      <point x="286" y="314"/>
      <point x="296" y="349" type="curve"/>
      <point x="299" y="349" type="line"/>
      <point x="306" y="320"/>
      <point x="320" y="277"/>
      <point x="335" y="234" type="curve" smooth="yes"/>
      <point x="382" y="101" type="line" smooth="yes"/>
      <point x="406" y="34"/>
      <point x="443" y="-10"/>
      <point x="524" y="-10" type="curve" smooth="yes"/>
      <point x="549" y="-10"/>
      <point x="594" y="-3"/>
      <point x="610" y="5" type="curve"/>
      <point x="610" y="120" type="line"/>
      <point x="598" y="117"/>
      <point x="586" y="115"/>
      <point x="576" y="115" type="curve" smooth="yes"/>
      <point x="548" y="115"/>
      <point x="524" y="131"/>
      <point x="494" y="214" type="curve" smooth="yes"/>
      <point x="359" y="586" type="line"/>
      <point x="442" y="611" type="line"/>
      <point x="417" y="694" type="line"/>
      <point x="324" y="665" type="line"/>
      <point x="287" y="730"/>
      <point x="235" y="766"/>
      <point x="140" y="766" type="curve" smooth="yes"/>
      <point x="116" y="766"/>
      <point x="77" y="762"/>
      <point x="59" y="758" type="curve"/>
      <point x="59" y="635" type="line"/>
      <point x="72" y="638"/>
      <point x="91" y="641"/>
      <point x="109" y="641" type="curve" smooth="yes"/>
      <point x="139" y="641"/>
      <point x="162" y="637"/>
      <point x="182" y="621" type="curve"/>
      <point x="99" y="596" type="line"/>
      <point x="124" y="514" type="line"/>
      <point x="224" y="544" type="line"/>
      <point x="235" y="516" type="line"/>
    </contour>
  </outline>
</glyph>
<glyph name="uni019C" format="2">
  <advance width="1035"/>
  <unicode hex="019C"/>
  <anchor x="518" y="0" name="bottom"/>
  <anchor x="518" y="714" name="top"/>
  <outline>
    <contour>
      <point x="288" y="-10" type="curve" smooth="yes"/>
      <point x="367" y="-10"/>
      <point x="424" y="23"/>
      <point x="459" y="80" type="curve"/>
      <point x="466" y="80" type="line"/>
      <point x="498" y="24"/>
      <point x="550" y="-10"/>
      <point x="633" y="-10" type="curve" smooth="yes"/>
      <point x="703" y="-10"/>
      <point x="767" y="19"/>
      <point x="801" y="76" type="curve"/>
      <point x="810" y="76" type="line"/>
      <point x="831" y="0" type="line"/>
      <point x="945" y="0" type="line"/>
      <point x="945" y="714" type="line"/>
      <point x="793" y="714" type="line"/>
      <point x="793" y="300" type="line" smooth="yes"/>
      <point x="793" y="182"/>
      <point x="765" y="117"/>
      <point x="677" y="117" type="curve" smooth="yes"/>
      <point x="618" y="117"/>
      <point x="590" y="158"/>
      <point x="590" y="237" type="curve" smooth="yes"/>
      <point x="590" y="714" type="line"/>
      <point x="439" y="714" type="line"/>
      <point x="439" y="283" type="line"/>
      <point x="439" y="176"/>
      <point x="407" y="117"/>
      <point x="323" y="117" type="curve" smooth="yes"/>
      <point x="264" y="117"/>
      <point x="236" y="158"/>
      <point x="236" y="237" type="curve" smooth="yes"/>
      <point x="236" y="714" type="line"/>
      <point x="85" y="714" type="line"/>
      <point x="85" y="194" type="line" smooth="yes"/>
      <point x="85" y="51"/>
      <point x="166" y="-10"/>
    </contour>
  </outline>
</glyph>
<glyph name="uni019D" format="2">
  <advance width="813"/>
  <unicode hex="019D"/>
  <anchor x="407" y="-240" name="bottom"/>
  <anchor x="407" y="714" name="top"/>
  <outline>
    <contour>
      <point x="55" y="-240" type="curve" smooth="yes"/>
      <point x="156" y="-240"/>
      <point x="225" y="-187"/>
      <point x="225" y="-64" type="curve" smooth="yes"/>
      <point x="225" y="336" type="line" smooth="yes"/>
      <point x="225" y="389"/>
      <point x="220" y="484"/>
      <point x="216" y="540" type="curve"/>
      <point x="220" y="540" type="line"/>
      <point x="531" y="0" type="line"/>
      <point x="723" y="0" type="line"/>
      <point x="723" y="714" type="line"/>
      <point x="587" y="714" type="line"/>
      <point x="587" y="376" type="line" smooth="yes"/>
      <point x="587" y="327"/>
      <point x="591" y="235"/>
      <point x="594" y="179" type="curve"/>
      <point x="591" y="179" type="line"/>
      <point x="281" y="714" type="line"/>
      <point x="90" y="714" type="line"/>
      <point x="90" y="-61" type="line" smooth="yes"/>
      <point x="90" y="-101"/>
      <point x="68" y="-121"/>
      <point x="37" y="-121" type="curve" smooth="yes"/>
      <point x="14" y="-121"/>
      <point x="-7" y="-115"/>
      <point x="-18" y="-111" type="curve"/>
      <point x="-18" y="-225" type="line"/>
      <point x="-4" y="-231"/>
      <point x="22" y="-240"/>
    </contour>
  </outline>
</glyph>
<glyph name="Ohorn" format="2">
  <advance width="825"/>
  <unicode hex="01A0"/>
  <anchor x="398" y="0" name="bottom"/>
  <anchor x="398" y="714" name="top"/>
  <outline>
    <contour>
      <point x="738" y="358" type="curve" smooth="yes"/>
      <point x="738" y="427"/>
      <point x="728" y="488"/>
      <point x="708" y="540" type="curve"/>
      <point x="792" y="574"/>
      <point x="833" y="640"/>
      <point x="855" y="749" type="curve"/>
      <point x="848" y="760" type="line"/>
      <point x="701" y="760" type="line"/>
      <point x="701" y="696"/>
      <point x="686" y="646"/>
      <point x="656" y="626" type="curve"/>
      <point x="601" y="689"/>
      <point x="515" y="725"/>
      <point x="400" y="725" type="curve" smooth="yes"/>
      <point x="166" y="725"/>
      <point x="58" y="580"/>
      <point x="58" y="359" type="curve" smooth="yes"/>
      <point x="58" y="137"/>
      <point x="165" y="-10"/>
      <point x="398" y="-10" type="curve" smooth="yes"/>
      <point x="631" y="-10"/>
      <point x="738" y="137"/>
    </contour>
    <contour>
      <point x="217" y="358" type="curve" smooth="yes"/>
      <point x="217" y="508"/>
      <point x="271" y="599"/>
      <point x="399" y="599" type="curve" smooth="yes"/>
      <point x="527" y="599"/>
      <point x="579" y="508"/>
      <point x="579" y="358" type="curve" smooth="yes"/>
      <point x="579" y="208"/>
      <point x="527" y="117"/>
      <point x="398" y="117" type="curve" smooth="yes"/>
      <point x="271" y="117"/>
      <point x="217" y="208"/>
    </contour>
  </outline>
</glyph>
<glyph name="ohorn" format="2">
  <advance width="679"/>
  <unicode hex="01A1"/>
  <anchor x="308" y="0" name="bottom"/>
  <anchor x="310" y="546" name="top"/>
  <outline>
    <contour>
      <point x="574" y="274" type="curve" smooth="yes"/>
      <point x="574" y="326"/>
      <point x="565" y="371"/>
      <point x="549" y="410" type="curve"/>
      <point x="671" y="442"/>
      <point x="705" y="520"/>
      <point x="725" y="617" type="curve"/>
      <point x="718" y="628" type="line"/>
      <point x="571" y="628" type="line"/>
      <point x="571" y="558"/>
      <point x="551" y="505"/>
      <point x="498" y="489" type="curve"/>
      <point x="452" y="533"/>
      <point x="384" y="556"/>
      <point x="311" y="556" type="curve" smooth="yes"/>
      <point x="146" y="556"/>
      <point x="45" y="455"/>
      <point x="45" y="274" type="curve" smooth="yes"/>
      <point x="45" y="92"/>
      <point x="155" y="-10"/>
      <point x="308" y="-10" type="curve" smooth="yes"/>
      <point x="472" y="-10"/>
      <point x="574" y="92"/>
    </contour>
    <contour>
      <point x="197" y="274" type="curve" smooth="yes"/>
      <point x="197" y="382"/>
      <point x="230" y="436"/>
      <point x="309" y="436" type="curve" smooth="yes"/>
      <point x="389" y="436"/>
      <point x="422" y="382"/>
      <point x="422" y="274" type="curve" smooth="yes"/>
      <point x="422" y="166"/>
      <point x="389" y="110"/>
      <point x="310" y="110" type="curve" smooth="yes"/>
      <point x="230" y="110"/>
      <point x="197" y="166"/>
    </contour>
  </outline>
</glyph>
<glyph name="uni01A2" format="2">
  <advance width="1131"/>
  <unicode hex="01A2"/>
  <anchor x="566" y="0" name="bottom"/>
  <anchor x="566" y="714" name="top"/>
  <outline>
    <contour>
      <point x="718" y="358" type="curve" smooth="yes"/>
      <point x="718" y="433"/>
      <point x="706" y="500"/>
      <point x="681" y="555" type="curve"/>
      <point x="703" y="579"/>
      <point x="735" y="599"/>
      <point x="792" y="599" type="curve" smooth="yes"/>
      <point x="859" y="599"/>
      <point x="895" y="557"/>
      <point x="895" y="478" type="curve" smooth="yes"/>
      <point x="895" y="0" type="line"/>
      <point x="1046" y="0" type="line"/>
      <point x="1046" y="490" type="line" smooth="yes"/>
      <point x="1046" y="654"/>
      <point x="958" y="725"/>
      <point x="833" y="725" type="curve" smooth="yes"/>
      <point x="740" y="725"/>
      <point x="675" y="687"/>
      <point x="628" y="635" type="curve"/>
      <point x="574" y="692"/>
      <point x="495" y="725"/>
      <point x="389" y="725" type="curve" smooth="yes"/>
      <point x="162" y="725"/>
      <point x="58" y="580"/>
      <point x="58" y="359" type="curve" smooth="yes"/>
      <point x="58" y="134"/>
      <point x="162" y="-10"/>
      <point x="388" y="-10" type="curve" smooth="yes"/>
      <point x="614" y="-10"/>
      <point x="718" y="134"/>
    </contour>
    <contour>
      <point x="217" y="358" type="curve" smooth="yes"/>
      <point x="217" y="508"/>
      <point x="268" y="599"/>
      <point x="389" y="599" type="curve" smooth="yes"/>
      <point x="510" y="599"/>
      <point x="559" y="508"/>
      <point x="559" y="358" type="curve" smooth="yes"/>
      <point x="559" y="208"/>
      <point x="510" y="117"/>
      <point x="388" y="117" type="curve" smooth="yes"/>
      <point x="268" y="117"/>
      <point x="217" y="208"/>
    </contour>
  </outline>
</glyph>
<glyph name="uni01A3" format="2">
  <advance width="929"/>
  <unicode hex="01A3"/>
  <anchor x="465" y="-240" name="bottom"/>
  <anchor x="465" y="546" name="top"/>
  <outline>
    <contour>
      <point x="554" y="274" type="curve" smooth="yes"/>
      <point x="554" y="323"/>
      <point x="546" y="366"/>
      <point x="532" y="402" type="curve"/>
      <point x="551" y="425"/>
      <point x="578" y="437"/>
      <point x="617" y="437" type="curve" smooth="yes"/>
      <point x="678" y="437"/>
      <point x="705" y="397"/>
      <point x="705" y="319" type="curve" smooth="yes"/>
      <point x="705" y="-240" type="line"/>
      <point x="854" y="-240" type="line"/>
      <point x="854" y="356" type="line" smooth="yes"/>
      <point x="854" y="496"/>
      <point x="777" y="556"/>
      <point x="660" y="556" type="curve" smooth="yes"/>
      <point x="590" y="556"/>
      <point x="531" y="533"/>
      <point x="487" y="478" type="curve"/>
      <point x="441" y="531"/>
      <point x="378" y="556"/>
      <point x="301" y="556" type="curve" smooth="yes"/>
      <point x="142" y="556"/>
      <point x="45" y="455"/>
      <point x="45" y="274" type="curve" smooth="yes"/>
      <point x="45" y="87"/>
      <point x="151" y="-10"/>
      <point x="298" y="-10" type="curve" smooth="yes"/>
      <point x="456" y="-10"/>
      <point x="554" y="92"/>
    </contour>
    <contour>
      <point x="197" y="274" type="curve" smooth="yes"/>
      <point x="197" y="382"/>
      <point x="228" y="436"/>
      <point x="299" y="436" type="curve" smooth="yes"/>
      <point x="371" y="436"/>
      <point x="402" y="382"/>
      <point x="402" y="274" type="curve" smooth="yes"/>
      <point x="402" y="166"/>
      <point x="371" y="110"/>
      <point x="300" y="110" type="curve" smooth="yes"/>
      <point x="228" y="110"/>
      <point x="197" y="166"/>
    </contour>
  </outline>
</glyph>
<glyph name="uni01A4" format="2">
  <advance width="750"/>
  <unicode hex="01A4"/>
  <anchor x="375" y="0" name="bottom"/>
  <anchor x="375" y="714" name="top"/>
  <outline>
    <contour>
      <point x="212" y="0" type="line"/>
      <point x="363" y="0" type="line"/>
      <point x="363" y="254" type="line"/>
      <point x="428" y="254" type="line" smooth="yes"/>
      <point x="636" y="254"/>
      <point x="705" y="366"/>
      <point x="705" y="491" type="curve" smooth="yes"/>
      <point x="705" y="630"/>
      <point x="624" y="714"/>
      <point x="440" y="714" type="curve" smooth="yes"/>
      <point x="190" y="714" type="line" smooth="yes"/>
      <point x="53" y="714"/>
      <point x="5" y="636"/>
      <point x="5" y="544" type="curve" smooth="yes"/>
      <point x="5" y="518"/>
      <point x="12" y="497"/>
      <point x="17" y="486" type="curve"/>
      <point x="135" y="486" type="line"/>
      <point x="131" y="496"/>
      <point x="125" y="511"/>
      <point x="125" y="534" type="curve" smooth="yes"/>
      <point x="125" y="565"/>
      <point x="144" y="590"/>
      <point x="186" y="590" type="curve" smooth="yes"/>
      <point x="212" y="590" type="line"/>
    </contour>
    <contour>
      <point x="413" y="378" type="curve" smooth="yes"/>
      <point x="363" y="378" type="line"/>
      <point x="363" y="590" type="line"/>
      <point x="432" y="590" type="line" smooth="yes"/>
      <point x="514" y="590"/>
      <point x="552" y="556"/>
      <point x="552" y="486" type="curve" smooth="yes"/>
      <point x="552" y="410"/>
      <point x="498" y="378"/>
    </contour>
  </outline>
</glyph>
<glyph name="uni01A5" format="2">
  <advance width="633"/>
  <unicode hex="01A5"/>
  <anchor x="317" y="-240" name="bottom"/>
  <anchor x="317" y="765" name="top"/>
  <outline>
    <contour>
      <point x="253" y="765" type="curve" smooth="yes"/>
      <point x="149" y="765"/>
      <point x="78" y="716"/>
      <point x="78" y="593" type="curve" smooth="yes"/>
      <point x="78" y="-240" type="line"/>
      <point x="227" y="-240" type="line"/>
      <point x="227" y="-22" type="line" smooth="yes"/>
      <point x="227" y="6"/>
      <point x="226" y="31"/>
      <point x="222" y="57" type="curve"/>
      <point x="228" y="57" type="line"/>
      <point x="257" y="20"/>
      <point x="303" y="-10"/>
      <point x="382" y="-10" type="curve" smooth="yes"/>
      <point x="505" y="-10"/>
      <point x="588" y="88"/>
      <point x="588" y="274" type="curve" smooth="yes"/>
      <point x="588" y="459"/>
      <point x="504" y="556"/>
      <point x="382" y="556" type="curve" smooth="yes"/>
      <point x="304" y="556"/>
      <point x="255" y="520"/>
      <point x="227" y="475" type="curve"/>
      <point x="221" y="475" type="line"/>
      <point x="224" y="507"/>
      <point x="227" y="536"/>
      <point x="227" y="562" type="curve" smooth="yes"/>
      <point x="227" y="591" type="line" smooth="yes"/>
      <point x="227" y="628"/>
      <point x="245" y="646"/>
      <point x="276" y="646" type="curve" smooth="yes"/>
      <point x="299" y="646"/>
      <point x="320" y="640"/>
      <point x="331" y="636" type="curve"/>
      <point x="331" y="750" type="line"/>
      <point x="317" y="756"/>
      <point x="287" y="765"/>
    </contour>
    <contour>
      <point x="334" y="437" type="curve" smooth="yes"/>
      <point x="404" y="437"/>
      <point x="436" y="383"/>
      <point x="436" y="276" type="curve" smooth="yes"/>
      <point x="436" y="169"/>
      <point x="404" y="111"/>
      <point x="336" y="111" type="curve" smooth="yes"/>
      <point x="253" y="111"/>
      <point x="227" y="169"/>
      <point x="227" y="275" type="curve" smooth="yes"/>
      <point x="227" y="291" type="line" smooth="yes"/>
      <point x="229" y="389"/>
      <point x="256" y="437"/>
    </contour>
  </outline>
</glyph>
<glyph name="uni01A6" format="2">
  <advance width="660"/>
  <unicode hex="01A6"/>
  <anchor x="330" y="-100" name="bottom"/>
  <anchor x="330" y="714" name="top"/>
  <outline>
    <contour>
      <point x="492" y="-100" type="line"/>
      <point x="660" y="-100" type="line"/>
      <point x="450" y="211" type="line"/>
      <point x="520" y="243"/>
      <point x="583" y="302"/>
      <point x="583" y="400" type="curve" smooth="yes"/>
      <point x="583" y="544"/>
      <point x="492" y="614"/>
      <point x="298" y="614" type="curve" smooth="yes"/>
      <point x="241" y="614" type="line"/>
      <point x="241" y="714" type="line"/>
      <point x="90" y="714" type="line"/>
      <point x="90" y="0" type="line"/>
      <point x="241" y="0" type="line"/>
      <point x="241" y="174" type="line"/>
      <point x="322" y="174" type="line"/>
    </contour>
    <contour>
      <point x="290" y="297" type="curve" smooth="yes"/>
      <point x="241" y="297" type="line"/>
      <point x="241" y="490" type="line"/>
      <point x="287" y="490" type="line" smooth="yes"/>
      <point x="385" y="490"/>
      <point x="430" y="464"/>
      <point x="430" y="396" type="curve" smooth="yes"/>
      <point x="430" y="331"/>
      <point x="390" y="297"/>
    </contour>
  </outline>
</glyph>
<glyph name="uni01A7" format="2">
  <advance width="551"/>
  <unicode hex="01A7"/>
  <anchor x="276" y="0" name="bottom"/>
  <anchor x="276" y="714" name="top"/>
  <outline>
    <contour>
      <point x="281" y="724" type="curve" smooth="yes"/>
      <point x="197" y="724"/>
      <point x="122" y="705"/>
      <point x="53" y="674" type="curve"/>
      <point x="98" y="556" type="line"/>
      <point x="164" y="583"/>
      <point x="215" y="598"/>
      <point x="269" y="598" type="curve" smooth="yes"/>
      <point x="328" y="598"/>
      <point x="360" y="573"/>
      <point x="360" y="530" type="curve" smooth="yes"/>
      <point x="360" y="474"/>
      <point x="313" y="452"/>
      <point x="216" y="411" type="curve" smooth="yes"/>
      <point x="106" y="364"/>
      <point x="42" y="302"/>
      <point x="42" y="193" type="curve" smooth="yes"/>
      <point x="42" y="66"/>
      <point x="122" y="-10"/>
      <point x="285" y="-10" type="curve" smooth="yes"/>
      <point x="370" y="-10"/>
      <point x="446" y="7"/>
      <point x="504" y="35" type="curve"/>
      <point x="504" y="161" type="line"/>
      <point x="435" y="133"/>
      <point x="366" y="115"/>
      <point x="294" y="115" type="curve" smooth="yes"/>
      <point x="225" y="115"/>
      <point x="190" y="144"/>
      <point x="190" y="193" type="curve" smooth="yes"/>
      <point x="190" y="248"/>
      <point x="247" y="276"/>
      <point x="329" y="310" type="curve" smooth="yes"/>
      <point x="420" y="348"/>
      <point x="508" y="397"/>
      <point x="508" y="527" type="curve" smooth="yes"/>
      <point x="508" y="655"/>
      <point x="420" y="724"/>
    </contour>
  </outline>
</glyph>
<glyph name="uni01A8" format="2">
  <advance width="497"/>
  <unicode hex="01A8"/>
  <anchor x="249" y="0" name="bottom"/>
  <anchor x="249" y="546" name="top"/>
  <outline>
    <contour>
      <point x="253" y="556" type="curve" smooth="yes"/>
      <point x="185" y="556"/>
      <point x="115" y="543"/>
      <point x="50" y="513" type="curve"/>
      <point x="90" y="406" type="line"/>
      <point x="143" y="429"/>
      <point x="189" y="446"/>
      <point x="238" y="446" type="curve" smooth="yes"/>
      <point x="282" y="446"/>
      <point x="309" y="431"/>
      <point x="309" y="405" type="curve" smooth="yes"/>
      <point x="309" y="379"/>
      <point x="287" y="365"/>
      <point x="191" y="329" type="curve" smooth="yes"/>
      <point x="98" y="294"/>
      <point x="38" y="247"/>
      <point x="38" y="152" type="curve" smooth="yes"/>
      <point x="38" y="47"/>
      <point x="114" y="-10"/>
      <point x="261" y="-10" type="curve" smooth="yes"/>
      <point x="334" y="-10"/>
      <point x="392" y="2"/>
      <point x="447" y="29" type="curve"/>
      <point x="447" y="142" type="line"/>
      <point x="387" y="111"/>
      <point x="325" y="99"/>
      <point x="273" y="99" type="curve" smooth="yes"/>
      <point x="215" y="99"/>
      <point x="185" y="116"/>
      <point x="185" y="149" type="curve" smooth="yes"/>
      <point x="185" y="176"/>
      <point x="198" y="192"/>
      <point x="304" y="234" type="curve" smooth="yes"/>
      <point x="408" y="275"/>
      <point x="457" y="315"/>
      <point x="457" y="407" type="curve" smooth="yes"/>
      <point x="457" y="510"/>
      <point x="368" y="556"/>
    </contour>
  </outline>
</glyph>
<glyph name="uni01AA" format="2">
  <advance width="418"/>
  <unicode hex="01AA"/>
  <anchor x="209" y="-240" name="bottom"/>
  <anchor x="209" y="770" name="top"/>
  <outline>
    <contour>
      <point x="139" y="770" type="curve" smooth="yes"/>
      <point x="39" y="770"/>
      <point x="-8" y="714"/>
      <point x="-8" y="653" type="curve" smooth="yes"/>
      <point x="-8" y="581"/>
      <point x="36" y="530"/>
      <point x="134" y="530" type="curve" smooth="yes"/>
      <point x="161" y="530" type="line"/>
      <point x="161" y="-59" type="line" smooth="yes"/>
      <point x="161" y="-200"/>
      <point x="239" y="-240"/>
      <point x="341" y="-240" type="curve" smooth="yes"/>
      <point x="393" y="-240"/>
      <point x="439" y="-229"/>
      <point x="469" y="-215" type="curve"/>
      <point x="469" y="-104" type="line"/>
      <point x="438" y="-114"/>
      <point x="408" y="-121"/>
      <point x="375" y="-121" type="curve" smooth="yes"/>
      <point x="336" y="-121"/>
      <point x="310" y="-101"/>
      <point x="310" y="-59" type="curve" smooth="yes"/>
      <point x="310" y="591" type="line" smooth="yes"/>
      <point x="310" y="701"/>
      <point x="262" y="770"/>
    </contour>
    <contour>
      <point x="118" y="688" type="curve" smooth="yes"/>
      <point x="144" y="688"/>
      <point x="161" y="672"/>
      <point x="161" y="638" type="curve" smooth="yes"/>
      <point x="161" y="607" type="line"/>
      <point x="137" y="607" type="line" smooth="yes"/>
      <point x="101" y="607"/>
      <point x="82" y="627"/>
      <point x="82" y="652" type="curve" smooth="yes"/>
      <point x="82" y="672"/>
      <point x="96" y="688"/>
    </contour>
  </outline>
</glyph>
<glyph name="uni01AB" format="2">
  <advance width="434"/>
  <unicode hex="01AB"/>
  <anchor x="217" y="-240" name="bottom"/>
  <anchor x="217" y="662" name="top"/>
  <outline>
    <contour>
      <point x="260" y="-240" type="curve" smooth="yes"/>
      <point x="353" y="-240"/>
      <point x="402" y="-189"/>
      <point x="402" y="-74" type="curve" smooth="yes"/>
      <point x="402" y="126" type="line"/>
      <point x="371" y="116"/>
      <point x="341" y="109"/>
      <point x="308" y="109" type="curve" smooth="yes"/>
      <point x="269" y="109"/>
      <point x="243" y="129"/>
      <point x="243" y="171" type="curve" smooth="yes"/>
      <point x="243" y="434" type="line"/>
      <point x="396" y="434" type="line"/>
      <point x="396" y="546" type="line"/>
      <point x="243" y="546" type="line"/>
      <point x="243" y="662" type="line"/>
      <point x="148" y="662" type="line"/>
      <point x="105" y="547" type="line"/>
      <point x="23" y="497" type="line"/>
      <point x="23" y="434" type="line"/>
      <point x="94" y="434" type="line"/>
      <point x="94" y="171" type="line" smooth="yes"/>
      <point x="94" y="30"/>
      <point x="167" y="-10"/>
      <point x="265" y="-10" type="curve" smooth="yes"/>
      <point x="269" y="-10"/>
      <point x="274" y="-10"/>
      <point x="278" y="-10" type="curve"/>
      <point x="278" y="-74" type="line" smooth="yes"/>
      <point x="278" y="-118"/>
      <point x="261" y="-132"/>
      <point x="228" y="-132" type="curve" smooth="yes"/>
      <point x="211" y="-132"/>
      <point x="194" y="-128"/>
      <point x="180" y="-123" type="curve"/>
      <point x="180" y="-227" type="line"/>
      <point x="202" y="-235"/>
      <point x="229" y="-240"/>
    </contour>
  </outline>
</glyph>
<glyph name="uni01AC" format="2">
  <advance width="618"/>
  <unicode hex="01AC"/>
  <anchor x="309" y="0" name="bottom"/>
  <anchor x="309" y="714" name="top"/>
  <outline>
    <contour>
      <point x="253" y="0" type="line"/>
      <point x="404" y="0" type="line"/>
      <point x="404" y="588" type="line"/>
      <point x="598" y="588" type="line"/>
      <point x="598" y="714" type="line"/>
      <point x="190" y="714" type="line" smooth="yes"/>
      <point x="53" y="714"/>
      <point x="5" y="636"/>
      <point x="5" y="544" type="curve" smooth="yes"/>
      <point x="5" y="518"/>
      <point x="12" y="497"/>
      <point x="17" y="486" type="curve"/>
      <point x="135" y="486" type="line"/>
      <point x="131" y="496"/>
      <point x="125" y="511"/>
      <point x="125" y="532" type="curve" smooth="yes"/>
      <point x="125" y="563"/>
      <point x="144" y="588"/>
      <point x="186" y="588" type="curve" smooth="yes"/>
      <point x="253" y="588" type="line"/>
    </contour>
  </outline>
</glyph>
<glyph name="uni01AD" format="2">
  <advance width="434"/>
  <unicode hex="01AD"/>
  <anchor x="217" y="0" name="bottom"/>
  <anchor x="217" y="765" name="top"/>
  <outline>
    <contour>
      <point x="283" y="765" type="curve" smooth="yes"/>
      <point x="168" y="765"/>
      <point x="94" y="716"/>
      <point x="94" y="593" type="curve" smooth="yes"/>
      <point x="94" y="540" type="line"/>
      <point x="23" y="497" type="line"/>
      <point x="23" y="434" type="line"/>
      <point x="94" y="434" type="line"/>
      <point x="94" y="171" type="line" smooth="yes"/>
      <point x="94" y="30"/>
      <point x="167" y="-10"/>
      <point x="265" y="-10" type="curve" smooth="yes"/>
      <point x="321" y="-10"/>
      <point x="370" y="1"/>
      <point x="402" y="15" type="curve"/>
      <point x="402" y="126" type="line"/>
      <point x="371" y="116"/>
      <point x="341" y="109"/>
      <point x="308" y="109" type="curve" smooth="yes"/>
      <point x="269" y="109"/>
      <point x="243" y="129"/>
      <point x="243" y="171" type="curve" smooth="yes"/>
      <point x="243" y="434" type="line"/>
      <point x="396" y="434" type="line"/>
      <point x="396" y="546" type="line"/>
      <point x="243" y="546" type="line"/>
      <point x="243" y="590" type="line" smooth="yes"/>
      <point x="243" y="627"/>
      <point x="260" y="646"/>
      <point x="300" y="646" type="curve" smooth="yes"/>
      <point x="329" y="646"/>
      <point x="358" y="640"/>
      <point x="375" y="635" type="curve"/>
      <point x="375" y="749" type="line"/>
      <point x="356" y="756"/>
      <point x="321" y="765"/>
    </contour>
  </outline>
</glyph>
<glyph name="uni01AE" format="2">
  <advance width="579"/>
  <unicode hex="01AE"/>
  <anchor x="290" y="-240" name="bottom"/>
  <anchor x="290" y="714" name="top"/>
  <outline>
    <contour>
      <point x="389" y="-240" type="curve" smooth="yes"/>
      <point x="423" y="-240"/>
      <point x="457" y="-232"/>
      <point x="473" y="-225" type="curve"/>
      <point x="473" y="-111" type="line"/>
      <point x="462" y="-115"/>
      <point x="441" y="-121"/>
      <point x="418" y="-121" type="curve" smooth="yes"/>
      <point x="387" y="-121"/>
      <point x="365" y="-102"/>
      <point x="365" y="-61" type="curve" smooth="yes"/>
      <point x="365" y="588" type="line"/>
      <point x="559" y="588" type="line"/>
      <point x="559" y="714" type="line"/>
      <point x="20" y="714" type="line"/>
      <point x="20" y="588" type="line"/>
      <point x="214" y="588" type="line"/>
      <point x="214" y="-64" type="line" smooth="yes"/>
      <point x="214" y="-189"/>
      <point x="280" y="-240"/>
    </contour>
  </outline>
</glyph>
<glyph name="Uhorn" format="2">
  <advance width="885"/>
  <unicode hex="01AF"/>
  <anchor x="375" y="0" name="bottom"/>
  <anchor x="378" y="714" name="top"/>
  <outline>
    <contour>
      <point x="671" y="622" type="curve"/>
      <point x="671" y="714" type="line"/>
      <point x="520" y="714" type="line"/>
      <point x="520" y="266" type="line" smooth="yes"/>
      <point x="520" y="167"/>
      <point x="478" y="117"/>
      <point x="379" y="117" type="curve" smooth="yes"/>
      <point x="284" y="117"/>
      <point x="236" y="159"/>
      <point x="236" y="265" type="curve" smooth="yes"/>
      <point x="236" y="714" type="line"/>
      <point x="85" y="714" type="line"/>
      <point x="85" y="254" type="line" smooth="yes"/>
      <point x="85" y="95"/>
      <point x="186" y="-10"/>
      <point x="375" y="-10" type="curve" smooth="yes"/>
      <point x="574" y="-10"/>
      <point x="671" y="104"/>
      <point x="671" y="252" type="curve" smooth="yes"/>
      <point x="671" y="532" type="line"/>
      <point x="832" y="555"/>
      <point x="873" y="641"/>
      <point x="895" y="749" type="curve"/>
      <point x="888" y="760" type="line"/>
      <point x="741" y="760" type="line"/>
      <point x="741" y="691"/>
      <point x="719" y="639"/>
    </contour>
  </outline>
</glyph>
<glyph name="uhorn" format="2">
  <advance width="760"/>
  <unicode hex="01B0"/>
  <anchor x="319" y="0" name="bottom"/>
  <anchor x="329" y="546" name="top"/>
  <outline>
    <contour>
      <point x="806" y="617" type="curve"/>
      <point x="799" y="628" type="line"/>
      <point x="652" y="628" type="line"/>
      <point x="652" y="558"/>
      <point x="629" y="505"/>
      <point x="579" y="489" type="curve"/>
      <point x="579" y="546" type="line"/>
      <point x="430" y="546" type="line"/>
      <point x="430" y="289" type="line" smooth="yes"/>
      <point x="430" y="173"/>
      <point x="403" y="109"/>
      <point x="312" y="109" type="curve" smooth="yes"/>
      <point x="251" y="109"/>
      <point x="224" y="149"/>
      <point x="224" y="227" type="curve" smooth="yes"/>
      <point x="224" y="546" type="line"/>
      <point x="75" y="546" type="line"/>
      <point x="75" y="190" type="line" smooth="yes"/>
      <point x="75" y="50"/>
      <point x="152" y="-10"/>
      <point x="269" y="-10" type="curve" smooth="yes"/>
      <point x="336" y="-10"/>
      <point x="401" y="14"/>
      <point x="436" y="70" type="curve"/>
      <point x="445" y="70" type="line"/>
      <point x="465" y="0" type="line"/>
      <point x="579" y="0" type="line"/>
      <point x="579" y="399" type="line"/>
      <point x="743" y="422"/>
      <point x="784" y="508"/>
    </contour>
  </outline>
</glyph>
<glyph name="uni01B1" format="2">
  <advance width="786"/>
  <unicode hex="01B1"/>
  <anchor x="393" y="0" name="bottom"/>
  <anchor x="393" y="714" name="top"/>
  <outline>
    <contour>
      <point x="393" y="116" type="curve"/>
      <point x="279" y="116"/>
      <point x="209" y="186"/>
      <point x="209" y="319" type="curve" smooth="yes"/>
      <point x="209" y="433"/>
      <point x="241" y="526"/>
      <point x="341" y="578" type="curve"/>
      <point x="341" y="714" type="line"/>
      <point x="27" y="714" type="line"/>
      <point x="27" y="587" type="line"/>
      <point x="210" y="587" type="line"/>
      <point x="114" y="529"/>
      <point x="53" y="423"/>
      <point x="53" y="289" type="curve" smooth="yes"/>
      <point x="53" y="107"/>
      <point x="184" y="-10"/>
      <point x="393" y="-10" type="curve"/>
      <point x="602" y="-10"/>
      <point x="733" y="107"/>
      <point x="733" y="288" type="curve" smooth="yes"/>
      <point x="733" y="422"/>
      <point x="672" y="530"/>
      <point x="578" y="587" type="curve"/>
      <point x="759" y="587" type="line"/>
      <point x="759" y="714" type="line"/>
      <point x="447" y="714" type="line"/>
      <point x="447" y="578" type="line"/>
      <point x="546" y="524"/>
      <point x="577" y="435"/>
      <point x="577" y="320" type="curve" smooth="yes"/>
      <point x="577" y="186"/>
      <point x="507" y="116"/>
    </contour>
  </outline>
</glyph>
<glyph name="uni01B2" format="2">
  <advance width="756"/>
  <unicode hex="01B2"/>
  <anchor x="384" y="0" name="bottom"/>
  <anchor x="384" y="714" name="top"/>
  <anchor x="736" y="714" name="topright"/>
  <outline>
    <contour>
      <point x="375" y="-10" type="curve" smooth="yes"/>
      <point x="574" y="-10"/>
      <point x="671" y="104"/>
      <point x="671" y="252" type="curve" smooth="yes"/>
      <point x="671" y="565" type="line" smooth="yes"/>
      <point x="671" y="669"/>
      <point x="616" y="724"/>
      <point x="513" y="724" type="curve" smooth="yes"/>
      <point x="465" y="724"/>
      <point x="420" y="712"/>
      <point x="392" y="699" type="curve"/>
      <point x="392" y="582" type="line"/>
      <point x="413" y="593"/>
      <point x="439" y="599"/>
      <point x="466" y="599" type="curve" smooth="yes"/>
      <point x="497" y="599"/>
      <point x="520" y="584"/>
      <point x="520" y="537" type="curve" smooth="yes"/>
      <point x="520" y="278" type="line" smooth="yes"/>
      <point x="520" y="167"/>
      <point x="478" y="117"/>
      <point x="379" y="117" type="curve" smooth="yes"/>
      <point x="284" y="117"/>
      <point x="236" y="159"/>
      <point x="236" y="277" type="curve" smooth="yes"/>
      <point x="236" y="714" type="line"/>
      <point x="85" y="714" type="line"/>
      <point x="85" y="254" type="line" smooth="yes"/>
      <point x="85" y="95"/>
      <point x="186" y="-10"/>
    </contour>
  </outline>
</glyph>
<glyph name="uni01B3" format="2">
  <advance width="634"/>
  <unicode hex="01B3"/>
  <anchor x="312" y="0" name="bottom"/>
  <anchor x="312" y="714" name="top"/>
  <outline>
    <contour>
      <point x="237" y="0" type="line"/>
      <point x="387" y="0" type="line"/>
      <point x="387" y="278" type="line"/>
      <point x="497" y="503" type="line" smooth="yes"/>
      <point x="539" y="589"/>
      <point x="554" y="599"/>
      <point x="587" y="599" type="curve" smooth="yes"/>
      <point x="597" y="599"/>
      <point x="614" y="595"/>
      <point x="624" y="590" type="curve"/>
      <point x="624" y="707" type="line"/>
      <point x="607" y="715"/>
      <point x="576" y="724"/>
      <point x="546" y="724" type="curve" smooth="yes"/>
      <point x="468" y="724"/>
      <point x="430" y="680"/>
      <point x="396" y="605" type="curve" smooth="yes"/>
      <point x="312" y="420" type="line"/>
      <point x="163" y="714" type="line"/>
      <point x="0" y="714" type="line"/>
      <point x="237" y="273" type="line"/>
    </contour>
  </outline>
</glyph>
<glyph name="uni01B4" format="2">
  <advance width="615"/>
  <unicode hex="01B4"/>
  <anchor x="308" y="-240" name="bottom"/>
  <anchor x="308" y="546" name="top"/>
  <outline>
    <contour>
      <point x="530" y="556" type="curve" smooth="yes"/>
      <point x="445" y="556"/>
      <point x="404" y="498"/>
      <point x="381" y="434" type="curve" smooth="yes"/>
      <point x="327" y="286" type="line" smooth="yes"/>
      <point x="311" y="241"/>
      <point x="300" y="197"/>
      <point x="293" y="167" type="curve"/>
      <point x="290" y="167" type="line"/>
      <point x="283" y="211"/>
      <point x="270" y="257"/>
      <point x="258" y="292" type="curve" smooth="yes"/>
      <point x="172" y="546" type="line"/>
      <point x="10" y="546" type="line"/>
      <point x="227" y="4" type="line"/>
      <point x="217" y="-25" type="line" smooth="yes"/>
      <point x="196" y="-85"/>
      <point x="159" y="-120"/>
      <point x="101" y="-120" type="curve" smooth="yes"/>
      <point x="83" y="-120"/>
      <point x="57" y="-117"/>
      <point x="44" y="-114" type="curve"/>
      <point x="44" y="-232" type="line"/>
      <point x="62" y="-236"/>
      <point x="92" y="-240"/>
      <point x="116" y="-240" type="curve" smooth="yes"/>
      <point x="235" y="-240"/>
      <point x="310" y="-175"/>
      <point x="350" y="-65" type="curve" smooth="yes"/>
      <point x="494" y="332" type="line" smooth="yes"/>
      <point x="524" y="415"/>
      <point x="546" y="431"/>
      <point x="576" y="431" type="curve" smooth="yes"/>
      <point x="586" y="431"/>
      <point x="598" y="429"/>
      <point x="610" y="426" type="curve"/>
      <point x="610" y="541" type="line"/>
      <point x="593" y="549"/>
      <point x="557" y="556"/>
    </contour>
  </outline>
</glyph>
<glyph name="uni01B5" format="2">
  <advance width="579"/>
  <unicode hex="01B5"/>
  <anchor x="290" y="0" name="bottom"/>
  <anchor x="290" y="714" name="top"/>
  <outline>
    <contour>
      <point x="62" y="415" type="line"/>
      <point x="62" y="291" type="line"/>
      <point x="159" y="291" type="line"/>
      <point x="24" y="98" type="line"/>
      <point x="24" y="0" type="line"/>
      <point x="555" y="0" type="line"/>
      <point x="555" y="125" type="line"/>
      <point x="204" y="125" type="line"/>
      <point x="319" y="291" type="line"/>
      <point x="499" y="291" type="line"/>
      <point x="499" y="415" type="line"/>
      <point x="406" y="415" type="line"/>
      <point x="546" y="616" type="line"/>
      <point x="546" y="714" type="line"/>
      <point x="33" y="714" type="line"/>
      <point x="33" y="589" type="line"/>
      <point x="366" y="589" type="line"/>
      <point x="245" y="415" type="line"/>
    </contour>
  </outline>
</glyph>
<glyph name="uni01B6" format="2">
  <advance width="488"/>
  <unicode hex="01B6"/>
  <anchor x="244" y="0" name="bottom"/>
  <anchor x="244" y="546" name="top"/>
  <outline>
    <contour>
      <point x="449" y="546" type="line"/>
      <point x="42" y="546" type="line"/>
      <point x="42" y="432" type="line"/>
      <point x="280" y="432" type="line"/>
      <point x="203" y="327" type="line"/>
      <point x="53" y="327" type="line"/>
      <point x="53" y="230" type="line"/>
      <point x="132" y="230" type="line"/>
      <point x="27" y="88" type="line"/>
      <point x="27" y="0" type="line"/>
      <point x="458" y="0" type="line"/>
      <point x="458" y="114" type="line"/>
      <point x="203" y="114" type="line"/>
      <point x="288" y="230" type="line"/>
      <point x="435" y="230" type="line"/>
      <point x="435" y="327" type="line"/>
      <point x="359" y="327" type="line"/>
      <point x="449" y="449" type="line"/>
    </contour>
  </outline>
</glyph>
<glyph name="uni01B8" format="2">
  <advance width="591"/>
  <unicode hex="01B8"/>
  <anchor x="296" y="0" name="bottom"/>
  <anchor x="296" y="714" name="top"/>
  <outline>
    <contour>
      <point x="338" y="-10" type="curve" smooth="yes"/>
      <point x="426" y="-10"/>
      <point x="500" y="3"/>
      <point x="563" y="29" type="curve"/>
      <point x="563" y="157" type="line"/>
      <point x="497" y="126"/>
      <point x="415" y="110"/>
      <point x="352" y="110" type="curve" smooth="yes"/>
      <point x="236" y="110"/>
      <point x="190" y="148"/>
      <point x="190" y="215" type="curve" smooth="yes"/>
      <point x="190" y="274"/>
      <point x="241" y="313"/>
      <point x="393" y="313" type="curve" smooth="yes"/>
      <point x="453" y="313" type="line"/>
      <point x="453" y="419" type="line"/>
      <point x="276" y="589" type="line"/>
      <point x="539" y="589" type="line"/>
      <point x="539" y="714" type="line"/>
      <point x="71" y="714" type="line"/>
      <point x="71" y="617" type="line"/>
      <point x="282" y="416" type="line"/>
      <point x="129" y="404"/>
      <point x="39" y="336"/>
      <point x="39" y="203" type="curve" smooth="yes"/>
      <point x="39" y="75"/>
      <point x="140" y="-10"/>
    </contour>
  </outline>
</glyph>
<glyph name="uni01B9" format="2">
  <advance width="581"/>
  <unicode hex="01B9"/>
  <anchor x="291" y="-240" name="bottom"/>
  <anchor x="291" y="546" name="top"/>
  <outline>
    <contour>
      <point x="322" y="-240" type="curve" smooth="yes"/>
      <point x="413" y="-240"/>
      <point x="482" y="-225"/>
      <point x="543" y="-199" type="curve"/>
      <point x="543" y="-73" type="line"/>
      <point x="479" y="-104"/>
      <point x="404" y="-120"/>
      <point x="343" y="-120" type="curve" smooth="yes"/>
      <point x="232" y="-120"/>
      <point x="190" y="-63"/>
      <point x="190" y="9" type="curve" smooth="yes"/>
      <point x="190" y="82"/>
      <point x="233" y="139"/>
      <point x="385" y="139" type="curve" smooth="yes"/>
      <point x="443" y="139" type="line"/>
      <point x="443" y="245" type="line"/>
      <point x="250" y="432" type="line"/>
      <point x="538" y="432" type="line"/>
      <point x="538" y="546" type="line"/>
      <point x="66" y="546" type="line"/>
      <point x="66" y="449" type="line"/>
      <point x="277" y="247" type="line"/>
      <point x="106" y="222"/>
      <point x="39" y="125"/>
      <point x="39" y="0" type="curve" smooth="yes"/>
      <point x="39" y="-142"/>
      <point x="134" y="-240"/>
    </contour>
  </outline>
</glyph>
<glyph name="uni01BA" format="2">
  <advance width="581"/>
  <unicode hex="01BA"/>
  <anchor x="291" y="-240" name="bottom"/>
  <anchor x="291" y="546" name="top"/>
  <outline>
    <contour>
      <point x="256" y="-240" type="curve" smooth="yes"/>
      <point x="346" y="-240"/>
      <point x="430" y="-221"/>
      <point x="478" y="-201" type="curve"/>
      <point x="478" y="-91" type="line"/>
      <point x="430" y="-108"/>
      <point x="360" y="-130"/>
      <point x="275" y="-130" type="curve" smooth="yes"/>
      <point x="213" y="-130"/>
      <point x="175" y="-116"/>
      <point x="175" y="-85" type="curve" smooth="yes"/>
      <point x="175" y="-58"/>
      <point x="208" y="-49"/>
      <point x="256" y="-45" type="curve" smooth="yes"/>
      <point x="481" y="-28"/>
      <point x="522" y="53"/>
      <point x="522" y="140" type="curve" smooth="yes"/>
      <point x="522" y="249"/>
      <point x="438" y="297"/>
      <point x="324" y="306" type="curve"/>
      <point x="501" y="450" type="line"/>
      <point x="501" y="546" type="line"/>
      <point x="58" y="546" type="line"/>
      <point x="58" y="432" type="line"/>
      <point x="305" y="432" type="line"/>
      <point x="155" y="299" type="line"/>
      <point x="155" y="199" type="line"/>
      <point x="223" y="199" type="line" smooth="yes"/>
      <point x="330" y="199"/>
      <point x="371" y="186"/>
      <point x="371" y="143" type="curve" smooth="yes"/>
      <point x="371" y="97"/>
      <point x="334" y="85"/>
      <point x="241" y="78" type="curve" smooth="yes"/>
      <point x="102" y="68"/>
      <point x="48" y="5"/>
      <point x="48" y="-84" type="curve" smooth="yes"/>
      <point x="48" y="-189"/>
      <point x="135" y="-240"/>
    </contour>
  </outline>
</glyph>
<glyph name="uni01BB" format="2">
  <advance width="570"/>
  <unicode hex="01BB"/>
  <anchor x="285" y="0" name="bottom"/>
  <anchor x="285" y="765" name="top"/>
  <outline>
    <contour>
      <point x="268" y="765" type="curve" smooth="yes"/>
      <point x="146" y="765"/>
      <point x="75" y="704"/>
      <point x="31" y="663" type="curve"/>
      <point x="104" y="572" type="line"/>
      <point x="147" y="614"/>
      <point x="191" y="646"/>
      <point x="252" y="646" type="curve" smooth="yes"/>
      <point x="309" y="646"/>
      <point x="346" y="608"/>
      <point x="346" y="552" type="curve" smooth="yes"/>
      <point x="346" y="504"/>
      <point x="335" y="461"/>
      <point x="301" y="419" type="curve"/>
      <point x="44" y="419" type="line"/>
      <point x="44" y="322" type="line"/>
      <point x="220" y="322" type="line"/>
      <point x="27" y="111" type="line"/>
      <point x="27" y="0" type="line"/>
      <point x="526" y="0" type="line"/>
      <point x="526" y="114" type="line"/>
      <point x="202" y="114" type="line"/>
      <point x="202" y="121" type="line"/>
      <point x="387" y="322" type="line"/>
      <point x="526" y="322" type="line"/>
      <point x="526" y="419" type="line"/>
      <point x="457" y="419" type="line"/>
      <point x="483" y="462"/>
      <point x="496" y="506"/>
      <point x="496" y="560" type="curve" smooth="yes"/>
      <point x="496" y="677"/>
      <point x="410" y="765"/>
    </contour>
  </outline>
</glyph>
<glyph name="uni01BC" format="2">
  <advance width="578"/>
  <unicode hex="01BC"/>
  <anchor x="289" y="0" name="bottom"/>
  <anchor x="289" y="714" name="top"/>
  <outline>
    <contour>
      <point x="230" y="-10" type="curve" smooth="yes"/>
      <point x="438" y="-10"/>
      <point x="539" y="81"/>
      <point x="539" y="231" type="curve" smooth="yes"/>
      <point x="539" y="372"/>
      <point x="438" y="456"/>
      <point x="289" y="456" type="curve" smooth="yes"/>
      <point x="262" y="456" type="line"/>
      <point x="262" y="588" type="line"/>
      <point x="518" y="588" type="line"/>
      <point x="518" y="714" type="line"/>
      <point x="24" y="714" type="line"/>
      <point x="24" y="588" type="line"/>
      <point x="113" y="588" type="line"/>
      <point x="113" y="330" type="line"/>
      <point x="240" y="330" type="line" smooth="yes"/>
      <point x="337" y="330"/>
      <point x="387" y="296"/>
      <point x="387" y="221" type="curve" smooth="yes"/>
      <point x="387" y="143"/>
      <point x="320" y="113"/>
      <point x="225" y="113" type="curve" smooth="yes"/>
      <point x="164" y="113"/>
      <point x="77" y="133"/>
      <point x="28" y="159" type="curve"/>
      <point x="28" y="29" type="line"/>
      <point x="77" y="3"/>
      <point x="155" y="-10"/>
    </contour>
  </outline>
</glyph>
<glyph name="uni01BD" format="2">
  <advance width="555"/>
  <unicode hex="01BD"/>
  <anchor x="278" y="0" name="bottom"/>
  <anchor x="278" y="546" name="top"/>
  <outline>
    <contour>
      <point x="233" y="-10" type="curve" smooth="yes"/>
      <point x="428" y="-10"/>
      <point x="517" y="61"/>
      <point x="517" y="172" type="curve" smooth="yes"/>
      <point x="517" y="292"/>
      <point x="418" y="337"/>
      <point x="283" y="337" type="curve" smooth="yes"/>
      <point x="268" y="337" type="line"/>
      <point x="268" y="434" type="line"/>
      <point x="498" y="434" type="line"/>
      <point x="498" y="546" type="line"/>
      <point x="44" y="546" type="line"/>
      <point x="44" y="434" type="line"/>
      <point x="128" y="434" type="line"/>
      <point x="128" y="233" type="line"/>
      <point x="223" y="233" type="line" smooth="yes"/>
      <point x="314" y="233"/>
      <point x="372" y="215"/>
      <point x="372" y="170" type="curve" smooth="yes"/>
      <point x="372" y="124"/>
      <point x="316" y="105"/>
      <point x="227" y="105" type="curve" smooth="yes"/>
      <point x="164" y="105"/>
      <point x="84" y="124"/>
      <point x="38" y="147" type="curve"/>
      <point x="38" y="24" type="line"/>
      <point x="83" y="3"/>
      <point x="162" y="-10"/>
    </contour>
  </outline>
</glyph>
<glyph name="uni01BE" format="2">
  <advance width="497"/>
  <unicode hex="01BE"/>
  <anchor x="249" y="0" name="bottom"/>
  <anchor x="249" y="662" name="top"/>
  <outline>
    <contour>
      <point x="226" y="-10" type="curve" smooth="yes"/>
      <point x="395" y="-10"/>
      <point x="459" y="64"/>
      <point x="459" y="157" type="curve" smooth="yes"/>
      <point x="459" y="258"/>
      <point x="389" y="286"/>
      <point x="316" y="329" type="curve" smooth="yes"/>
      <point x="282" y="349"/>
      <point x="271" y="361"/>
      <point x="271" y="399" type="curve" smooth="yes"/>
      <point x="271" y="434" type="line"/>
      <point x="409" y="434" type="line"/>
      <point x="409" y="546" type="line"/>
      <point x="271" y="546" type="line"/>
      <point x="271" y="662" type="line"/>
      <point x="176" y="662" type="line"/>
      <point x="133" y="547" type="line"/>
      <point x="36" y="497" type="line"/>
      <point x="36" y="434" type="line"/>
      <point x="131" y="434" type="line"/>
      <point x="131" y="394" type="line" smooth="yes"/>
      <point x="131" y="288"/>
      <point x="181" y="258"/>
      <point x="239" y="223" type="curve" smooth="yes"/>
      <point x="279" y="199"/>
      <point x="314" y="189"/>
      <point x="314" y="153" type="curve" smooth="yes"/>
      <point x="314" y="117"/>
      <point x="284" y="99"/>
      <point x="213" y="99" type="curve" smooth="yes"/>
      <point x="154" y="99"/>
      <point x="79" y="124"/>
      <point x="36" y="147" type="curve"/>
      <point x="36" y="24" type="line"/>
      <point x="79" y="3"/>
      <point x="158" y="-10"/>
    </contour>
  </outline>
</glyph>
<glyph name="uni01BF" format="2">
  <advance width="633"/>
  <unicode hex="01BF"/>
  <anchor x="317" y="-240" name="bottom"/>
  <anchor x="317" y="546" name="top"/>
  <outline>
    <contour>
      <point x="382" y="556" type="curve" smooth="yes"/>
      <point x="303" y="556"/>
      <point x="256" y="519"/>
      <point x="227" y="475" type="curve"/>
      <point x="220" y="475" type="line"/>
      <point x="199" y="546" type="line"/>
      <point x="78" y="546" type="line"/>
      <point x="78" y="-240" type="line"/>
      <point x="227" y="-240" type="line"/>
      <point x="227" y="-19" type="line"/>
      <point x="486" y="10"/>
      <point x="588" y="148"/>
      <point x="588" y="304" type="curve" smooth="yes"/>
      <point x="588" y="456"/>
      <point x="505" y="556"/>
    </contour>
    <contour>
      <point x="334" y="437" type="curve" smooth="yes"/>
      <point x="403" y="437"/>
      <point x="436" y="381"/>
      <point x="436" y="306" type="curve" smooth="yes"/>
      <point x="436" y="199"/>
      <point x="353" y="124"/>
      <point x="227" y="108" type="curve"/>
      <point x="227" y="288" type="line" smooth="yes"/>
      <point x="227" y="386"/>
      <point x="256" y="437"/>
    </contour>
  </outline>
</glyph>
<glyph name="uni01C2" format="2">
  <advance width="516"/>
  <unicode hex="01C2"/>
  <anchor x="258" y="0" name="bottom"/>
  <anchor x="258" y="760" name="top"/>
  <outline>
    <contour>
      <point x="311" y="760" type="line"/>
      <point x="204" y="760" type="line"/>
      <point x="204" y="531" type="line"/>
      <point x="50" y="531" type="line"/>
      <point x="50" y="434" type="line"/>
      <point x="204" y="434" type="line"/>
      <point x="204" y="348" type="line"/>
      <point x="50" y="348" type="line"/>
      <point x="50" y="251" type="line"/>
      <point x="204" y="251" type="line"/>
      <point x="204" y="0" type="line"/>
      <point x="311" y="0" type="line"/>
      <point x="311" y="251" type="line"/>
      <point x="466" y="251" type="line"/>
      <point x="466" y="348" type="line"/>
      <point x="311" y="348" type="line"/>
      <point x="311" y="434" type="line"/>
      <point x="466" y="434" type="line"/>
      <point x="466" y="531" type="line"/>
      <point x="311" y="531" type="line"/>
    </contour>
  </outline>
</glyph>
<glyph name="uni01E4" format="2">
  <advance width="724"/>
  <unicode hex="01E4"/>
  <anchor x="402" y="0" name="bottom"/>
  <anchor x="412" y="714" name="top"/>
  <outline>
    <contour>
      <point x="390" y="-10" type="curve" smooth="yes"/>
      <point x="492" y="-10"/>
      <point x="569" y="6"/>
      <point x="644" y="31" type="curve"/>
      <point x="644" y="160" type="line"/>
      <point x="709" y="160" type="line"/>
      <point x="709" y="257" type="line"/>
      <point x="644" y="257" type="line"/>
      <point x="644" y="421" type="line"/>
      <point x="361" y="421" type="line"/>
      <point x="361" y="305" type="line"/>
      <point x="496" y="305" type="line"/>
      <point x="496" y="257" type="line"/>
      <point x="371" y="257" type="line"/>
      <point x="371" y="160" type="line"/>
      <point x="496" y="160" type="line"/>
      <point x="496" y="116" type="line"/>
      <point x="469" y="110"/>
      <point x="441" y="106"/>
      <point x="405" y="106" type="curve" smooth="yes"/>
      <point x="273" y="106"/>
      <point x="214" y="194"/>
      <point x="214" y="355" type="curve" smooth="yes"/>
      <point x="214" y="502"/>
      <point x="298" y="598"/>
      <point x="430" y="598" type="curve" smooth="yes"/>
      <point x="491" y="598"/>
      <point x="549" y="581"/>
      <point x="593" y="559" type="curve"/>
      <point x="643" y="680" type="line"/>
      <point x="583" y="706"/>
      <point x="507" y="724"/>
      <point x="431" y="724" type="curve" smooth="yes"/>
      <point x="191" y="724"/>
      <point x="58" y="582"/>
      <point x="58" y="358" type="curve" smooth="yes"/>
      <point x="58" y="118"/>
      <point x="177" y="-10"/>
    </contour>
  </outline>
</glyph>
<glyph name="uni01E5" format="2">
  <advance width="633"/>
  <unicode hex="01E5"/>
  <anchor x="317" y="-240" name="bottom"/>
  <anchor x="317" y="546" name="top"/>
  <outline>
    <contour>
      <point x="255" y="556" type="curve" smooth="yes"/>
      <point x="124" y="556"/>
      <point x="45" y="457"/>
      <point x="45" y="286" type="curve" smooth="yes"/>
      <point x="45" y="117"/>
      <point x="122" y="27"/>
      <point x="251" y="27" type="curve" smooth="yes"/>
      <point x="316" y="27"/>
      <point x="369" y="51"/>
      <point x="406" y="108" type="curve"/>
      <point x="410" y="108" type="line"/>
      <point x="407" y="86"/>
      <point x="406" y="58"/>
      <point x="406" y="36" type="curve" smooth="yes"/>
      <point x="406" y="-14" type="line"/>
      <point x="243" y="-14" type="line"/>
      <point x="243" y="-91" type="line"/>
      <point x="389" y="-91" type="line"/>
      <point x="376" y="-122"/>
      <point x="338" y="-136"/>
      <point x="291" y="-136" type="curve" smooth="yes"/>
      <point x="216" y="-136"/>
      <point x="145" y="-122"/>
      <point x="78" y="-94" type="curve"/>
      <point x="78" y="-208" type="line"/>
      <point x="141" y="-232"/>
      <point x="205" y="-240"/>
      <point x="282" y="-240" type="curve" smooth="yes"/>
      <point x="424" y="-240"/>
      <point x="514" y="-190"/>
      <point x="543" y="-91" type="curve"/>
      <point x="615" y="-91" type="line"/>
      <point x="615" y="-14" type="line"/>
      <point x="555" y="-14" type="line"/>
      <point x="555" y="546" type="line"/>
      <point x="429" y="546" type="line"/>
      <point x="417" y="476" type="line"/>
      <point x="413" y="476" type="line"/>
      <point x="375" y="529"/>
      <point x="322" y="556"/>
    </contour>
    <contour>
      <point x="302" y="435" type="curve" smooth="yes"/>
      <point x="382" y="435"/>
      <point x="416" y="391"/>
      <point x="416" y="282" type="curve" smooth="yes"/>
      <point x="416" y="270" type="line" smooth="yes"/>
      <point x="416" y="170"/>
      <point x="380" y="139"/>
      <point x="304" y="139" type="curve" smooth="yes"/>
      <point x="231" y="139"/>
      <point x="197" y="185"/>
      <point x="197" y="286" type="curve" smooth="yes"/>
      <point x="197" y="388"/>
      <point x="232" y="435"/>
    </contour>
  </outline>
</glyph>
